<svg preserveAspectRatio="none" width="100%" height="100%" overflow="visible" style="display: block;" viewBox="0 0 24 24" fill="none" xmlns="http://www.w3.org/2000/svg">
<g id="analytics">
<g id="Shape">
<path d="M9 4.35294C9 3.05345 9.89543 2 11 2H13C14.1046 2 15 3.05345 15 4.35294V19.6471C15 20.9466 14.1046 22 13 22H11C9.89543 22 9 20.9466 9 19.6471V4.35294Z" fill="var(--fill-0, white)"/>
<path d="M17 9.05882C17 7.75933 17.8954 6.70588 19 6.70588H21C22.1046 6.70588 23 7.75933 23 9.05882V19.6471C23 20.9466 22.1046 22 21 22H19C17.8954 22 17 20.9466 17 19.6471V9.05882Z" fill="var(--fill-0, white)"/>
<path d="M3 12C1.89543 12 1 13.0534 1 14.3529V19.6471C1 20.9466 1.89543 22 3 22H5C6.10457 22 7 20.9466 7 19.6471V14.3529C7 13.0534 6.10457 12 5 12H3Z" fill="var(--fill-0, white)"/>
</g>
</g>
</svg>
