<svg width="40" height="40" viewBox="0 0 40 40" fill="none" xmlns="http://www.w3.org/2000/svg">
<rect x="1" y="1" width="38" height="38" rx="11" fill="url(#paint0_linear_127_226)" stroke="#B9D3FF" stroke-width="2"/>
<path d="M18.1074 12.9669L19.1074 12.9669L19.1074 28.8002L18.1074 28.8002L18.1074 30.3835L16.1074 30.3835L16.1074 28.8002L15.1074 28.8002L15.1074 12.9669L16.1074 12.9669L16.1074 11.3835L18.1074 11.3835L18.1074 12.9669Z" fill="#2A60BD"/>
<path d="M24.1074 19.0088L25.1074 19.0088L25.1074 28.7588L24.1074 28.7588L24.1074 30.3838L22.1074 30.3838L22.1074 28.7588L21.1074 28.7588L21.1074 19.0088L22.1074 19.0088L22.1074 17.3838L24.1074 17.3838L24.1074 19.0088Z" fill="#2A60BD"/>
<path d="M30.1074 12.9671L31.1074 12.9671L31.1074 28.8005L30.1074 28.8005L30.1074 30.3838L28.1074 30.3838L28.1074 28.8005L27.1074 28.8005L27.1074 12.9671L28.1074 12.9671L28.1074 11.3838L30.1074 11.3838L30.1074 12.9671Z" fill="#2A60BD"/>
<path d="M12.1074 20.9552L13.1074 20.9552L13.1074 28.8124L12.1074 28.8124L12.1074 30.3838L10.1074 30.3838L10.1074 28.8124L9.10742 28.8124L9.10742 20.9552L10.1074 20.9552L10.1074 19.3838L12.1074 19.3838L12.1074 20.9552Z" fill="#2A60BD"/>
<defs>
<linearGradient id="paint0_linear_127_226" x1="20" y1="0" x2="20" y2="40" gradientUnits="userSpaceOnUse">
<stop stop-color="#E6F5FF"/>
<stop offset="1" stop-color="#C7E0F9"/>
</linearGradient>
</defs>
</svg>
