<svg width="90" height="93" viewBox="0 0 90 93" fill="none" xmlns="http://www.w3.org/2000/svg">
<mask id="path-1-outside-1_149_736" maskUnits="userSpaceOnUse" x="-1.02813" y="-12.9413" width="90.9023" height="117.013" fill="black">
<rect fill="white" x="-1.02813" y="-12.9413" width="90.9023" height="117.013"/>
<path d="M47.5957 41.0283C42.6216 40.4907 36.1322 42.536 29.6132 46.1987C29.6065 46.3313 29.6008 46.4641 29.596 46.5972C28.0521 89.159 77.4001 44.2492 47.5957 41.0283Z"/>
</mask>
<path d="M4.85056 92.0936C5.1227 92.1405 5.38127 91.9578 5.4281 91.6857L6.19114 87.2508C6.23796 86.9787 6.05531 86.7201 5.78316 86.6733C5.51102 86.6265 5.25245 86.8091 5.20562 87.0813L4.52736 91.0233L0.585285 90.3451C0.313142 90.2983 0.0545667 90.4809 0.00774331 90.7531C-0.0390814 91.0252 0.143577 91.2838 0.41572 91.3306L4.85056 92.0936ZM29.6132 46.1987L29.8582 46.6346L30.0987 46.4995L30.1126 46.2239L29.6132 46.1987ZM4.93534 91.6009L5.34372 91.3124C0.40937 84.3272 2.12497 75.6549 7.36116 67.3976C12.589 59.1536 21.2469 51.473 29.8582 46.6346L29.6132 46.1987L29.3683 45.7628C20.6363 50.669 11.8464 58.4573 6.51664 66.8621C1.19528 75.2537 -0.756402 84.4101 4.52695 91.8894L4.93534 91.6009ZM29.6132 46.1987L30.1126 46.2239C30.7273 34.0349 39.3301 23.992 50.9396 16.3364C62.5367 8.68896 77.0348 3.49393 89.2111 0.97935L89.11 0.489683L89.0088 1.62694e-05C76.7392 2.53389 62.1155 7.76886 50.3891 15.5016C38.675 23.2261 29.7524 33.5135 29.1139 46.1735L29.6132 46.1987ZM29.6132 46.1987L29.1234 45.3269L28.6423 45.5972L28.6145 46.1484L29.6132 46.1987ZM47.5957 41.0283L47.7031 40.0341V40.0341L47.5957 41.0283ZM29.596 46.5972L30.5953 46.6334L30.5953 46.6334L29.596 46.5972ZM29.6132 46.1987L30.1031 47.0705C36.5573 43.4442 42.8232 41.5184 47.4882 42.0225L47.5957 41.0283L47.7031 40.0341C42.42 39.4631 35.707 41.6278 29.1234 45.3269L29.6132 46.1987ZM47.5957 41.0283L47.4882 42.0225C51.0965 42.4124 53.3369 43.418 54.6217 44.6577C55.8721 45.8642 56.3244 47.3956 56.1451 49.1403C55.7745 52.745 52.6942 57.1077 48.5938 60.1811C44.4728 63.2699 39.7842 64.7218 36.349 63.2195C33.0092 61.7589 30.2125 57.1869 30.5953 46.6334L29.596 46.5972L28.5966 46.5609C28.2075 57.2883 31.0004 63.0633 35.5477 65.052C39.9997 66.999 45.4958 65.0025 49.7933 61.7815C54.1113 58.545 57.6832 53.7365 58.1346 49.3448C58.3663 47.0913 57.772 44.9181 56.0104 43.2184C54.2832 41.5519 51.5459 40.4494 47.7031 40.0341L47.5957 41.0283ZM29.596 46.5972L30.5953 46.6334C30.6 46.5051 30.6055 46.377 30.612 46.2491L29.6132 46.1987L28.6145 46.1484C28.6076 46.2856 28.6016 46.4231 28.5966 46.5609L29.596 46.5972Z" fill="url(#paint0_linear_149_736)" mask="url(#path-1-outside-1_149_736)"/>
<defs>
<linearGradient id="paint0_linear_149_736" x1="8.93883" y1="39.4927" x2="80.2871" y2="51.7686" gradientUnits="userSpaceOnUse">
<stop stop-color="#FF5159"/>
<stop offset="0.201923" stop-color="#D048FF"/>
<stop offset="0.4" stop-color="#6C73FF"/>
<stop offset="0.6" stop-color="#407CFF"/>
<stop offset="0.8" stop-color="#54FF9C"/>
<stop offset="1" stop-color="#FFE23C"/>
</linearGradient>
</defs>
</svg>
