<svg width="175" height="28" viewBox="0 0 175 28" fill="none" xmlns="http://www.w3.org/2000/svg">
<g opacity="0.3">
<path d="M0 0H0.466592V28H0V0Z" fill="#626262"/>
<path d="M16.0973 0H19.6232V28H16.0973V0Z" fill="#626262"/>
<path d="M23.3177 0H21.6798V28H23.3177V0Z" fill="#626262"/>
<path d="M25.7685 0H28.0606V28H25.7685V0Z" fill="#626262"/>
<path d="M31.3074 0H30.1602V28H31.3074V0Z" fill="#626262"/>
<path d="M33.6429 0H34.7901V28H33.6429V0Z" fill="#626262"/>
<path d="M43.4387 0H42.2914V28H43.4387V0Z" fill="#626262"/>
<path d="M46.5267 0H48.1526V28H46.5267V0Z" fill="#626262"/>
<path d="M55.7407 0H51.5173V28H55.7407V0Z" fill="#626262"/>
<path d="M37.0725 0H40.2665V28H37.0725V0Z" fill="#626262"/>
<path d="M3.65825 0H2.06126V28H3.65825V0Z" fill="#626262"/>
<path d="M7.78279 0H9.91131V28H7.78279V0Z" fill="#626262"/>
<path d="M14.8203 0H13.649V28H14.8203V0Z" fill="#626262"/>
<path d="M5.1879 0H5.95273V28H5.1879V0Z" fill="#626262"/>
<path d="M11.7945 0H11.3303V28H11.7945V0Z" fill="#626262"/>
<path d="M57.6719 0H59.4012V28H57.6719V0Z" fill="#626262"/>
<path d="M64.1923 0H61.7968V28H64.1923V0Z" fill="#626262"/>
<path d="M66.4534 0H67.9157V28H66.4534V0Z" fill="#626262"/>
<path d="M72.0405 0H70.8428V28H72.0405V0Z" fill="#626262"/>
<path d="M75.2321 0H76.2975V28H75.2321V0Z" fill="#626262"/>
<path d="M80.9512 0H78.6904V28H80.9512V0Z" fill="#626262"/>
<path d="M83.2145 0H85.61V28H83.2145V0Z" fill="#626262"/>
<path d="M91.3316 0H89.7346V28H91.3316V0Z" fill="#626262"/>
<path d="M94.3912 0H97.3183V28H94.3912V0Z" fill="#626262"/>
<path d="M101.707 0H99.7807V28H101.707V0Z" fill="#626262"/>
<path d="M104.1 0H105.512V28H104.1V0Z" fill="#626262"/>
<path d="M112.482 0H110.354V28H112.482V0Z" fill="#626262"/>
<path d="M115.145 0H117.939V28H115.145V0Z" fill="#626262"/>
<path d="M122.461 0H119.933V28H122.461V0Z" fill="#626262"/>
<path d="M124.989 0H126.054V28H124.989V0Z" fill="#626262"/>
<path d="M129.777 0H128.58V28H129.777V0Z" fill="#626262"/>
<path d="M132.173 0H134.302V28H132.173V0Z" fill="#626262"/>
<path d="M138.292 0H136.43V28H138.292V0Z" fill="#626262"/>
<path d="M140.42 0H141.882V28H140.42V0Z" fill="#626262"/>
<path d="M147.869 0H144.278V28H147.869V0Z" fill="#626262"/>
<path d="M151.063 0H154.122V28H151.063V0Z" fill="#626262"/>
<path d="M158.114 0H156.917V28H158.114V0Z" fill="#626262"/>
<path d="M160.775 0H162.237V28H160.775V0Z" fill="#626262"/>
<path d="M166.362 0H164.5V28H166.362V0Z" fill="#626262"/>
<path d="M168.493 0H170.621V28H168.493V0Z" fill="#626262"/>
<path d="M174.08 0H172.749V28H174.08V0Z" fill="#626262"/>
</g>
</svg>
