<svg width="16" height="16" viewBox="0 0 16 16" fill="none" xmlns="http://www.w3.org/2000/svg">
<path d="M5.00065 1.3335H3.33398C2.22941 1.3335 1.33398 2.22893 1.33398 3.3335V5.00016H5.00065V1.3335Z" fill="black"/>
<path d="M1.33398 6.3335V9.66683L5.00065 9.66683V6.3335H1.33398Z" fill="black"/>
<path d="M1.33398 11.0002V12.6668C1.33398 13.7714 2.22941 14.6668 3.33398 14.6668H5.00065V11.0002L1.33398 11.0002Z" fill="black"/>
<path d="M6.33398 14.6668H9.66732V11.0002L6.33398 11.0002V14.6668Z" fill="black"/>
<path d="M11.0007 14.6668H12.6673C13.7719 14.6668 14.6673 13.7714 14.6673 12.6668V11.0002H11.0007V14.6668Z" fill="black"/>
<path d="M14.6673 9.66683V6.3335H11.0007V9.66683H14.6673Z" fill="black"/>
<path d="M14.6673 5.00016V3.3335C14.6673 2.22893 13.7719 1.3335 12.6673 1.3335H11.0007V5.00016H14.6673Z" fill="black"/>
<path d="M9.66732 1.3335H6.33398V5.00016L9.66732 5.00016V1.3335Z" fill="black"/>
<path d="M6.33398 9.66683V6.3335L9.66732 6.3335V9.66683L6.33398 9.66683Z" fill="black"/>
</svg>
