<svg width="16" height="16" viewBox="0 0 16 16" fill="none" xmlns="http://www.w3.org/2000/svg">
<rect width="16" height="16" transform="translate(16) rotate(90)" fill="#18251E"/>
<path d="M14.666 1.99992C14.666 1.63173 14.3675 1.33325 13.9993 1.33325C13.6312 1.33325 13.3327 1.63173 13.3327 1.99992L13.3327 13.9999C13.3327 14.3681 13.6312 14.6666 13.9993 14.6666C14.3675 14.6666 14.666 14.3681 14.666 13.9999L14.666 1.99992Z" fill="#999999"/>
<path d="M2.66602 1.99992C2.66602 1.63173 2.36754 1.33325 1.99935 1.33325C1.63116 1.33325 1.33268 1.63173 1.33268 1.99992L1.33268 13.9999C1.33268 14.3681 1.63116 14.6666 1.99935 14.6666C2.36754 14.6666 2.66602 14.3681 2.66602 13.9999L2.66602 1.99992Z" fill="#999999"/>
<path d="M11.9993 3.33325C11.9993 2.22868 11.1039 1.33325 9.99935 1.33325L5.99935 1.33325C4.89478 1.33325 3.99935 2.22868 3.99935 3.33325L3.99935 12.6666C3.99935 13.7712 4.89478 14.6666 5.99935 14.6666L9.99935 14.6666C11.1039 14.6666 11.9993 13.7712 11.9993 12.6666L11.9993 3.33325Z" fill="#999999"/>
</svg>
