<svg width="16" height="16" viewBox="0 0 16 16" fill="none" xmlns="http://www.w3.org/2000/svg">
<path fill-rule="evenodd" clip-rule="evenodd" d="M1.33398 3.3335C1.33398 2.22893 2.22941 1.3335 3.33398 1.3335H10.6673C11.0355 1.3335 11.334 1.63197 11.334 2.00016C11.334 2.36835 11.0355 2.66683 10.6673 2.66683H3.33398C2.96579 2.66683 2.66732 2.96531 2.66732 3.3335V10.6668C2.66732 11.035 2.36884 11.3335 2.00065 11.3335C1.63246 11.3335 1.33398 11.035 1.33398 10.6668V3.3335Z" fill="#999999"/>
<path fill-rule="evenodd" clip-rule="evenodd" d="M4.00065 6.00016C4.00065 4.89559 4.89608 4.00016 6.00065 4.00016H12.6673C13.7719 4.00016 14.6673 4.89559 14.6673 6.00016V12.6668C14.6673 13.7714 13.7719 14.6668 12.6673 14.6668H6.00065C4.89608 14.6668 4.00065 13.7714 4.00065 12.6668V6.00016Z" fill="#999999"/>
</svg>
