<svg width="16" height="16" viewBox="0 0 16 16" fill="none" xmlns="http://www.w3.org/2000/svg">
<path d="M12.1831 1.3335C11.8569 1.3335 11.5338 1.39775 11.2324 1.5226C10.931 1.64744 10.6572 1.83043 10.4265 2.06111L9.55713 2.92966L13.0712 6.44366L13.9399 5.57411C14.1705 5.34348 14.3534 5.0697 14.4782 4.76839C14.6031 4.46699 14.6673 4.14395 14.6673 3.81772C14.6673 3.49149 14.6031 3.16845 14.4782 2.86705C14.3534 2.56565 14.1704 2.29179 13.9397 2.06111C13.709 1.83043 13.4352 1.64744 13.1338 1.5226C12.8324 1.39775 12.5093 1.3335 12.1831 1.3335Z" fill="#999999"/>
<path d="M1.52946 10.95L8.61389 3.87204L12.1288 7.38692L5.05097 14.4715C4.92592 14.5967 4.75626 14.667 4.57934 14.667H2.00065C1.63246 14.667 1.33398 14.3685 1.33398 14.0003V11.4216C1.33398 11.2447 1.40431 11.075 1.52946 10.95Z" fill="#999999"/>
<path d="M8.31641 13.3335C7.94822 13.3335 7.64974 13.632 7.64974 14.0002C7.64974 14.3684 7.94822 14.6668 8.31641 14.6668H14.0006C14.3688 14.6668 14.6673 14.3684 14.6673 14.0002C14.6673 13.632 14.3688 13.3335 14.0006 13.3335H8.31641Z" fill="#999999"/>
</svg>
