<svg width="40" height="79" viewBox="0 0 40 79" fill="none" xmlns="http://www.w3.org/2000/svg">
<rect x="0.5" y="0.5" width="39" height="78" rx="12" fill="url(#paint0_linear_24_1073)"/>
<path d="M0.5 39.5H39.5V66.5C39.5 73.1274 34.1274 78.5 27.5 78.5H12.5C5.87258 78.5 0.5 73.1274 0.5 66.5V39.5Z" fill="url(#paint1_linear_24_1073)"/>
<g filter="url(#filter0_f_24_1073)">
<path d="M0.5 8.625C0.5 4.13769 4.13769 0.5 8.625 0.5H31.375C35.8623 0.5 39.5 4.13769 39.5 8.625V8.625C39.5 11.6165 37.0749 14.0417 34.0833 14.0417H5.91666C2.92512 14.0417 0.5 11.6165 0.5 8.625V8.625Z" fill="#73D0CA"/>
</g>
<defs>
<filter id="filter0_f_24_1073" x="0" y="0" width="40" height="14.5417" filterUnits="userSpaceOnUse" color-interpolation-filters="sRGB">
<feFlood flood-opacity="0" result="BackgroundImageFix"/>
<feBlend mode="normal" in="SourceGraphic" in2="BackgroundImageFix" result="shape"/>
<feGaussianBlur stdDeviation="0.25" result="effect1_foregroundBlur_24_1073"/>
</filter>
<linearGradient id="paint0_linear_24_1073" x1="39.5" y1="39.5" x2="0.5" y2="39.5" gradientUnits="userSpaceOnUse">
<stop stop-color="#73D0CA"/>
<stop offset="0.120192" stop-color="#4BB7B0"/>
<stop offset="0.879808" stop-color="#4BB7B0"/>
<stop offset="1" stop-color="#73D0CA"/>
</linearGradient>
<linearGradient id="paint1_linear_24_1073" x1="39.5" y1="54.32" x2="0.5" y2="54.32" gradientUnits="userSpaceOnUse">
<stop stop-color="#E1E1E1"/>
<stop offset="0.12" stop-color="#CDCDCD"/>
<stop offset="0.88" stop-color="#CDCDCD"/>
<stop offset="1" stop-color="#E1E1E1"/>
</linearGradient>
</defs>
</svg>
