<svg width="16" height="16" viewBox="0 0 16 16" fill="none" xmlns="http://www.w3.org/2000/svg">
<path fill-rule="evenodd" clip-rule="evenodd" d="M10 1.3335C9.63181 1.3335 9.33333 1.63197 9.33333 2.00016C9.33333 2.36835 9.63181 2.66683 10 2.66683H12.3905L11.012 4.04533C10.9019 4.01587 10.7861 4.00016 10.6667 4.00016H3.33333C2.97971 4.00016 2.64057 4.14064 2.39052 4.39069C2.14048 4.64074 2 4.97987 2 5.3335V12.6668C2 13.0205 2.14048 13.3596 2.39052 13.6096C2.64057 13.8597 2.97971 14.0002 3.33333 14.0002H10.6667C11.0203 14.0002 11.3594 13.8597 11.6095 13.6096C11.8595 13.3596 12 13.0205 12 12.6668V5.3335C12 5.21406 11.9843 5.09828 11.9548 4.98813L13.3333 3.60964V6.00016C13.3333 6.36835 13.6318 6.66683 14 6.66683C14.3682 6.66683 14.6667 6.36835 14.6667 6.00016V2.00016C14.6667 1.63197 14.3682 1.3335 14 1.3335H10ZM11.9548 4.98813C11.8321 4.52932 11.4708 4.16802 11.012 4.04533L6.19526 8.86209C5.93491 9.12244 5.93491 9.54455 6.19526 9.8049C6.45561 10.0653 6.87772 10.0653 7.13807 9.8049L11.9548 4.98813Z" fill="#999999"/>
</svg>
