<svg width="29" height="40" viewBox="0 0 29 40" fill="none" xmlns="http://www.w3.org/2000/svg">
<path d="M17.4071 36.8302C16.4588 37.4828 15.4806 38.0556 14.4741 38.6146C13.5841 39.1093 12.2544 39.9355 11.2055 39.7584C11.0095 39.7255 10.8736 39.5883 10.8665 39.4009C10.8594 39.2516 11.0113 39.0589 11.2144 39.0311C11.8447 38.9478 12.4222 38.7812 12.9996 38.474C14.2198 37.8265 15.4081 37.1478 16.5683 36.3893C17.3046 35.9067 18.0021 35.3703 18.6042 34.7264C19.9604 33.2752 21.0728 31.5967 21.8816 29.7948C22.7504 27.8542 23.1282 25.7556 22.9976 23.6448C22.9252 22.4575 22.7239 21.3275 22.4449 20.1593L21.9434 18.0694C21.6202 16.7189 20.7567 15.0282 19.8262 13.9486C18.8391 12.8047 17.4512 12.0514 15.9573 11.7771C15.0726 11.6139 14.2127 11.6591 13.3474 11.8708C11.3662 12.3604 9.93413 13.4504 9.12009 15.3147C8.24778 17.3109 8.20189 18.6057 7.66685 20.5968C7.21834 22.2667 6.39195 23.7803 5.20885 25.0596C4.6579 25.655 4.05577 26.1809 3.33006 26.568C2.54603 26.9863 1.6861 27.2537 0.804977 27.337C0.566595 27.3595 0.382952 27.212 0.352931 27.0141C0.322913 26.8162 0.451817 26.627 0.679607 26.5819C2.36067 26.2452 3.35305 25.7939 4.53967 24.5371C5.48259 23.5373 6.18186 22.3899 6.6198 21.0933C6.84406 20.4267 6.99769 19.7654 7.15132 19.0798L7.47623 17.6199C7.70931 16.575 8.04834 15.5734 8.5163 14.6101C9.18202 13.2353 10.2821 12.1626 11.7036 11.5412C12.6059 11.1454 13.5788 10.9111 14.5713 10.8504C15.5725 10.7896 16.5242 11.0048 17.4583 11.3381C18.5761 11.7391 19.5438 12.4091 20.3561 13.2649C21.6522 14.6309 22.5121 16.6722 22.9306 18.479L23.395 20.4856C24.3715 24.7019 23.8453 28.5588 21.5232 32.2493C21.0677 32.9731 20.5891 33.6657 20.0647 34.3375C19.3071 35.3112 18.4242 36.127 17.4054 36.8283L17.4071 36.8302ZM25.5086 25.4486C25.6605 23.3448 25.4186 21.2341 24.9524 19.184C24.7758 18.4029 24.6134 17.6547 24.3838 16.8927C23.8753 15.2038 23.0365 13.6312 21.894 12.2771C21.3007 11.5724 20.6085 10.9701 19.8192 10.4927C18.562 9.73246 17.1723 9.23428 15.7014 9.09022C14.8185 9.00343 13.9656 9.10411 13.1003 9.26033C11.2215 9.60054 9.5087 10.4702 8.1649 11.8033L6.97476 12.9836C6.44677 13.5078 5.96999 14.0511 5.55506 14.6691C5.05885 15.4103 4.66155 16.1862 4.37373 17.0281L3.7504 18.8472C3.55793 19.4061 3.34427 19.9251 3.08291 20.4546C2.00401 22.6365 0.386551 23.1121 0.121652 23.4697C0.0192362 23.6103 0.059848 23.8151 0.17639 23.921C0.277042 24.013 0.473045 24.0876 0.626668 24.0199C1.50251 23.6346 2.23708 23.0392 2.86041 22.3188C5.01291 19.8245 4.66683 16.4656 7.19015 13.9608L8.5975 12.5635C11.3468 9.83305 15.4632 9.07101 18.8937 10.9388C19.9391 11.5064 20.8485 12.2805 21.5672 13.23C22.9993 15.122 23.5661 16.8717 24.0711 19.1645C24.3572 20.4681 24.5867 21.73 24.6574 23.0475C24.7068 23.9362 24.7298 24.7798 24.6485 25.6703C24.4031 28.3573 23.4619 30.9573 21.9257 33.1952L20.5819 35.1514C20.1158 35.8318 19.5365 36.3699 18.8655 36.8594C17.6065 37.7759 16.2804 38.5831 14.9048 39.3104C14.7265 39.4041 14.6735 39.6176 14.73 39.7739C14.8678 40.1644 15.3834 39.9578 15.6465 39.8277C17.0468 39.1316 18.2404 38.3262 19.5048 37.4271C20.3559 36.823 20.9986 36.0801 21.5637 35.2156L23.2906 32.572C24.6662 30.4699 25.3231 27.9617 25.5049 25.452L25.5086 25.4486ZM8.93302 35.2682C9.73291 35.1051 10.5028 34.8603 11.2445 34.5375C14.5818 33.0898 17.1866 30.3299 18.4736 26.985C18.8974 25.8845 19.1976 24.7753 19.4059 23.6159C19.7185 21.8766 19.7679 20.9653 19.3565 19.2156C18.991 17.6655 18.2634 15.9454 16.8897 15.0219C16.0138 14.4335 14.9685 14.2425 13.9514 14.4821C12.8442 14.7425 11.9631 15.416 11.4121 16.3915C10.9795 17.1553 10.727 17.9711 10.607 18.8459L10.3562 20.665C9.99952 23.2497 9.00536 24.5411 7.44793 26.544C7.15834 26.9172 6.91465 27.2956 6.5809 27.6341C5.89931 28.3267 4.75504 28.988 3.84566 29.3421C3.07049 29.6442 2.26879 29.7084 1.44593 29.7066C1.21991 29.7066 1.0292 29.8785 1.02744 30.0764C1.02567 30.2569 1.16517 30.4496 1.39296 30.4739C2.3465 30.578 3.34417 30.4617 4.24297 30.0833C5.20357 29.6789 6.10237 29.1547 6.90227 28.5003C7.37728 28.1114 7.67924 27.615 8.04829 27.1394C9.65694 25.0755 10.8789 23.482 11.2161 20.7845C11.3097 20.0364 11.3768 19.3126 11.5199 18.5731C11.8006 17.1098 12.4893 15.7472 14.0573 15.3271C15.0497 15.0616 16.088 15.3549 16.8243 16.0718C17.2746 16.5092 17.6031 16.9883 17.8697 17.549C18.5548 18.9862 18.8656 20.5901 18.7491 22.1766C18.689 22.9855 18.5372 23.7353 18.3535 24.5216C18.1134 25.5579 17.7637 26.5682 17.3099 27.5332C15.9732 30.3782 13.6123 32.6536 10.6721 33.8708C9.45722 34.3724 8.1664 34.6293 6.85267 34.7283C5.87616 34.8012 4.935 34.7473 3.96911 34.6727C3.80489 34.6606 3.63185 34.7092 3.54709 34.8359C3.46763 34.9556 3.47469 35.1015 3.54709 35.2316C3.59476 35.3167 3.71131 35.4139 3.84551 35.4469C4.3311 35.5649 4.81669 35.5649 5.32347 35.584C6.5454 35.6309 7.73202 35.5146 8.93102 35.2681L8.93302 35.2682ZM1.98462 28.7885C3.53324 28.5854 4.96351 27.8963 6.05303 26.7871C7.59989 25.2145 8.99662 23.0048 9.41689 20.8437L9.86187 18.549C10.0879 17.3895 10.4534 16.1831 11.1809 15.2336C12.0585 14.088 13.4217 13.385 14.9121 13.4215C16.4537 13.4596 17.8345 14.2546 18.7156 15.4575C19.5562 16.6032 20.0841 17.8946 20.3525 19.2815C20.4779 19.9324 20.6457 20.5365 20.8946 21.1475C21.5003 22.6386 21.4509 24.4455 21.209 26.0146C20.8081 28.6183 19.7186 30.7778 18.0146 32.7792C17.8433 32.9806 17.8292 33.2322 18.0323 33.3902C18.2141 33.5325 18.4508 33.5134 18.6256 33.3242C19.1747 32.7306 19.6321 32.0797 20.0665 31.3905C20.7286 30.3404 21.269 29.2225 21.6116 28.03C22.2773 25.7075 22.5651 23.0571 21.6716 20.7624C21.4421 20.174 21.2937 19.6081 21.1683 18.9867C20.8664 17.4852 20.2643 16.0532 19.316 14.8416C17.6914 12.7621 14.9121 11.9567 12.477 13.1214C11.3486 13.6613 10.4905 14.5656 9.92718 15.6644C9.50516 16.4872 9.2191 17.3568 9.04958 18.2629L8.74233 19.905C8.36975 21.896 7.55571 23.7307 6.2649 25.3031C5.79875 25.8707 5.31488 26.4019 4.71099 26.8376C3.84749 27.4624 2.86221 27.8409 1.80094 27.9884L0.948069 28.1064C0.752066 28.1342 0.607267 28.3078 0.617863 28.49C0.649648 29.042 1.5555 28.8476 1.98458 28.7903L1.98462 28.7885ZM28.4451 19.2018C28.1026 17.8218 27.3927 16.572 26.4039 15.5427C25.9659 15.0862 25.6128 14.6071 25.2808 14.0707C24.691 13.116 24.0677 12.2013 23.3561 11.3281C22.6886 10.5106 21.9187 9.81974 21.0076 9.27468C20.2907 8.84594 19.5684 8.471 18.7897 8.14466C17.4724 7.59093 16.0457 7.29236 14.6083 7.36009C13.6866 7.40348 12.8072 7.58227 11.919 7.79403C10.6229 8.10301 9.4451 8.65499 8.33971 9.37882C6.61628 10.5071 5.03236 12.2064 3.97466 13.9562C3.52792 14.694 3.1306 15.4386 2.78628 16.2284C2.05876 17.9017 1.91926 19.3355 0.628485 20.8249C0.291218 21.2137 -0.259694 21.6164 0.139372 21.9948C0.27004 22.1198 0.510189 22.1198 0.667361 21.9757C1.51847 21.1998 2.19654 20.2677 2.59032 19.1863L3.22779 17.4366C4.03298 15.2252 5.20726 13.2673 6.91658 11.6132C7.95136 10.6117 9.11501 9.74379 10.4535 9.16576C11.8679 8.55649 13.3953 8.25619 14.9333 8.1694C16.286 8.1885 17.5679 8.48532 18.7987 9.0512C20.4903 9.82884 21.6434 10.544 22.8018 11.9865C23.4039 12.7363 23.9354 13.5192 24.4263 14.3437C24.8766 15.097 25.4081 15.7289 26.0032 16.3746C26.8914 17.3397 27.4547 18.5721 27.7143 19.841C27.8909 20.7019 28.0216 21.5247 28.0304 22.3978L28.0533 25.1369C28.0551 25.3626 28.2511 25.5396 28.4506 25.5518C28.6237 25.5622 28.8638 25.4198 28.8797 25.2063C28.9521 24.3124 28.9327 23.4341 28.9045 22.5263C28.8691 21.3963 28.7155 20.301 28.4436 19.2039L28.4451 19.2018ZM10.3529 32.9717C11.8997 32.3243 13.24 31.321 14.3736 30.1077C16.2295 28.1202 17.5097 25.3481 17.824 22.6681C17.9476 21.6041 17.8699 20.5678 17.6245 19.5332C17.379 18.5039 16.8687 17.2993 16.0035 16.6587C15.1524 16.0304 14.0558 16.1328 13.3106 16.8688C12.546 17.6256 12.3677 18.6619 12.2617 19.7016C12.1982 20.3213 12.1452 20.9132 12.0375 21.5294C11.6208 23.9335 10.3918 25.5443 8.71956 27.2417C8.56594 27.3962 8.50237 27.6375 8.64893 27.8024C8.79726 27.969 9.06743 27.9534 9.244 27.8076C9.83731 27.3094 10.3494 26.7401 10.835 26.1343C11.7567 24.9817 12.4224 23.6868 12.7774 22.26C12.9734 21.4737 13.0528 20.6995 13.1199 19.8923C13.1711 19.2779 13.2577 18.686 13.4784 18.1201C13.6197 17.7573 13.8492 17.4657 14.1741 17.2695C14.9793 16.7835 15.7228 17.398 16.1218 18.0628C16.3019 18.3648 16.4609 18.6634 16.5774 19.0019C16.9147 19.9878 17.0665 21.0102 17.0153 22.0621C16.9429 23.5392 16.5333 24.9609 15.8993 26.3148C15.1753 27.8544 14.1741 29.2257 12.908 30.3522C11.5484 31.5586 9.90088 32.4473 8.10866 32.8171C7.42883 32.9577 6.77725 33.067 6.08327 33.0879C5.11386 33.1191 4.17975 33.0705 3.22444 32.956C2.88541 32.9143 2.41568 32.8431 2.30444 33.1608C2.25499 33.3014 2.29737 33.4559 2.41568 33.5583C2.53222 33.659 2.68408 33.7093 2.84653 33.7319C3.66763 33.8464 4.46752 33.9211 5.3063 33.9297C7.04563 33.9471 8.75843 33.6399 10.3566 32.9716L10.3529 32.9717ZM25.3676 11.0988C24.3328 9.85591 23.5453 8.85435 22.1273 7.97953C21.3539 7.50219 20.554 7.12031 19.7329 6.72282C18.398 6.07538 16.9959 5.66399 15.5055 5.53725C14.7162 5.46956 13.9622 5.54246 13.1782 5.67786C11.7938 5.91566 10.4483 6.27148 9.18928 6.89293C8.50769 7.22794 7.90199 7.65146 7.26456 8.05765C5.82014 8.97589 4.55934 10.125 3.54576 11.4876C3.43805 11.6317 3.43098 11.8226 3.53693 11.9598C3.62522 12.0761 3.8071 12.1507 3.97309 12.1004C4.10552 12.0604 4.21853 11.9702 4.30859 11.8556C5.64353 10.1788 6.80895 9.30571 8.62246 8.18093C9.27052 7.77823 9.9168 7.44147 10.6443 7.18805C11.6826 6.827 12.7368 6.56838 13.8316 6.42951C14.4902 6.34619 15.1189 6.34099 15.774 6.4191C16.8194 6.54234 17.8065 6.79056 18.7865 7.20887C19.6606 7.58206 20.4711 7.98824 21.2851 8.44998C22.1662 8.94989 22.9326 9.57303 23.6018 10.3299C24.6136 11.4703 25.5442 12.6645 26.4465 13.8917C27.1123 14.7961 27.6844 15.7334 28.207 16.7107C28.32 16.9207 28.5673 17.004 28.7544 16.9242C28.9434 16.8426 29.0634 16.5927 28.9645 16.3722C28.5143 15.3585 27.8874 14.4368 27.2358 13.5237C26.6372 12.6836 26.0262 11.8921 25.3676 11.1006L25.3676 11.0988ZM2.87832 8.20865C3.58993 7.36853 4.39339 6.64817 5.32574 6.03197C6.36404 5.34284 7.4447 4.72144 8.57129 4.17119C10.0846 3.43172 11.6914 2.91621 13.3639 2.69229C14.1885 2.5812 14.9796 2.67841 15.7883 2.8138C17.5294 3.10542 18.5041 3.24081 20.134 3.98199C21.1829 4.45933 22.2 4.97835 23.1924 5.55985C24.4832 6.31838 25.5815 7.30087 26.4697 8.46906C26.6392 8.69124 26.9129 8.72249 27.0877 8.57668C27.2837 8.41525 27.3137 8.17398 27.146 7.94657C26.2349 6.7159 25.0553 5.6796 23.7132 4.88809C22.5496 4.20071 21.3453 3.60708 20.1146 3.05509C18.6595 2.40067 17.2292 2.20977 15.6841 1.94417C14.8825 1.80531 14.1037 1.74282 13.2897 1.85565C10.3567 2.26009 8.08937 3.35538 5.59589 4.85338C4.40045 5.57201 3.06018 6.59787 2.23203 7.70532C2.08547 7.90146 2.09783 8.15488 2.28854 8.29548C2.46688 8.42566 2.71763 8.39615 2.87832 8.20522L2.87832 8.20865ZM9.52655 31.3712C11.3065 30.6595 12.6467 29.5295 13.7768 28.0193C14.7515 26.7175 15.5073 25.2612 15.924 23.6937C16.3214 22.2009 16.2807 20.637 15.7457 19.1981C15.5956 18.7936 15.1471 17.8979 14.5926 18.1757C14.3542 18.2954 14.3313 18.5888 14.492 18.7919C14.7639 19.1338 14.9564 19.4862 15.0765 19.9149C15.5585 21.623 15.2901 23.3535 14.5856 24.9678C14.1159 26.044 13.5067 27.0351 12.7597 27.9482C11.8697 29.0365 10.7591 29.9252 9.4559 30.4929C7.56825 31.3156 5.76893 31.5326 3.71537 31.4007L2.08023 31.2948C1.87364 31.2809 1.64761 31.3885 1.61228 31.6142C1.57873 31.8312 1.77297 32.0464 2.00075 32.0777C2.8289 32.1922 3.64471 32.2426 4.49582 32.2686C6.2263 32.3224 7.92323 32.0152 9.52664 31.3729L9.52655 31.3712ZM12.5832 35.8566C13.9005 35.1797 15.1312 34.369 16.2083 33.3571C18.0306 31.6438 19.3744 29.7604 20.1213 27.3719C20.5292 26.0666 20.7747 24.7161 20.8224 23.3552C20.8312 23.1209 20.674 22.9386 20.4674 22.9213C20.2891 22.9074 20.0807 23.0584 20.056 23.2806C19.7911 25.6344 19.3302 27.8998 18.0059 29.9443C16.3302 32.5324 13.8192 34.5564 10.9074 35.6757C9.75257 36.1201 8.52359 36.3076 7.2981 36.3822C6.72246 36.4186 6.18566 36.3735 5.61884 36.3752C5.41047 36.3752 5.24449 36.4985 5.2021 36.6894C5.16326 36.8665 5.29216 37.0418 5.48463 37.1095C5.77246 37.2119 6.07089 37.1997 6.3993 37.2084C7.37581 37.2362 8.29224 37.1511 9.23517 36.981C10.4094 36.7693 11.5272 36.3961 12.5849 35.851L12.5832 35.8566ZM25.2685 30.2172C24.6964 31.8123 23.8576 33.26 22.7699 34.5584C22.648 34.7025 22.5597 34.8708 22.5774 35.0496C22.5933 35.1972 22.7434 35.2753 22.8582 35.3083C22.9977 35.3482 23.1336 35.2874 23.2431 35.1816C23.4426 34.9889 23.6104 34.8136 23.7799 34.6018C24.6522 33.5135 25.3462 32.321 25.8565 31.0226C26.3474 29.778 26.7112 28.5039 26.9531 27.1899C27.1579 26.0686 27.2409 24.975 27.2127 23.8346C27.1773 22.4251 27.029 21.0417 26.7324 19.6635C26.5505 18.8216 26.2803 18.0145 25.8777 17.2698C25.7718 17.0737 25.5369 16.9973 25.3604 17.0633C25.1838 17.131 25.0725 17.3705 25.1538 17.5684C25.4328 18.2523 25.7047 18.9171 25.8654 19.6496C26.3174 21.7169 26.5117 24.491 26.1973 26.5875C26.0119 27.8286 25.6923 29.0384 25.2685 30.2205L25.2685 30.2172ZM0.545625 14.4058C0.743395 14.4301 0.928806 14.3034 1.01358 14.102C1.34556 13.314 1.67574 12.5415 2.15075 11.8003C2.89238 10.6425 3.76293 9.63231 4.76592 8.70541C5.44223 8.08054 6.18386 7.55979 6.96965 7.07374C7.56648 6.70402 8.13859 6.34818 8.76373 6.0253C9.76316 5.51153 10.7926 5.12964 11.8927 4.87795C12.4719 4.74603 13.0334 4.66792 13.6109 4.57245C13.8457 4.53427 13.9994 4.33118 13.9552 4.12289C13.9146 3.93195 13.7292 3.76705 13.4855 3.78614C11.7126 3.93369 9.99448 4.45443 8.41399 5.27375C7.47812 5.75802 6.5846 6.29268 5.71405 6.8811C4.55745 7.66221 3.56684 8.61866 2.66803 9.67052C1.68624 10.8196 0.904016 12.0868 0.36364 13.4893C0.294775 13.6698 0.188826 13.8191 0.174699 14.0135C0.158807 14.2236 0.349622 14.3815 0.545625 14.4058ZM25.622 8.74366C24.7108 7.71087 23.6566 6.83947 22.4312 6.1799C21.4211 5.63484 20.4022 5.14364 19.3516 4.6715C18.0996 4.10738 16.7559 3.78623 15.3856 3.73589C15.1313 3.72547 14.9389 3.91988 14.9406 4.13685C14.9424 4.33821 15.1243 4.51005 15.3627 4.53262C16.5846 4.64544 17.7712 4.88845 18.9013 5.38491C20.0085 5.87269 21.0821 6.39166 22.1362 6.97836C23.1233 7.52862 23.9815 8.216 24.739 9.04221C25.4683 9.83896 26.1693 10.6322 26.8527 11.4654C27.28 11.9861 27.5943 12.5485 27.9616 13.1126C28.1029 13.3279 28.3448 13.3869 28.5479 13.2828C28.7298 13.189 28.8075 12.9339 28.6997 12.7238C28.2654 11.8837 27.7127 11.1165 27.0805 10.3996L25.6219 8.74534L25.622 8.74366ZM8.46547 29.0249C7.73971 29.3599 7.01042 29.6342 6.24583 29.8668C5.95447 29.9553 5.53422 30.1601 5.68783 30.5056C5.7408 30.6253 5.88913 30.726 6.06218 30.7086C6.45419 30.667 6.79323 30.549 7.15523 30.4274C7.9869 30.148 8.7886 29.8425 9.55319 29.4068C11.4444 28.3306 13.016 26.3761 13.8512 24.4077C14.4974 22.8871 14.7393 21.5193 14.3527 19.912C14.2926 19.6656 14.0189 19.5354 13.8106 19.6395C13.3161 19.8895 13.7046 20.5873 13.6852 21.3528C13.6569 22.4238 13.3709 23.4583 12.9047 24.4252C11.9971 26.3033 10.4008 28.1311 8.46546 29.0234L8.46547 29.0249ZM0.632418 25.7391C1.88612 25.4857 2.98798 24.8122 3.86916 23.9043C4.79798 22.9479 5.45132 21.8092 5.87864 20.556C6.1541 19.7488 6.34478 18.9451 6.56904 18.1223C6.82155 17.1954 7.14115 16.3258 7.56142 15.47C7.64441 15.2999 7.58791 15.0916 7.459 15.0135C7.02109 14.7479 6.72972 15.4128 6.57435 15.7235C5.77269 17.3239 5.56254 19.0059 4.96394 20.584C4.19406 22.6131 2.80614 24.2257 0.676556 24.9165C0.521165 24.9669 0.353415 25.0276 0.242167 25.1526C0.129156 25.2793 0.143281 25.4633 0.2404 25.5796C0.3128 25.6664 0.478782 25.774 0.634173 25.741L0.632418 25.7391ZM15.7 35.9715C16.3039 35.5722 16.8619 35.1435 17.3722 34.647C17.54 34.4839 17.5753 34.2478 17.4305 34.0864C17.2981 33.9388 17.0244 33.9059 16.8495 34.0517C16.1044 34.6748 15.3504 35.2598 14.5028 35.7545C13.6199 36.27 12.7617 36.7994 11.794 37.157C10.5386 37.6222 9.21772 37.8287 7.88984 37.9277C7.62143 37.9468 7.4113 38.1724 7.49077 38.4189C7.55257 38.6116 7.76623 38.7053 7.97988 38.7106C8.73213 38.7262 9.42078 38.6047 10.1394 38.4745C11.1583 38.2888 12.1083 37.9867 13.0318 37.5215C13.9571 37.0546 14.8365 36.5443 15.7017 35.9732L15.7 35.9715ZM14.5981 0.805742C17.7077 1.08868 20.6443 1.8021 23.1622 3.69931C23.3582 3.84686 23.6124 3.76701 23.7396 3.59864C23.8738 3.42159 23.8225 3.1994 23.6354 3.03452C23.3105 2.74811 22.9714 2.52074 22.6024 2.29332C21.3575 1.53305 20.0119 0.989727 18.5922 0.616549C17.5839 0.352707 15.631 -0.0430667 14.635 0.00381381C14.402 0.0142288 14.2254 0.187808 14.2236 0.401312C14.2218 0.578365 14.3721 0.78491 14.5981 0.805742ZM6.03052 3.79654C6.89931 3.1595 7.78925 2.57281 8.79401 2.1128C10.1342 1.50006 11.524 1.14422 12.9472 0.899459C13.1997 0.856064 13.3268 0.59222 13.288 0.408213C13.2368 0.179089 13.0143 0.0749389 12.7653 0.104449C11.7694 0.225956 10.8071 0.475912 9.84647 0.793571C8.29962 1.30561 6.84814 2.10409 5.59087 3.11085C5.39486 3.26707 5.33482 3.48231 5.45137 3.67497C5.54849 3.83466 5.84338 3.93186 6.03053 3.79474L6.03052 3.79654ZM0.263322 19.2436C0.454031 19.3026 0.639438 19.2384 0.750673 19.0474C0.84779 18.8808 0.895468 18.702 0.943145 18.5128C1.27158 17.1988 1.76953 15.9594 2.4335 14.7756C2.70366 14.2913 2.94734 13.8261 3.25283 13.3661C3.31639 13.2689 3.32346 13.1266 3.27049 13.0311C3.18926 12.8818 3.0321 12.8107 2.86965 12.8124C2.72838 12.8141 2.58005 12.9113 2.4847 13.0502C2.09799 13.6178 1.79253 14.2167 1.46231 14.8311C0.787769 16.0844 0.28098 17.4071 0.0126004 18.794C-0.0280132 19.0023 0.0991271 19.1932 0.263346 19.2453L0.263322 19.2436ZM25.779 33.4321C25.6396 33.4738 25.5301 33.6005 25.4471 33.7324C24.5253 35.1801 23.6248 35.9768 22.1927 36.9159C21.9808 37.0548 21.8872 37.2891 22.0197 37.5009C22.1327 37.6831 22.3887 37.7699 22.6077 37.6328C24.1633 36.6642 25.3217 35.5828 26.2382 34.0206C26.3317 33.8592 26.3317 33.6943 26.2364 33.5693C26.1304 33.4339 25.9592 33.3766 25.7808 33.4304L25.779 33.4321ZM28.1505 26.5134C28.0181 26.5568 27.891 26.6818 27.8645 26.8519C27.7073 27.836 27.4831 28.7942 27.2129 29.7524C27.1493 29.9763 27.2447 30.195 27.446 30.2609C27.6243 30.32 27.9051 30.2696 27.9845 30.037C28.3236 29.0355 28.5408 28.0183 28.6873 26.9785C28.705 26.8484 28.6803 26.7112 28.6026 26.6192C28.4913 26.4891 28.313 26.4596 28.1505 26.5134ZM20.614 37.7803L18.7882 38.8669C18.6027 38.9762 18.5021 39.2019 18.6186 39.3859C18.7352 39.5699 18.993 39.6081 19.2084 39.5074C19.86 39.1984 20.4657 38.8478 21.0396 38.4451C21.2179 38.3201 21.2426 38.0736 21.1438 37.9209C21.0431 37.7647 20.803 37.6692 20.614 37.782L20.614 37.7803ZM27.1 31.1894C26.9322 31.153 26.7539 31.1912 26.6515 31.3422C26.4678 31.6112 26.0846 32.2951 26.5579 32.4618C26.7256 32.5208 26.9252 32.4774 27.0435 32.3073C27.1988 32.0816 27.3436 31.8247 27.3825 31.5626C27.4125 31.3647 27.2571 31.2241 27.1017 31.1894L27.1 31.1894Z" fill="url(#paint0_linear_129_231)"/>
<defs>
<linearGradient id="paint0_linear_129_231" x1="0" y1="20" x2="29" y2="20" gradientUnits="userSpaceOnUse">
<stop stop-color="#FF5159"/>
<stop offset="0.202186" stop-color="#D048FF"/>
<stop offset="0.404372" stop-color="#6C73FF"/>
<stop offset="0.601093" stop-color="#407CFF"/>
<stop offset="0.797814" stop-color="#26AE5F"/>
<stop offset="1" stop-color="#C1EA68"/>
</linearGradient>
</defs>
</svg>
