<svg preserveAspectRatio="none" width="100%" height="100%" overflow="visible" style="display: block;" viewBox="0 0 22 22" fill="none" xmlns="http://www.w3.org/2000/svg">
<g id="Vecor">
<path d="M8.30138 0.296313C3.81992 1.42068 0.425446 5.28099 3.69329e-05 9.99676H5.02019C5.26223 6.52346 6.3984 3.18396 8.30138 0.296313Z" fill="var(--fill-0, white)"/>
<path d="M0 12.0032C0.425259 16.7193 3.81996 20.5799 8.30171 21.7042C6.39853 18.8164 5.26224 15.4767 5.02019 12.0032H0Z" fill="var(--fill-0, white)"/>
<path d="M13.6983 21.7042C18.18 20.5799 21.5747 16.7193 22 12.0032H16.9798C16.7378 15.4767 15.6015 18.8164 13.6983 21.7042Z" fill="var(--fill-0, white)"/>
<path d="M22 9.99676C21.5746 5.28099 18.1801 1.42068 13.6986 0.296313C15.6016 3.18396 16.7378 6.52346 16.9798 9.99676H22Z" fill="var(--fill-0, white)"/>
<path d="M11 22C8.70015 19.1445 7.31683 15.6593 7.03377 12.0032H14.9662C14.6832 15.6593 13.2998 19.1445 11 22Z" fill="var(--fill-0, white)"/>
<path d="M11 0C8.70015 2.85547 7.31683 6.3407 7.03377 9.99676H14.9662C14.6832 6.3407 13.2998 2.85547 11 0Z" fill="var(--fill-0, white)"/>
</g>
</svg>
