<svg width="16" height="16" viewBox="0 0 16 16" fill="none" xmlns="http://www.w3.org/2000/svg">
<path d="M2.66732 1.3335C1.93094 1.3335 1.33398 1.93045 1.33398 2.66683V6.00016C1.33398 6.73654 1.93094 7.3335 2.66732 7.3335H6.00065C6.73703 7.3335 7.33398 6.73654 7.33398 6.00016V2.66683C7.33398 1.93045 6.73703 1.3335 6.00065 1.3335H2.66732Z" fill="#18251E"/>
<path d="M10.0007 1.3335C9.26427 1.3335 8.66732 1.93045 8.66732 2.66683V6.00016C8.66732 6.73654 9.26427 7.3335 10.0007 7.3335H13.334C14.0704 7.3335 14.6673 6.73654 14.6673 6.00016V2.66683C14.6673 1.93045 14.0704 1.3335 13.334 1.3335H10.0007Z" fill="#18251E"/>
<path d="M2.66732 8.66683C1.93094 8.66683 1.33398 9.26378 1.33398 10.0002V13.3335C1.33398 14.0699 1.93094 14.6668 2.66732 14.6668H6.00065C6.73703 14.6668 7.33398 14.0699 7.33398 13.3335V10.0002C7.33398 9.26378 6.73703 8.66683 6.00065 8.66683H2.66732Z" fill="#18251E"/>
<path d="M10.0007 8.66683C9.26427 8.66683 8.66732 9.26378 8.66732 10.0002V13.3335C8.66732 14.0699 9.26427 14.6668 10.0007 14.6668H13.334C14.0704 14.6668 14.6673 14.0699 14.6673 13.3335V10.0002C14.6673 9.26378 14.0704 8.66683 13.334 8.66683H10.0007Z" fill="#18251E"/>
</svg>
