<svg width="67" height="52" viewBox="0 0 67 52" fill="none" xmlns="http://www.w3.org/2000/svg">
<g filter="url(#filter0_ddd_31_1908)">
<rect x="1.5" y="1" width="64" height="46" rx="8" fill="white"/>
<rect x="2" y="1.5" width="63" height="45" rx="7.5" stroke="#EAEAEA"/>
</g>
<g filter="url(#filter1_i_31_1908)">
<path d="M5.5 9C5.5 6.79086 7.29086 5 9.5 5V5C11.7091 5 13.5 6.79086 13.5 9V9C13.5 11.2091 11.7091 13 9.5 13V13C7.29086 13 5.5 11.2091 5.5 9V9Z" fill="#F2F2F2"/>
</g>
<g filter="url(#filter2_i_31_1908)">
<path d="M5.5 19C5.5 16.7909 7.29086 15 9.5 15V15C11.7091 15 13.5 16.7909 13.5 19V19C13.5 21.2091 11.7091 23 9.5 23V23C7.29086 23 5.5 21.2091 5.5 19V19Z" fill="#F2F2F2"/>
</g>
<g filter="url(#filter3_i_31_1908)">
<path d="M5.5 29C5.5 26.7909 7.29086 25 9.5 25V25C11.7091 25 13.5 26.7909 13.5 29V29C13.5 31.2091 11.7091 33 9.5 33V33C7.29086 33 5.5 31.2091 5.5 29V29Z" fill="#F2F2F2"/>
</g>
<g filter="url(#filter4_i_31_1908)">
<path d="M5.5 39C5.5 36.7909 7.29086 35 9.5 35V35C11.7091 35 13.5 36.7909 13.5 39V39C13.5 41.2091 11.7091 43 9.5 43V43C7.29086 43 5.5 41.2091 5.5 39V39Z" fill="#F2F2F2"/>
</g>
<line x1="18.5" y1="16.5" x2="57.5" y2="16.5" stroke="#F1F1F1" stroke-dasharray="2 2"/>
<line x1="18.5" y1="8.5" x2="57.5" y2="8.5" stroke="#F1F1F1" stroke-dasharray="2 2"/>
<line x1="18.5" y1="24.5" x2="57.5" y2="24.5" stroke="#F1F1F1" stroke-dasharray="2 2"/>
<line x1="18.5" y1="32.5" x2="57.5" y2="32.5" stroke="#F1F1F1" stroke-dasharray="2 2"/>
<line x1="18.5" y1="40.5" x2="57.5" y2="40.5" stroke="#F1F1F1" stroke-dasharray="2 2"/>
<defs>
<filter id="filter0_ddd_31_1908" x="0" y="0" width="67" height="51.5" filterUnits="userSpaceOnUse" color-interpolation-filters="sRGB">
<feFlood flood-opacity="0" result="BackgroundImageFix"/>
<feColorMatrix in="SourceAlpha" type="matrix" values="0 0 0 0 0 0 0 0 0 0 0 0 0 0 0 0 0 0 127 0" result="hardAlpha"/>
<feOffset/>
<feGaussianBlur stdDeviation="0.5"/>
<feComposite in2="hardAlpha" operator="out"/>
<feColorMatrix type="matrix" values="0 0 0 0 0 0 0 0 0 0 0 0 0 0 0 0 0 0 0.06 0"/>
<feBlend mode="normal" in2="BackgroundImageFix" result="effect1_dropShadow_31_1908"/>
<feColorMatrix in="SourceAlpha" type="matrix" values="0 0 0 0 0 0 0 0 0 0 0 0 0 0 0 0 0 0 127 0" result="hardAlpha"/>
<feMorphology radius="0.5" operator="erode" in="SourceAlpha" result="effect2_dropShadow_31_1908"/>
<feOffset dy="1"/>
<feGaussianBlur stdDeviation="0.5"/>
<feComposite in2="hardAlpha" operator="out"/>
<feColorMatrix type="matrix" values="0 0 0 0 0 0 0 0 0 0 0 0 0 0 0 0 0 0 0.06 0"/>
<feBlend mode="normal" in2="effect1_dropShadow_31_1908" result="effect2_dropShadow_31_1908"/>
<feColorMatrix in="SourceAlpha" type="matrix" values="0 0 0 0 0 0 0 0 0 0 0 0 0 0 0 0 0 0 127 0" result="hardAlpha"/>
<feMorphology radius="1.5" operator="erode" in="SourceAlpha" result="effect3_dropShadow_31_1908"/>
<feOffset dy="3"/>
<feGaussianBlur stdDeviation="1.5"/>
<feComposite in2="hardAlpha" operator="out"/>
<feColorMatrix type="matrix" values="0 0 0 0 0 0 0 0 0 0 0 0 0 0 0 0 0 0 0.06 0"/>
<feBlend mode="normal" in2="effect2_dropShadow_31_1908" result="effect3_dropShadow_31_1908"/>
<feBlend mode="normal" in="SourceGraphic" in2="effect3_dropShadow_31_1908" result="shape"/>
</filter>
<filter id="filter1_i_31_1908" x="5.5" y="5" width="8" height="8.5" filterUnits="userSpaceOnUse" color-interpolation-filters="sRGB">
<feFlood flood-opacity="0" result="BackgroundImageFix"/>
<feBlend mode="normal" in="SourceGraphic" in2="BackgroundImageFix" result="shape"/>
<feColorMatrix in="SourceAlpha" type="matrix" values="0 0 0 0 0 0 0 0 0 0 0 0 0 0 0 0 0 0 127 0" result="hardAlpha"/>
<feOffset dy="0.5"/>
<feGaussianBlur stdDeviation="0.5"/>
<feComposite in2="hardAlpha" operator="arithmetic" k2="-1" k3="1"/>
<feColorMatrix type="matrix" values="0 0 0 0 0 0 0 0 0 0 0 0 0 0 0 0 0 0 0.1 0"/>
<feBlend mode="normal" in2="shape" result="effect1_innerShadow_31_1908"/>
</filter>
<filter id="filter2_i_31_1908" x="5.5" y="15" width="8" height="8.5" filterUnits="userSpaceOnUse" color-interpolation-filters="sRGB">
<feFlood flood-opacity="0" result="BackgroundImageFix"/>
<feBlend mode="normal" in="SourceGraphic" in2="BackgroundImageFix" result="shape"/>
<feColorMatrix in="SourceAlpha" type="matrix" values="0 0 0 0 0 0 0 0 0 0 0 0 0 0 0 0 0 0 127 0" result="hardAlpha"/>
<feOffset dy="0.5"/>
<feGaussianBlur stdDeviation="0.5"/>
<feComposite in2="hardAlpha" operator="arithmetic" k2="-1" k3="1"/>
<feColorMatrix type="matrix" values="0 0 0 0 0 0 0 0 0 0 0 0 0 0 0 0 0 0 0.1 0"/>
<feBlend mode="normal" in2="shape" result="effect1_innerShadow_31_1908"/>
</filter>
<filter id="filter3_i_31_1908" x="5.5" y="25" width="8" height="8.5" filterUnits="userSpaceOnUse" color-interpolation-filters="sRGB">
<feFlood flood-opacity="0" result="BackgroundImageFix"/>
<feBlend mode="normal" in="SourceGraphic" in2="BackgroundImageFix" result="shape"/>
<feColorMatrix in="SourceAlpha" type="matrix" values="0 0 0 0 0 0 0 0 0 0 0 0 0 0 0 0 0 0 127 0" result="hardAlpha"/>
<feOffset dy="0.5"/>
<feGaussianBlur stdDeviation="0.5"/>
<feComposite in2="hardAlpha" operator="arithmetic" k2="-1" k3="1"/>
<feColorMatrix type="matrix" values="0 0 0 0 0 0 0 0 0 0 0 0 0 0 0 0 0 0 0.1 0"/>
<feBlend mode="normal" in2="shape" result="effect1_innerShadow_31_1908"/>
</filter>
<filter id="filter4_i_31_1908" x="5.5" y="35" width="8" height="8.5" filterUnits="userSpaceOnUse" color-interpolation-filters="sRGB">
<feFlood flood-opacity="0" result="BackgroundImageFix"/>
<feBlend mode="normal" in="SourceGraphic" in2="BackgroundImageFix" result="shape"/>
<feColorMatrix in="SourceAlpha" type="matrix" values="0 0 0 0 0 0 0 0 0 0 0 0 0 0 0 0 0 0 127 0" result="hardAlpha"/>
<feOffset dy="0.5"/>
<feGaussianBlur stdDeviation="0.5"/>
<feComposite in2="hardAlpha" operator="arithmetic" k2="-1" k3="1"/>
<feColorMatrix type="matrix" values="0 0 0 0 0 0 0 0 0 0 0 0 0 0 0 0 0 0 0.1 0"/>
<feBlend mode="normal" in2="shape" result="effect1_innerShadow_31_1908"/>
</filter>
</defs>
</svg>
