<svg width="32" height="32" viewBox="0 0 32 32" fill="none" xmlns="http://www.w3.org/2000/svg">
<g clip-path="url(#clip0_168_3214)">
<path d="M32 0H0V32H32V0Z" fill="url(#paint0_linear_168_3214)"/>
<path d="M15.9652 18.4004C16.0119 18.4169 16.044 18.4396 16.0438 18.476C16.0426 18.6712 16.103 18.8575 16.1368 19.0472C16.1683 19.2231 16.0909 19.357 16.232 19.527C16.3928 19.7206 16.5506 19.914 16.7084 20.1073C17.0397 20.5134 17.3678 20.9206 17.6929 21.329C17.875 21.5568 18.0545 21.7857 18.2312 22.0155C18.3334 22.1486 18.4359 22.2885 18.5465 22.4185C18.6028 22.4846 18.7437 22.5481 18.8384 22.5964C20.4648 22.5783 22.1296 22.5951 23.7607 22.59C23.6317 22.4847 23.458 22.3605 23.3206 22.2566L18.6333 22.2569L18.4707 22.0549L23.0708 22.054C22.9098 21.9402 22.7514 21.8482 22.5737 21.7479C22.1415 21.7324 21.5303 21.7447 21.0865 21.7447L18.2697 21.7453L18.0924 21.5398L20.8699 21.5378C21.3555 21.5377 21.9125 21.546 22.3932 21.5331C22.4062 21.4165 22.4491 20.771 22.5041 20.7204C22.5628 20.7902 22.627 21.3621 22.6483 21.487C24.0986 22.6299 25.6447 23.7168 27.1609 24.8208C27.6551 25.1806 28.1915 25.5443 28.8776 25.7346C28.8782 25.8119 28.8763 25.9151 28.8876 25.991C28.9268 26.2535 28.7349 26.257 28.4045 26.2984C28.3946 26.3492 28.3976 26.368 28.3566 26.409C28.264 26.4492 28.2459 26.4094 28.1794 26.445C28.1161 26.632 28.1269 27.084 28.1265 27.285L28.1257 28.4474L28.1362 28.4581C28.2106 28.5362 28.1892 28.5312 28.2066 28.6187C28.2195 28.6841 28.4696 28.6709 28.5154 28.7087C28.681 28.8457 28.5892 28.8584 28.4307 28.9278C28.3984 29.018 28.4132 29.1913 28.4164 29.292C28.5655 29.33 28.9482 29.3412 28.9014 29.4804C28.7999 29.5357 23.4626 29.4565 22.7751 29.5131C22.8531 29.5801 22.9481 29.6567 22.9036 29.7462C22.8438 29.7856 22.807 29.7796 22.6852 29.7794C21.0545 29.7767 19.4228 29.7835 17.7923 29.7764C17.783 29.7705 17.7738 29.7642 17.7646 29.7583C17.755 29.7174 17.7615 29.7091 17.7274 29.6786C17.518 29.6662 17.2314 29.6718 17.0144 29.6721L15.9046 29.6727L14.2887 29.6733L14.2409 29.7799L10.8735 29.7791C10.399 29.7794 9.57505 29.7956 9.12596 29.7737C8.99538 29.6786 9.16519 29.5799 9.2656 29.5094C8.80107 29.4807 8 29.4955 7.50773 29.4955L4.44424 29.4963C4.23674 29.4968 3.22234 29.5079 3.10756 29.4847C3.07556 29.4425 3.07876 29.4633 3.08744 29.4215C3.1848 29.3415 3.41793 29.3504 3.54916 29.3067C3.62516 29.2813 3.60092 28.9487 3.56643 28.9154C3.50033 28.9014 3.44616 28.897 3.40785 28.861C3.36708 28.6977 3.60427 28.6933 3.74219 28.6601C3.77653 28.6517 3.80116 28.5135 3.87701 28.4483C3.87529 28.1896 3.90335 26.5179 3.82027 26.4117L3.77559 26.439C3.71612 26.4435 3.6987 26.4484 3.64539 26.43C3.60539 26.3967 3.60853 26.3706 3.60169 26.3282L3.59896 26.3101C2.95448 26.2144 3.12927 26.1515 3.13037 25.7414C3.44637 25.6492 3.74059 25.5269 4.00373 25.3782C4.69638 24.9832 5.50255 24.357 6.13772 23.8927C7.18551 23.1266 8.38646 22.293 9.35627 21.4859C9.38557 21.2463 9.41715 20.8609 9.48021 20.6362C9.53766 20.8156 9.56836 21.3259 9.59277 21.5368C11.0319 21.5377 12.4861 21.5295 13.9237 21.5414L13.7536 21.7444L9.42201 21.7452C9.2565 21.8454 9.09434 21.9479 8.93573 22.0529C10.4667 22.0588 12.0047 22.0438 13.5349 22.0553L13.3757 22.2559L8.68284 22.2556C8.53855 22.3684 8.39271 22.4803 8.24521 22.5913C9.87475 22.6067 11.5266 22.5898 13.1617 22.5975C13.3201 22.5078 13.3853 22.4985 13.4948 22.3725C13.649 22.1954 13.7869 22.0077 13.9286 21.8261C14.1636 21.5274 14.4011 21.2296 14.6411 20.9328L15.4745 19.8987C15.5816 19.7676 15.745 19.5823 15.8347 19.4485C15.8678 19.3992 15.8484 19.1386 15.8528 19.069C15.8646 18.9652 15.8886 18.8564 15.9117 18.7535C15.9326 18.6598 15.9078 18.4803 15.9652 18.4004ZM21.328 29.211L21.3274 29.6398L22.6099 29.6383C22.6102 29.4985 22.6143 29.348 22.608 29.2093L21.328 29.211ZM9.38972 29.2074C9.38753 29.3506 9.38747 29.4939 9.38951 29.6371C9.79944 29.6368 10.2692 29.6439 10.6741 29.6345L10.6738 29.2115C10.2603 29.2102 9.79819 29.2162 9.38972 29.2074ZM14.1116 29.2122C13.7477 29.2095 13.3839 29.2089 13.02 29.2107C13.0184 29.353 13.0183 29.4952 13.0197 29.6374C13.3769 29.6374 13.754 29.6416 14.1095 29.6362L14.1116 29.2122ZM12.8598 29.2155C12.1986 29.2095 11.5373 29.2075 10.8761 29.2095C10.8711 29.3523 10.8696 29.4953 10.8713 29.6383C11.5335 29.6345 12.1959 29.6336 12.8581 29.6354C12.8587 29.4962 12.857 29.3544 12.8598 29.2155ZM17.8931 29.6383L18.9829 29.6374L18.9828 29.2106L17.895 29.2098L17.8931 29.6383ZM21.1295 29.2117C20.4815 29.2082 19.7914 29.2039 19.1441 29.2118L19.1417 29.6371L21.1292 29.6368L21.1295 29.2117ZM23.4279 28.8937C23.2363 28.8938 22.9249 28.8894 22.7382 28.9015C22.8185 28.975 22.9673 29.0599 22.9341 29.1532C22.9184 29.1973 22.8178 29.2517 22.8002 29.3145C22.8537 29.3542 24.514 29.3388 24.7768 29.3387L28.1692 29.3375L28.2351 29.334C28.3019 29.2729 28.2646 28.9845 28.2636 28.8945L24.5607 28.8934L23.4279 28.8937ZM3.74954 28.8948L3.74874 29.3367L6.67606 29.3383L8.38761 29.338C8.532 29.338 9.10572 29.3437 9.20844 29.3251C9.24397 29.2434 9.01763 29.198 9.07799 29.089C9.12356 29.0068 9.21479 28.9567 9.3011 28.8954L6.48196 28.8916L3.74954 28.8948ZM14.3298 29.3277C15.2024 29.3293 16.7233 29.3335 17.6458 29.3245C17.6553 29.3198 17.6649 29.3151 17.6744 29.3104L17.6743 29.1667L14.3286 29.1626L14.3298 29.3277ZM17.8863 28.9552C17.8671 28.9981 17.8401 29.0523 17.8253 29.0948C18.2122 29.0914 18.5991 29.0897 18.9861 29.0897L19.0153 29.0758C19.0235 29.0366 19.0309 28.9972 19.0373 28.9578L17.8863 28.9552ZM9.31117 28.957C9.30572 29.0026 9.29244 29.043 9.32344 29.0828C9.4445 29.0972 9.70981 29.0913 9.84406 29.091L10.7314 29.0886C10.7343 29.0465 10.7348 28.9993 10.748 28.9588L9.31117 28.957ZM12.9469 28.9559C12.9628 29.006 12.9731 29.0405 12.9821 29.0912L14.2077 29.092L14.1321 28.9543L12.9469 28.9559ZM12.9099 28.9594C12.2142 28.9551 11.5184 28.9542 10.8227 28.9566C10.8303 29.0015 10.837 29.0463 10.8427 29.0912L12.2281 29.0893C12.3192 29.0894 12.8033 29.0928 12.8703 29.0842L12.9099 28.9594ZM22.681 28.9636C22.5601 28.949 22.314 28.9548 22.1803 28.9552L21.2877 28.9581C21.2873 29.0023 21.2793 29.0432 21.3101 29.0812C21.4364 29.0953 21.6757 29.0901 21.8133 29.09L22.7001 29.0895C22.7013 29.0454 22.71 29.0021 22.681 28.9636ZM21.1713 28.9581C20.4827 28.9566 19.7781 28.9524 19.0899 28.9573C19.0991 29.002 19.1087 29.0439 19.1134 29.089L21.1633 29.0888L21.1713 28.9581ZM17.8161 28.568C17.4123 28.5716 17.0075 28.5743 16.6037 28.5748C15.7614 28.5767 14.9191 28.5744 14.0767 28.5679C14.0737 28.6041 14.0634 28.6328 14.091 28.6623C14.226 28.6747 14.626 28.6649 14.785 28.6643L14.7897 28.8571C15.5778 28.8561 16.4425 28.8697 17.222 28.8545L17.2303 28.666L17.5521 28.6644C17.6429 28.6653 17.8322 28.6724 17.9106 28.6561C17.935 28.6248 17.9303 28.6248 17.9253 28.5887C17.886 28.5664 17.8838 28.5674 17.8161 28.568ZM10.2762 28.5628C10.2781 28.5982 10.2715 28.6321 10.3023 28.6581C10.3924 28.6644 10.4794 28.6643 10.5697 28.6632C11.052 28.6573 11.5396 28.6647 12.0214 28.6513C12.0099 28.6013 12.0227 28.5978 11.9798 28.571C11.7795 28.5595 11.5056 28.5642 11.2992 28.5639L10.2762 28.5628ZM21.6948 28.5717C21.5678 28.5573 21.2592 28.5633 21.1123 28.5633L19.9943 28.5635C19.9817 28.6024 19.9639 28.6236 19.9794 28.6558C20.1642 28.6661 20.4309 28.6613 20.623 28.6612L21.7093 28.6609C21.713 28.6108 21.7262 28.6069 21.6948 28.5717ZM13.2928 28.5603C13.1378 28.5457 12.7127 28.5547 12.5337 28.5554C12.5201 28.5993 12.5042 28.6096 12.5262 28.6425C12.6717 28.6568 13.1423 28.6485 13.3168 28.6483C13.3175 28.5935 13.3318 28.5941 13.2928 28.5603ZM19.443 28.5564C19.3053 28.5408 18.8333 28.5497 18.671 28.5505C18.6729 28.5993 18.6606 28.6004 18.6954 28.6328C18.8639 28.6475 19.3029 28.6374 19.4992 28.6371C19.4855 28.6036 19.4823 28.5765 19.443 28.5564ZM12.3312 26.3879C12.2564 26.3827 12.2238 26.3831 12.148 26.3849L12.1478 27.7825C12.1481 28.0258 12.189 28.4144 12.0769 28.6294C12.1772 28.6342 12.3627 28.6475 12.4551 28.628C12.4245 28.585 12.3918 28.5439 12.3788 28.4934C12.3223 28.273 12.4331 26.4405 12.3312 26.3879ZM9.69748 26.3862L9.71019 28.6347C9.79324 28.6354 9.8792 28.6379 9.96151 28.6327C9.9883 27.9028 9.96679 27.1194 9.96459 26.386L9.69748 26.3862ZM22.0398 26.3869C22.0217 26.6374 22.0351 26.9534 22.0358 27.208L22.0368 28.6353C22.1023 28.6349 22.234 28.6367 22.2936 28.6316L22.2998 26.3867L22.0398 26.3869ZM18.1652 26.3856C18.1525 26.6527 18.1642 26.9497 18.1663 27.2202L18.1749 28.6319C18.2433 28.6331 18.3421 28.6396 18.4023 28.624C18.4132 28.6076 18.417 28.6075 18.4185 28.5909L18.4201 26.3849L18.1652 26.3856ZM19.8345 26.4144C19.8299 26.3718 19.7132 26.3821 19.6635 26.3822H19.6354L19.6185 26.3824L19.6214 27.7592C19.6218 27.9928 19.6305 28.2439 19.6072 28.4766C19.6025 28.524 19.56 28.5877 19.5308 28.6318L19.8113 28.6321L19.8765 28.6289C19.945 28.5744 19.8499 28.5445 19.8464 28.4863C19.8373 28.3318 19.8418 28.1757 19.8415 28.0207L19.8428 26.8517C19.8433 26.7084 19.8501 26.5573 19.8345 26.4144ZM13.5958 26.3853C13.5661 27.1015 13.5812 27.9106 13.5854 28.6319L13.823 28.6301L13.8417 26.3859L13.5958 26.3853ZM22.9041 25.3792C22.9836 25.5107 23.663 25.6975 23.7732 25.8137C23.8074 25.8496 23.7559 26.032 23.7484 26.0872C23.7107 26.3657 23.5188 26.3764 23.1362 26.3875L23.1303 26.4065C23.0965 26.5116 22.9908 26.5684 22.9804 26.6121C22.9532 26.7268 22.9639 26.8887 22.964 27.0073L22.9657 27.9997C22.966 28.1388 22.973 28.2908 22.9661 28.4298C22.9609 28.5349 22.7816 28.4585 22.7532 28.5479L22.7877 28.5889C22.8824 28.5953 23.1215 28.5883 23.2357 28.5901C24.1173 28.6044 25.0207 28.6072 25.9008 28.5837C26.2063 28.5756 27.517 28.641 27.7301 28.5881C27.7652 28.5225 27.7739 28.5035 27.8316 28.4453L27.8307 27.2152C27.8304 26.9784 27.8363 26.7248 27.801 26.4884C27.7949 26.4472 27.766 26.3869 27.7148 26.3607C27.6752 26.3404 27.651 26.3487 27.6052 26.3527C27.5699 26.3708 27.5415 26.3863 27.5077 26.4056C27.4303 26.344 27.3796 26.2979 27.2533 26.2871C27.2231 26.2961 27.191 26.3002 27.1903 26.3213C27.1738 26.8086 27.188 27.4997 27.1826 27.9701C26.9732 27.9671 26.3711 27.9412 26.2246 27.9911C26.1878 28.029 26.2002 28.0075 26.2047 28.0618C26.2859 28.114 27.073 28.0864 27.2384 28.0844C27.2423 28.2289 27.2448 28.3633 27.239 28.5079C27.023 28.5095 26.1374 28.5421 26.0107 28.4684C25.9704 28.343 25.9844 28.0008 25.9845 27.8586L25.9871 26.7894C25.9874 26.6673 26.0385 26.3666 25.9018 26.2958C25.6964 26.2754 25.7624 26.6756 25.7622 26.7734L25.7596 27.6414L25.7578 28.4613C25.7329 28.474 25.6852 28.5001 25.6608 28.5102C25.2996 28.5048 23.3961 28.5343 23.225 28.4867C23.1971 28.4519 23.1857 28.3977 23.1851 28.3576C23.1769 27.8124 23.1799 27.2666 23.1828 26.7213C23.1834 26.6112 23.2201 26.5081 23.2224 26.3987C23.3804 26.3971 23.5903 26.391 23.7435 26.401C23.8449 26.2745 23.8693 26.1967 23.9064 26.0535C24.4136 26.0534 28.4535 26.0758 28.5518 26.0381C28.6027 25.9711 28.5656 25.9395 28.4807 25.9031C26.9683 25.9154 25.4363 25.9075 23.9224 25.9078C23.9153 25.8168 23.9151 25.7935 23.8438 25.7153C25.2527 25.7116 26.7456 25.7319 28.1436 25.7076L27.581 25.3807L22.9041 25.3792ZM4.77129 26.3124C4.63793 26.3394 4.60978 26.3596 4.5163 26.4295C4.43464 26.3776 4.3608 26.326 4.26074 26.4034C4.23076 26.4266 4.20913 26.4678 4.20163 26.4979C4.15698 26.7541 4.1645 27.0169 4.16453 27.2733L4.16524 28.4474C4.22984 28.5149 4.22957 28.5275 4.26388 28.5995L8.06305 28.5989C8.44676 28.5987 8.83976 28.5859 9.21739 28.589C9.24699 28.5674 9.23419 28.5551 9.23244 28.5147L9.21099 28.4933C9.16178 28.4873 9.14201 28.4862 9.09194 28.4844C9.03585 28.4491 9.04735 28.4123 9.04545 28.354C9.02658 27.7651 9.04613 27.173 9.0352 26.5842C8.90877 26.5216 8.88273 26.3919 8.7907 26.3911C8.7507 26.446 8.82862 26.6086 8.82862 26.7061C8.82847 27.2892 8.82702 27.8727 8.82622 28.4558C8.78714 28.4819 8.77742 28.4875 8.73259 28.509C8.3325 28.5089 6.51001 28.5377 6.26776 28.4829C6.22957 28.4567 6.22957 28.4307 6.22892 28.3931C6.21804 27.8117 6.2304 27.2298 6.22646 26.6482C6.22572 26.5386 6.28361 26.4516 6.2053 26.3509C6.13953 26.318 6.10065 26.3265 6.01061 26.3276C5.9845 27.0247 6.00975 27.7609 6.00341 28.4615C5.96569 28.4764 5.92516 28.4892 5.8957 28.5094C5.51917 28.5072 5.14252 28.5074 4.76599 28.51L4.76504 28.0872C4.93304 28.0877 5.66196 28.1042 5.78427 28.0691C5.81526 28.0304 5.812 28.0496 5.80302 28.0105C5.70036 27.9347 5.00169 27.9642 4.81941 27.9701C4.81876 27.5114 4.81781 26.8212 4.81707 26.3369C4.81013 26.3305 4.80317 26.324 4.79621 26.3177L4.77129 26.3124ZM11.8849 27.9717C11.7788 27.9526 11.4013 27.9601 11.2747 27.9604C10.9292 27.9621 10.5837 27.9626 10.2382 27.9617C10.2347 28.0055 10.2229 28.0415 10.2541 28.0782C10.3785 28.1057 11.6852 28.0898 11.9022 28.086C11.9034 28.0462 11.9132 28.0042 11.8849 27.9717ZM13.3495 27.9969C13.2622 27.9418 12.9854 27.9618 12.8511 27.9628C12.7774 27.9612 12.6885 27.9525 12.6273 27.9752C12.5992 28.0069 12.6085 28.0302 12.6123 28.0676C12.6747 28.1097 13.0753 28.088 13.1856 28.089C13.2764 28.0862 13.3556 28.0788 13.3495 27.9969ZM24.8737 27.9619C24.3915 27.9558 23.883 27.9719 23.4028 27.9628C23.3853 28.0117 23.3737 28.0396 23.413 28.0826C23.49 28.0908 23.7938 28.0935 23.8558 28.089C24.0939 28.0719 25.4558 28.1187 25.5556 28.0724C25.5554 28.0369 25.5639 27.9967 25.5351 27.9701C25.36 27.9536 25.0593 27.9643 24.8737 27.9619ZM20.9392 27.9629C20.8057 27.9631 20.1558 27.9481 20.0839 27.9827C20.0761 28.0204 20.0696 28.036 20.0795 28.0742C20.1481 28.1025 20.8446 28.0875 20.9765 28.0879C21.1424 28.0888 21.5919 28.0972 21.7328 28.0832C21.7677 28.053 21.768 28.0139 21.7511 27.9774C21.6621 27.9509 21.0801 27.9622 20.9392 27.9629ZM15.064 26.3975C15.0131 26.3729 14.935 26.3806 14.8687 26.3823C14.8559 26.9085 14.8784 27.4399 14.8628 27.9647C14.7087 27.9634 14.1898 27.9502 14.079 27.98C14.046 28.0176 14.0532 27.9975 14.061 28.043C14.128 28.1028 14.134 28.0914 14.2473 28.0887L15.0743 28.0867L15.0775 26.9182C15.0777 26.8254 15.088 26.474 15.064 26.3975ZM9.17221 27.9539C9.16782 27.9957 9.1547 28.0392 9.18468 28.0739C9.2339 28.0974 9.27188 28.0896 9.33393 28.0879L9.39647 28.0863C9.40012 28.0428 9.41319 28.0062 9.37849 27.972C9.32036 27.9488 9.24273 27.9544 9.17221 27.9539ZM22.802 27.9717C22.7506 27.9488 22.661 27.9569 22.5945 27.9577C22.5899 28.0034 22.576 28.0388 22.612 28.0753C22.6676 28.0971 22.748 28.0892 22.8159 28.0881C22.8201 28.0452 22.8337 28.0064 22.802 27.9717ZM19.3764 27.972C19.2404 27.9574 18.8219 27.9645 18.6666 27.9655C18.6658 28.0033 18.6574 28.049 18.6837 28.0805C18.8062 28.0964 19.2456 28.0882 19.3926 28.0871C19.3932 28.051 19.4012 28.001 19.3764 27.972ZM8.60806 27.9753C8.50764 27.9602 8.05704 27.9653 7.92628 27.9653L6.43695 27.9652C6.43579 28.0062 6.42551 28.0473 6.45576 28.0804C6.55298 28.0947 7.00569 28.0887 7.13096 28.0886L8.62634 28.0873C8.62764 28.0466 8.63707 28.0092 8.60806 27.9753ZM17.1008 26.3881C17.0308 26.3774 17.0072 26.3802 16.9341 26.3822L16.9303 28.0866C17.264 28.0877 17.5979 28.0877 17.9316 28.0866C17.933 28.0498 17.9423 28.0016 17.9162 27.9722C17.7675 27.9568 17.3041 27.962 17.1316 27.9615C17.1317 27.6174 17.1389 26.7964 17.1247 26.4055C17.1168 26.3997 17.1087 26.394 17.1008 26.3881ZM9.13926 25.3751C7.57621 25.3814 6.0131 25.3819 4.44996 25.3767C4.26178 25.4872 4.06527 25.6066 3.86767 25.7082C5.29144 25.716 6.74868 25.6995 8.16619 25.7181C8.09013 25.7971 8.08225 25.8135 8.08421 25.9072L5.0715 25.9078C4.85401 25.9075 3.5765 25.8931 3.48465 25.92C3.42593 25.9639 3.44113 25.9802 3.4549 26.0368C3.52077 26.0693 3.84415 26.0513 3.9483 26.0516L5.00619 26.0539C6.02753 26.0539 7.06776 26.0469 8.08744 26.0551C8.24332 26.4122 8.13979 26.4215 8.72077 26.3909C8.32711 26.334 8.3203 26.3382 8.26359 26.0604C8.24821 25.985 8.21757 25.9016 8.224 25.8247C8.22942 25.777 8.5771 25.6613 8.64415 25.6241C8.8141 25.5449 8.9829 25.4662 9.13926 25.3751ZM8.8389 25.8628C8.76175 25.9012 8.68643 25.9312 8.63787 25.9852L8.63541 26.0148C8.71801 26.0594 9.09434 26.0408 9.2253 26.041L10.3595 26.0415L13.7499 26.0424L23.1987 26.0402C23.2698 26.0407 23.323 26.0478 23.3794 26.022C23.4152 25.9595 23.2418 25.8961 23.1702 25.8626L8.8389 25.8628ZM11.0976 25.3244C10.6371 25.3243 10.1346 25.317 9.67724 25.3245C9.51354 25.4307 9.30287 25.5744 9.13233 25.6695L22.0491 25.6683L22.8378 25.6689C22.663 25.5595 22.461 25.4382 22.2964 25.3245L13.8316 25.3244L11.0976 25.3244ZM26.8699 24.862C25.3009 24.8625 23.676 24.8487 22.1111 24.8666C22.2565 24.9717 22.4311 25.0978 22.5908 25.1933C24.1536 25.193 25.7423 25.2038 27.3029 25.1908C27.1627 25.0781 27.0071 24.9723 26.8699 24.862ZM5.16447 24.8608C5.0072 24.9679 4.86625 25.0739 4.71704 25.1859C5.80913 25.2048 6.97319 25.1922 8.06978 25.1925L8.9813 25.1929C9.07073 25.1929 9.34261 25.1966 9.41561 25.1868L9.89253 24.8647L5.16447 24.8608ZM21.5214 24.7986C21.2351 24.8243 20.5264 24.8114 20.2143 24.8111L17.8066 24.811L13.2164 24.8111C12.3119 24.8112 11.351 24.8215 10.4503 24.8036C10.2772 24.908 10.1364 25.0021 9.97327 25.1137L10.4085 25.1151L17.6614 25.1136C19.1013 25.114 20.5554 25.1224 21.9934 25.1122C21.9211 25.0603 21.5935 24.8203 21.5214 24.7986ZM21.3903 24.3505L21.8383 24.6703C22.8555 24.6656 23.8728 24.6644 24.89 24.6666C25.4118 24.6666 26.0636 24.6773 26.5773 24.6602C26.4391 24.5552 26.2984 24.4518 26.155 24.35L21.3903 24.3505ZM10.6089 24.3518C9.04184 24.35 7.4424 24.3385 5.87819 24.3495L5.44113 24.6602L10.1499 24.6666L10.6089 24.3518ZM20.8168 24.305C17.6197 24.3201 14.397 24.2826 11.205 24.3072C11.0883 24.3387 10.8528 24.5215 10.7554 24.5923L20.6487 24.591L21.2259 24.5893C21.0855 24.4855 20.9669 24.4025 20.8168 24.305ZM11.3838 23.8137C9.83517 23.8013 8.26228 23.8123 6.71209 23.8121C6.46919 23.9095 6.3285 24.0104 6.13804 24.1503C7.67274 24.179 9.30047 24.1528 10.8461 24.1602C10.9218 24.1523 11.3073 23.8671 11.3838 23.8137ZM22.4013 23.8115C21.8106 23.8112 21.1957 23.805 20.6066 23.8135C20.775 23.9272 20.9479 24.0473 21.1194 24.1582L25.8749 24.1527C25.7259 24.0093 25.5296 23.906 25.3149 23.8122L22.4013 23.8115ZM12.0186 23.7315C11.8213 23.8255 11.6227 23.9796 11.4458 24.0964L20.1371 24.0969L20.5252 24.0961C20.4049 24.0111 20.1338 23.8062 19.9952 23.7541C19.969 23.7599 19.9479 23.7657 19.9232 23.7742C19.8583 23.7965 12.7896 23.798 12.0658 23.7787C12.0211 23.7583 12.0407 23.771 12.0186 23.7315ZM7.31212 23.3053C7.17034 23.4086 7.02759 23.5114 6.88385 23.6134L10.2853 23.616L11.204 23.619C11.2921 23.6193 11.5968 23.6226 11.6679 23.6151L12.1294 23.307L7.31212 23.3053ZM21.2322 23.3057C20.7942 23.3061 20.3161 23.2987 19.8818 23.3069C19.9551 23.381 20.223 23.5493 20.329 23.6164L23.4175 23.6158C23.98 23.6158 24.5743 23.6225 25.1337 23.613C25.0023 23.508 24.8538 23.4047 24.7139 23.3041L21.2322 23.3057ZM12.7653 23.2216C12.5653 23.3314 12.3929 23.4626 12.2044 23.5812L19.2397 23.5822L19.7756 23.579C19.6612 23.499 19.3949 23.2966 19.2582 23.2562C18.8296 23.2905 18.5449 23.2774 18.1148 23.2775L16.4944 23.2783H14.1619C13.7352 23.2787 13.2237 23.2886 12.8071 23.2751C12.7685 23.2496 12.7822 23.2607 12.7653 23.2216ZM20.8225 22.7882C20.2649 22.7885 19.6766 22.7823 19.1231 22.7917C19.2738 22.8973 19.4297 23.0076 19.5846 23.1102L24.4394 23.1015C24.3273 23.001 24.1599 22.8867 24.0338 22.7893L20.8225 22.7882ZM12.8764 22.794C11.297 22.7738 9.57878 22.7807 7.99022 22.7888C7.85481 22.8944 7.7173 22.9987 7.57754 23.1016C8.01093 23.1022 12.3479 23.1228 12.4307 23.0919L12.8764 22.794ZM13.458 22.7658C13.2876 22.8625 13.1251 22.9694 12.9633 23.0726L18.5165 23.0706L19.0268 23.0704C18.8623 22.9583 18.7181 22.8689 18.543 22.764L13.458 22.7658ZM15.9938 19.7019C15.4271 20.3919 14.872 21.0862 14.3289 21.7847C14.1932 21.9557 13.8637 22.4257 13.7101 22.5487L16.0609 22.5516L18.2799 22.5473C18.1032 22.3861 17.8284 21.9799 17.6694 21.7748C17.2574 21.2375 16.8349 20.7039 16.402 20.1739C16.3438 20.1026 16.0625 19.7474 15.9938 19.7019ZM16.2698 20.0481C16.2703 20.0883 16.2643 20.276 16.2816 20.2988C16.5104 20.6005 16.785 20.9187 17.0229 21.2161C17.2151 21.4592 17.4048 21.7033 17.5919 21.9482C17.6659 22.045 17.7396 22.1478 17.8125 22.2453C17.8719 22.3245 18.075 22.3634 18.1083 22.4163L18.091 22.4243C17.7494 22.3793 17.5553 22.4065 17.3243 22.2639L16.5113 22.2645L14.6827 22.2627C14.4226 22.4033 14.1872 22.3994 13.8583 22.4311C13.9384 22.3937 14.1361 22.308 14.1768 22.2591C14.3279 22.0772 14.4653 21.8789 14.6129 21.6941C14.9867 21.2258 15.3648 20.759 15.7471 20.2937C15.7376 20.213 15.7375 20.1513 15.7386 20.0702C15.8172 20.0999 15.8264 20.1407 15.9131 20.163C15.9479 20.1481 15.9527 20.144 15.9808 20.124C16.0443 20.1305 16.0371 20.1392 16.0943 20.1777C16.1497 20.1326 16.2102 20.0908 16.2698 20.0481ZM15.8545 20.7155C15.7505 20.9341 15.689 21.0643 15.5034 21.263C15.3057 21.4746 14.9823 21.5052 14.9966 21.7874L14.9982 21.81C15.0008 21.8565 14.9956 21.9168 15.0231 21.9565C15.057 21.9472 15.0996 21.9417 15.1073 21.9237C15.1556 21.8099 15.1261 21.6629 15.2134 21.5543C15.2719 21.4817 15.4091 21.3964 15.5006 21.3367C15.7139 21.1977 15.8655 20.9114 15.8545 20.7155ZM16.1426 20.7017C16.1762 20.9432 16.2791 21.1804 16.5361 21.3579C16.6712 21.4512 16.7187 21.4738 16.8084 21.5867C16.902 21.7045 16.8597 21.8574 16.9121 21.9352C16.9525 21.9435 16.9666 21.9434 17.0091 21.9461C17.0049 21.8115 17.0118 21.569 16.845 21.4911C16.3813 21.2743 16.3417 21.037 16.1426 20.7017Z" fill="#301002"/>
<path d="M23.7601 20.9619C23.7601 20.7475 23.5864 20.5738 23.372 20.5738C23.1577 20.5738 22.9839 20.7475 22.9839 20.9619C22.9839 21.1762 23.1577 21.35 23.372 21.35V21.4609C23.0964 21.4609 22.873 21.2375 22.873 20.9619C22.873 20.6863 23.0964 20.4629 23.372 20.4629C23.6476 20.4629 23.871 20.6863 23.871 20.9619C23.871 21.2375 23.6476 21.4609 23.372 21.4609V21.35C23.5864 21.35 23.7601 21.1762 23.7601 20.9619Z" fill="#301002"/>
<path d="M23.3743 21.1484C23.343 21.1484 23.3151 21.1414 23.2905 21.1273C23.2662 21.1133 23.247 21.0932 23.233 21.067C23.2193 21.0405 23.2124 21.0086 23.2124 20.9712C23.2124 20.9351 23.2189 20.9038 23.232 20.8773C23.2454 20.8505 23.2645 20.8297 23.2891 20.815C23.3136 20.8003 23.3425 20.793 23.3758 20.793C23.4214 20.793 23.4568 20.8042 23.4821 20.8265C23.5076 20.8489 23.5241 20.881 23.5314 20.9228L23.4447 20.9262C23.4412 20.9057 23.4336 20.8897 23.4217 20.8782C23.4099 20.8667 23.3946 20.861 23.3758 20.861C23.3591 20.861 23.3449 20.8656 23.3331 20.8749C23.3216 20.8842 23.3128 20.8971 23.3068 20.9137C23.301 20.9303 23.2981 20.9495 23.2981 20.9712C23.2981 20.9935 23.3012 21.0129 23.3072 21.0291C23.3136 21.0454 23.3226 21.058 23.3341 21.067C23.3456 21.0759 23.3593 21.0804 23.3753 21.0804C23.396 21.0804 23.412 21.0743 23.4232 21.0622C23.4347 21.0497 23.442 21.0326 23.4452 21.0109L23.5324 21.0143C23.5276 21.0427 23.5185 21.067 23.5051 21.0871C23.4917 21.1069 23.4741 21.1221 23.4524 21.1326C23.4307 21.1431 23.4046 21.1484 23.3743 21.1484Z" fill="#301002"/>
</g>
<defs>
<linearGradient id="paint0_linear_168_3214" x1="16" y1="0" x2="16" y2="32" gradientUnits="userSpaceOnUse">
<stop stop-color="#F26A30"/>
<stop offset="1" stop-color="#F26A30"/>
</linearGradient>
<clipPath id="clip0_168_3214">
<rect width="32" height="32" fill="white"/>
</clipPath>
</defs>
</svg>
