<svg preserveAspectRatio="none" width="100%" height="100%" overflow="visible" style="display: block;" viewBox="0 0 22.0004 18" fill="none" xmlns="http://www.w3.org/2000/svg">
<path id="Vector" fill-rule="evenodd" clip-rule="evenodd" d="M6.23969 0C5.68156 0.000296295 5.13458 0.156283 4.66025 0.450419C4.18639 0.744269 3.8038 1.16436 3.55542 1.66354L3.55469 1.665L0.115048 8.5343C0.0762458 8.6079 0.046354 8.68693 0.0268083 8.76995C0.00712682 8.85291 -0.00152303 8.93693 0.000218535 9.02009V15C0.000218535 16.6569 1.34337 18 3.00022 18H19.0002C20.6571 18 22.0002 16.6569 22.0002 15V9.02009C22.002 8.93698 21.9933 8.853 21.9737 8.77009C21.9541 8.68701 21.9242 8.60793 21.8854 8.53428L18.4457 1.665L18.4451 1.66368C18.1967 1.16444 17.8141 0.744298 17.3402 0.450419C16.8659 0.156282 16.3189 0.000296295 15.7607 0H6.23969ZM19.3811 8L16.656 2.55773L16.6547 2.555C16.5719 2.38839 16.4443 2.24818 16.2862 2.15014C16.1281 2.05213 15.9459 2.00013 15.7599 2H6.24056C6.05458 2.00013 5.87233 2.05213 5.71427 2.15014C5.55616 2.24819 5.42854 2.38839 5.34575 2.555L5.34439 2.55773L2.6193 8H7.00022C7.33457 8 7.6468 8.1671 7.83227 8.4453L9.5354 11H12.465L14.1682 8.4453C14.3536 8.1671 14.6659 8 15.0002 8H19.3811Z" fill="var(--fill-0, #9580FF)"/>
</svg>
