<svg width="21" height="20" viewBox="0 0 21 20" fill="none" xmlns="http://www.w3.org/2000/svg">
<g filter="url(#filter0_d_53_196)">
<path d="M7.12939 15.2252L6.11014 16.2622L6.11115 16.2632L5.66769 16.7129L1.91797 15.4562L4.63732 12.6924L7.12939 15.2252Z" fill="black"/>
<path d="M18.918 11.0795L18.6109 11.3916C18.6109 11.3916 15.5326 8.23095 8.32037 14.8218L8.20016 14.8269L5.03027 11.6051L5.03634 11.484C11.5015 4.17845 8.43101 1.04502 8.41128 1.02504L8.71837 0.712921L18.918 11.0795Z" fill="black"/>
<path d="M7.12939 15.2252L6.11014 16.2622L6.11115 16.2632L5.66769 16.7129L1.91797 15.4562L4.63732 12.6924L7.12939 15.2252Z" stroke="white" stroke-miterlimit="10"/>
<path d="M18.918 11.0795L18.6109 11.3916C18.6109 11.3916 15.5326 8.23095 8.32037 14.8218L8.20016 14.8269L5.03027 11.6051L5.03634 11.484C11.5015 4.17845 8.43101 1.04502 8.41128 1.02504L8.71837 0.712921L18.918 11.0795Z" stroke="white" stroke-miterlimit="10"/>
</g>
<defs>
<filter id="filter0_d_53_196" x="0" y="0" width="20.6191" height="19.2862" filterUnits="userSpaceOnUse" color-interpolation-filters="sRGB">
<feFlood flood-opacity="0" result="BackgroundImageFix"/>
<feColorMatrix in="SourceAlpha" type="matrix" values="0 0 0 0 0 0 0 0 0 0 0 0 0 0 0 0 0 0 127 0" result="hardAlpha"/>
<feOffset dy="1"/>
<feGaussianBlur stdDeviation="0.5"/>
<feComposite in2="hardAlpha" operator="out"/>
<feColorMatrix type="matrix" values="0 0 0 0 0 0 0 0 0 0 0 0 0 0 0 0 0 0 0.25 0"/>
<feBlend mode="normal" in2="BackgroundImageFix" result="effect1_dropShadow_53_196"/>
<feBlend mode="normal" in="SourceGraphic" in2="effect1_dropShadow_53_196" result="shape"/>
</filter>
</defs>
</svg>
