<svg width="18" height="18" viewBox="0 0 18 18" fill="none" xmlns="http://www.w3.org/2000/svg">
<g filter="url(#filter0_d_51_172)">
<path d="M12.8781 0.226917C13.2398 0.0771065 13.6275 0 14.0189 0C14.4104 0 14.7981 0.0771067 15.1597 0.226917C15.5214 0.376728 15.85 0.59631 16.1269 0.873125C16.4037 1.14994 16.6233 1.47857 16.7731 1.84024C16.9229 2.20192 17 2.58956 17 2.98103C17 3.37251 16.9229 3.76015 16.7731 4.12183C16.6233 4.48339 16.4038 4.81192 16.1271 5.08868L15.0847 6.13212L10.8678 1.91537L11.911 0.873125C12.1878 0.59631 12.5164 0.376729 12.8781 0.226917Z" fill="black"/>
<path d="M9.73589 3.04621L1.23457 11.5396C1.08439 11.6897 1 11.8933 1 12.1056V15.2C1 15.6418 1.35817 16 1.8 16H4.89442C5.10673 16 5.31033 15.9156 5.46038 15.7654L13.9538 7.26401L9.73589 3.04621Z" fill="black"/>
<path d="M13.2471 7.26367L5.10645 15.4121C5.05022 15.4683 4.97404 15.5 4.89453 15.5H1.7998C1.63427 15.4999 1.5001 15.3657 1.5 15.2002V12.1055C1.50003 12.026 1.53168 11.9498 1.58789 11.8936L9.73535 3.75195L13.2471 7.26367ZM14.0186 0.5C14.3444 0.5 14.6677 0.563793 14.9688 0.688477C15.2697 0.813159 15.5431 0.99622 15.7734 1.22656C16.0038 1.45691 16.1868 1.7303 16.3115 2.03125C16.4362 2.33226 16.5 2.65563 16.5 2.98145C16.4999 3.30712 16.4362 3.62978 16.3115 3.93066C16.2181 4.1563 16.0918 4.36654 15.9375 4.55469L15.7734 4.73535L15.084 5.42383L11.5752 1.91504L12.2646 1.22656C12.495 0.996229 12.7684 0.813141 13.0693 0.688477C13.3702 0.563848 13.6929 0.500049 14.0186 0.5Z" stroke="white"/>
</g>
<defs>
<filter id="filter0_d_51_172" x="0" y="0" width="18" height="18" filterUnits="userSpaceOnUse" color-interpolation-filters="sRGB">
<feFlood flood-opacity="0" result="BackgroundImageFix"/>
<feColorMatrix in="SourceAlpha" type="matrix" values="0 0 0 0 0 0 0 0 0 0 0 0 0 0 0 0 0 0 127 0" result="hardAlpha"/>
<feOffset dy="1"/>
<feGaussianBlur stdDeviation="0.5"/>
<feComposite in2="hardAlpha" operator="out"/>
<feColorMatrix type="matrix" values="0 0 0 0 0 0 0 0 0 0 0 0 0 0 0 0 0 0 0.25 0"/>
<feBlend mode="normal" in2="BackgroundImageFix" result="effect1_dropShadow_51_172"/>
<feBlend mode="normal" in="SourceGraphic" in2="effect1_dropShadow_51_172" result="shape"/>
</filter>
</defs>
</svg>
