<svg width="16" height="16" viewBox="0 0 16 16" fill="none" xmlns="http://www.w3.org/2000/svg">
<path fill-rule="evenodd" clip-rule="evenodd" d="M9.5286 2.86192C9.78895 2.60157 10.2111 2.60157 10.4714 2.86192L13.8047 6.19525C13.9298 6.32028 14 6.48985 14 6.66666C14 6.84347 13.9298 7.01304 13.8047 7.13806L10.4714 10.4714C10.2111 10.7317 9.78895 10.7317 9.5286 10.4714C9.26825 10.211 9.26825 9.78893 9.5286 9.52859L11.7239 7.33332L5.33333 7.33332C4.22876 7.33332 3.33333 8.22875 3.33333 9.33332V12.6667C3.33333 13.0348 3.03486 13.3333 2.66667 13.3333C2.29848 13.3333 2 13.0348 2 12.6667V9.33332C2 7.49237 3.49238 5.99999 5.33333 5.99999L11.7239 5.99999L9.5286 3.80473C9.26825 3.54438 9.26825 3.12227 9.5286 2.86192Z" fill="#14141F"/>
</svg>
