<svg preserveAspectRatio="none" width="100%" height="100%" overflow="visible" style="display: block;" viewBox="0 0 22 22" fill="none" xmlns="http://www.w3.org/2000/svg">
<path id="Vector" fill-rule="evenodd" clip-rule="evenodd" d="M13.5051 1.17649C12.2034 -0.392164 9.79662 -0.392164 8.49491 1.17649L7.87457 1.92404C7.60994 2.24295 7.20496 2.41069 6.79234 2.37232L5.8251 2.28236C3.79544 2.0936 2.0936 3.79544 2.28236 5.8251L2.37232 6.79234C2.41069 7.20496 2.24295 7.60994 1.92404 7.87457L1.17649 8.49491C-0.392164 9.79662 -0.392164 12.2034 1.17649 13.5051L1.92404 14.1254C2.24295 14.3901 2.41069 14.795 2.37232 15.2077L2.28236 16.1749C2.0936 18.2046 3.79544 19.9064 5.8251 19.7176L6.79234 19.6277C7.20496 19.5893 7.60994 19.7571 7.87457 20.076L8.49491 20.8235C9.79662 22.3922 12.2034 22.3922 13.5051 20.8235L14.1254 20.076C14.3901 19.7571 14.795 19.5893 15.2077 19.6277L16.1749 19.7176C18.2046 19.9064 19.9064 18.2046 19.7176 16.1749L19.6277 15.2077C19.5893 14.795 19.7571 14.3901 20.076 14.1254L20.8235 13.5051C22.3922 12.2034 22.3922 9.79662 20.8235 8.49491L20.076 7.87457C19.7571 7.60994 19.5893 7.20496 19.6277 6.79234L19.7176 5.8251C19.9064 3.79544 18.2046 2.0936 16.1749 2.28236L15.2077 2.37232C14.795 2.41069 14.3901 2.24295 14.1254 1.92404L13.5051 1.17649ZM11 14C12.6569 14 14 12.6569 14 11C14 9.34315 12.6569 8 11 8C9.34315 8 8 9.34315 8 11C8 12.6569 9.34315 14 11 14Z" fill="var(--fill-0, white)"/>
</svg>
