<svg width="137" height="96" viewBox="0 0 137 96" fill="none" xmlns="http://www.w3.org/2000/svg">
<path d="M4.8486 63.2453C0.218601 58.4553 0.238591 51.3453 3.33859 45.6953C6.41859 40.0753 12.1686 36.6453 17.9686 34.3853C27.3086 30.7453 37.3186 28.9153 46.7486 25.4653C55.0886 22.4053 64.0286 18.8753 70.7286 12.8753C72.8886 10.9453 75.0086 8.61526 75.7686 5.74526C76.1486 4.32526 76.5986 0.735262 74.7286 0.085262C72.9086 -0.544738 71.2886 2.48526 70.5686 3.63526C68.6786 6.63526 67.0886 9.88526 65.7286 13.1653C60.9986 24.5653 58.7986 37.0453 54.6286 48.6753C52.3186 55.1253 49.4586 61.4253 45.8886 67.2853C42.9086 72.1753 39.3386 77.6753 34.6486 81.1053C32.3386 82.7953 28.8586 84.3753 26.0686 82.9053C23.4886 81.5553 22.6986 78.1653 22.7386 75.4953C22.7986 71.1453 24.8486 66.7353 27.0886 63.1153C29.5186 59.1853 33.7186 53.9253 38.9186 54.2753C44.4086 54.6453 46.6186 61.4253 52.5586 60.8153C63.8486 59.6553 63.9986 41.4753 75.8886 41.8253C77.1786 41.8653 77.1086 40.0153 75.8886 39.8653C71.6686 39.3653 61.6386 46.1753 66.3786 50.8553C70.6486 55.0653 75.7586 43.5453 77.3986 41.1753C76.8086 40.9253 76.2186 40.6753 75.6386 40.4353C75.2486 42.3253 75.2486 46.3153 78.2086 45.8953C80.5386 45.5753 82.7586 42.0153 83.5586 40.0953C82.9286 40.0053 82.2886 39.9253 81.6586 39.8353C81.8086 41.6353 81.8186 43.1453 84.0086 42.5653C85.9486 42.0453 88.7386 39.7553 89.7986 38.0353C89.2086 37.7853 88.6186 37.5353 88.0186 37.2853C87.1286 43.6553 94.7186 38.1053 95.9986 35.5753C95.3886 35.4153 94.7886 35.2453 94.1786 35.0853C94.1786 36.9253 95.5786 38.2453 97.3786 37.3653C99.1486 36.5053 101.359 33.9453 101.979 32.0653C101.339 31.9753 100.699 31.8953 100.049 31.8053C100.199 33.0553 100.479 33.7653 101.419 34.6653C101.859 35.0853 102.659 35.0353 102.959 34.4653C103.739 33.0053 104.799 31.5853 106.259 30.7353C108.349 29.5153 110.449 30.4553 112.669 30.2753C116.219 30.0053 119.029 27.9453 121.369 25.4053H119.979C121.299 26.7853 121.949 27.2053 123.859 26.6753C127.549 25.6453 131.179 23.5153 134.699 21.9953C135.729 21.5453 134.999 19.7953 133.929 20.1653C125.599 23.0853 118.399 28.7653 111.709 34.3753C104.499 40.4253 97.8686 47.0953 90.7686 53.2653C88.4786 55.2553 86.0486 57.6153 83.2586 58.8853C81.6586 59.6153 80.7286 59.1953 81.8486 57.4553C83.4986 54.8753 87.1186 53.1453 89.6886 51.7053C93.8386 49.3953 98.1786 47.4153 102.549 45.5453C113.409 40.9153 124.599 36.9653 135.909 33.6153C137.199 33.2353 136.649 31.2253 135.349 31.5953C124.189 34.7853 113.199 38.7453 102.509 43.2653C97.6886 45.3053 92.8886 47.4553 88.3286 50.0353C85.5286 51.6153 82.1786 53.4453 80.2586 56.1353C79.2986 57.4853 78.6786 59.5053 80.1486 60.7753C81.5486 61.9953 83.5086 61.0653 84.8786 60.2853C87.8886 58.5753 90.5286 56.0753 93.0886 53.7753C96.9286 50.3253 100.729 46.8353 104.549 43.3553C113.379 35.3153 122.989 26.1153 134.469 22.0753C134.209 21.4653 133.959 20.8553 133.699 20.2453C131.479 21.2053 129.239 22.1453 127.029 23.1353C125.069 24.0153 123.119 25.7753 121.399 23.9853C121.039 23.6153 120.359 23.5953 120.009 23.9853C117.959 26.2353 115.459 28.2053 112.289 28.3553C110.649 28.4353 109.079 27.8753 107.449 28.2253C104.709 28.8153 102.579 31.0453 101.299 33.4453C101.809 33.3753 102.329 33.3153 102.839 33.2453C102.579 32.7553 102.309 32.2653 102.049 31.7753C101.919 30.7153 100.489 30.4053 100.119 31.5153C99.7986 32.4953 98.8786 33.3453 98.1786 34.0653C97.8786 34.3753 96.1586 36.5253 96.1586 35.0553C96.1586 34.1253 94.7886 33.6753 94.3386 34.5653C93.8386 35.5553 92.5486 36.4053 91.7086 37.0453C91.3486 37.3153 90.9686 37.6553 90.5686 37.8653C89.6786 38.3353 89.7786 38.8453 89.9286 37.7753C90.0686 36.7453 88.7786 36.0153 88.1486 37.0253C87.5086 38.0553 86.2586 38.8853 85.2886 39.5653C84.9886 39.7753 84.4386 40.2853 84.0686 40.3553C83.2686 40.4953 83.7086 40.8853 83.6186 39.8053C83.5186 38.6753 82.1286 38.5453 81.7186 39.5453C81.4586 40.1753 81.0186 40.8053 80.6186 41.3453C80.3186 41.7153 80.0086 42.0953 79.7086 42.4653C78.8586 43.7353 78.1286 43.2153 77.5286 40.9153C77.7586 39.8253 76.3986 39.2753 75.7686 40.1753C73.9886 42.7053 72.2886 47.7653 69.4386 49.2053C67.9286 49.9653 67.0186 48.7953 67.5786 47.1653C67.9386 46.1053 68.7786 45.2153 69.5886 44.4653C71.2486 42.9153 73.5986 41.5253 75.9286 41.8053V39.8453C64.8486 39.5153 63.5686 52.7753 55.8786 57.6053C49.1786 61.8153 46.4786 54.1353 40.8086 52.6253C37.3686 51.7153 34.0286 53.0853 31.3486 55.2153C25.4486 59.9153 20.1786 69.2553 20.9186 77.0053C21.2586 80.5253 23.0186 84.2453 26.7286 85.1653C31.0986 86.2553 35.4186 83.3553 38.3686 80.4453C47.1386 71.8153 52.4786 59.9653 56.6486 48.5953C59.1586 41.7453 61.1586 34.7353 63.1886 27.7353C64.7686 22.3053 66.1386 16.7253 68.5286 11.5853C69.2786 9.96526 70.0786 8.36526 70.9386 6.80526C71.5486 5.69526 72.7586 2.71526 73.9986 2.18526C74.4186 2.00526 73.6786 1.58526 74.0586 2.06526C74.3086 2.38526 74.2486 3.14526 74.2586 3.55526C74.2686 4.30526 74.1386 5.03526 73.9186 5.75526C73.3386 7.59526 72.0886 9.19526 70.7586 10.5453C63.6786 17.7553 52.6486 21.6653 43.3586 24.9453C38.0086 26.8353 32.5786 28.4353 27.1186 29.9453C21.0386 31.6253 14.7786 33.4753 9.55859 37.1553C1.24859 43.0053 -4.23143 55.7153 4.25857 63.8953C4.66857 64.2953 5.28858 63.6753 4.88858 63.2653L4.8486 63.2453Z" fill="black"/>
<g opacity="0.55" style="mix-blend-mode:plus-darker">
<path d="M33.5638 89.7048L16.4323 72.8967L16.0317 73.305C15.6024 73.7425 15.2516 74.2557 15.106 74.8511C14.6227 76.8286 14.1253 81.8406 19.3953 87.0112C20.9578 88.5443 22.3574 91.2273 23.3861 93.5899C24.2906 95.6681 27.08 96.3133 28.6677 94.6951L33.5638 89.7048ZM98.2733 39.7543L108.128 46.6016L108.356 46.2736L108.561 45.9313L98.2733 39.7543ZM100.512 36.3036L92.3395 27.5166L91.934 27.8938L91.5649 28.3068L100.512 36.3036ZM94.6988 25.6601L108.791 45.087L109.254 44.7511C109.751 44.3911 110.182 43.9435 110.425 43.3807C111.231 41.5113 112.556 36.6522 108.221 30.676C106.935 28.9041 106.002 26.0255 105.381 23.5245C104.836 21.3248 102.193 20.2239 100.358 21.5551L94.6988 25.6601ZM24.998 81.3008L33.5638 89.7048C33.5731 89.6953 33.4903 89.7802 33.3886 89.8796C33.2735 89.9921 33.1438 90.1142 32.9999 90.2428C32.7201 90.4928 32.4804 90.6828 32.3246 90.8023C32.1737 90.9181 32.0537 91.0041 31.9944 91.0462C31.93 91.0919 31.883 91.1241 31.8651 91.1364C31.8277 91.1619 31.8811 91.125 32.1818 90.9288C32.7375 90.5662 33.8711 89.8328 36.182 88.3446L29.6849 78.2556L23.1877 68.1667C20.8835 69.6506 19.6915 70.4215 19.0665 70.8293C18.7769 71.0183 18.5262 71.1831 18.3278 71.3187C18.2907 71.344 17.3659 71.9452 16.4323 72.8967L24.998 81.3008ZM29.6849 78.2556L36.182 88.3446C40.7382 85.4105 49.6713 79.6722 61.3062 73.2026L55.4745 62.7149L49.6428 52.2272C37.316 59.0816 27.862 65.1566 23.1877 68.1667L29.6849 78.2556ZM55.4745 62.7149L61.3062 73.2026C73.0617 66.666 87.2344 59.5884 95.1311 55.5255L89.6412 44.855L84.1512 34.1845C76.6553 38.0411 61.849 45.44 49.6428 52.2272L55.4745 62.7149ZM89.6412 44.855L95.1311 55.5255C98.9294 53.5713 101.355 52.2731 102.927 51.3118C103.723 50.8252 104.722 50.1733 105.695 49.325C106.929 48.2484 107.686 47.2374 108.128 46.6016L98.2733 39.7543L88.4186 32.907C88.4392 32.8774 88.6449 32.579 88.9566 32.214C89.2852 31.829 89.6163 31.5024 89.9208 31.2368C90.4334 30.7898 90.7472 30.6281 90.4058 30.8369C90.1103 31.0177 89.5358 31.3489 88.477 31.9196C87.4396 32.4788 86.0433 33.211 84.1512 34.1845L89.6412 44.855ZM98.2733 39.7543L108.561 45.9313C108.821 45.4989 109.01 45.1822 109.214 44.8444C109.407 44.5233 109.555 44.282 109.676 44.0908C109.734 43.9982 109.779 43.9296 109.811 43.8803C109.844 43.8303 109.858 43.8109 109.855 43.8153C109.853 43.8186 109.822 43.8626 109.764 43.9361C109.709 44.0076 109.606 44.1359 109.459 44.3003L100.512 36.3036L91.5649 28.3068C90.0114 30.0449 88.4916 32.7339 87.9852 33.5773L98.2733 39.7543ZM100.512 36.3036L108.685 45.0905C108.497 45.265 108.342 45.3929 108.246 45.4692C108.198 45.5075 108.162 45.5351 108.142 45.5503C108.122 45.5653 108.114 45.5714 108.122 45.5654C108.131 45.5591 108.149 45.5457 108.184 45.5206C108.221 45.4942 108.262 45.4656 108.323 45.4223C108.379 45.3825 108.451 45.3311 108.528 45.2762C108.607 45.2202 108.695 45.1566 108.791 45.087L101.745 35.3735L94.6988 25.6601C94.6293 25.7106 94.5574 25.7617 94.4398 25.8451C94.3411 25.9151 94.168 26.0376 93.9932 26.1648C93.6484 26.416 93.0212 26.8827 92.3395 27.5166L100.512 36.3036Z" fill="#B38FFF"/>
</g>
</svg>
