<svg width="162" height="128" viewBox="0 0 162 128" fill="none" xmlns="http://www.w3.org/2000/svg">
<path d="M40.9361 54.5947C40.5894 48.4261 34.2798 47.6724 29.2742 47.485C26.1962 47.3722 22.5837 47.7419 19.6596 46.5971C17.4805 45.7437 15.7574 43.8225 15.7497 41.4044C15.7373 38.29 18.3671 36.2461 20.8273 34.8223C27.6094 30.8916 36.388 30.5668 43.715 33.2428C47.4066 34.5914 50.3696 37.0226 50.3204 41.236C50.2649 46.5156 47.9154 51.7002 45.4909 56.29C39.7389 67.2133 31.853 76.8514 22.2217 84.5707C21.4541 85.1897 22.2395 86.5651 23.1509 86.075C42.5738 75.5701 52.1618 55.1494 66.3046 39.2026C65.7901 38.9232 65.285 38.6473 64.7669 38.3773C57.3268 52.3619 51.0608 66.9173 46.0206 81.9347C45.6983 82.9032 47.016 83.6884 47.6261 82.8069C55.4501 71.6601 61.8386 59.5019 70.537 48.9838C77.6815 40.3486 87.0399 32.7296 98.7388 32.3406C99.873 32.3085 100.062 30.531 98.8998 30.5524C87.7243 30.8288 78.6149 37.1632 71.3286 45.2105C61.3805 56.2087 54.5827 69.6233 46.124 81.7171C46.6665 82.0071 47.1998 82.2936 47.733 82.5801C52.7451 67.5521 58.9737 52.9826 66.3951 38.9909C66.8871 38.0543 65.4695 37.4772 64.8574 38.1656C50.9619 53.8529 41.4935 74.1263 22.3846 84.4504C22.6974 84.953 23.0009 85.4521 23.3138 85.9547C32.9122 78.2659 40.7335 68.7423 46.5673 57.914C50.0929 51.3667 56.0984 39.3741 48.2216 33.6482C42.3766 29.3934 32.58 28.875 25.8561 30.8934C21.9532 32.062 16.9004 34.2399 14.9534 38.1014C13.367 41.2331 14.2739 44.8664 17.1274 46.9358C23.3909 51.4979 38.4892 44.4713 40.4327 54.6828C40.4965 54.9954 40.9332 54.9142 40.9139 54.597L40.9361 54.5947Z" fill="black"/>
<path d="M61.4213 68.8024C60.6484 71.1935 58.5184 73.244 57.0298 75.2371C56.3424 76.1536 54.9846 77.6295 55.4764 78.9049C56.1349 80.6172 58.511 80.4655 59.8671 80.0148C62.3521 79.1774 64.2472 76.9848 66.0198 75.1736C74.1961 66.8632 81.3443 57.3959 88.021 47.8471C89.8137 45.274 92.2224 42.4842 93.4059 39.5426C94.0534 37.9379 93.1125 37.1451 91.6177 37.9923C88.8389 39.5526 86.4146 42.5822 84.2234 44.8235C80.4506 48.6807 76.8332 52.6927 73.4764 56.9205C71.8262 59.0023 57.3611 78.6962 66.3802 78.7826C68.6074 78.7992 70.8137 76.6598 72.3142 75.259C74.2577 73.4481 76.1534 71.5657 78.0117 69.6692C82.1069 65.4953 86.0864 61.203 89.9735 56.8438C93.5336 52.8422 97.0515 48.782 100.354 44.5553C101.649 42.906 104.819 39.8261 104.886 37.5216C104.955 35.4958 103.106 36.0919 102.007 36.8532C99.1749 38.8101 96.7498 41.6151 94.4095 44.11C86.8376 52.178 78.5789 61.4726 74.5189 71.9328C73.8442 73.6662 72.8214 76.3799 74.0358 78.12C75.493 80.2081 78.2417 79.1815 79.9768 78.0936C82.8016 76.3263 84.9426 73.3394 86.9425 70.7269C89.8491 66.9278 92.4728 62.9154 95.404 59.1363C94.8498 58.7351 94.3051 58.3374 93.7603 57.9397C92.3959 59.9155 83.9099 70.7488 87.8725 73.1079C89.5305 74.0961 91.6997 71.7718 92.7219 70.7891C95.5518 68.0726 98.0324 64.9787 100.32 61.8013C99.7658 61.4001 99.2117 60.9989 98.667 60.6012C97.9556 61.8933 91.6071 70.401 95.0425 71.0119C96.6958 71.3037 99.2072 68.6382 100.226 67.7503C102.299 65.935 104.539 63.9045 105.974 61.5169L104.121 60.8186C103.834 62.1746 101.588 66.4897 104.134 66.9364C106.9 67.4232 110.663 61.5212 112.245 59.9906C111.706 59.6058 111.17 59.2116 110.632 58.8268C110.146 60.0866 107.898 62.9901 109.718 64.1144C111.687 65.3267 113.802 61.6996 114.78 60.7216C114.241 60.3368 113.706 59.9427 113.167 59.5579C112.506 61.7349 113.666 63.9033 116.051 64.2677C119.172 64.7493 121.396 61.484 122.846 59.2521C122.229 59.1048 121.611 58.9574 120.99 58.8195C121.931 61.9636 124.754 63.6045 128.032 63.2155C132.229 62.7134 135.368 59.205 138.088 56.2976C138.999 55.3265 137.308 54.1123 136.41 55.0775C134.69 56.9193 132.852 58.9621 130.599 60.1756C128.107 61.5127 124.084 61.952 123.044 58.4718C122.812 57.7001 121.723 57.2149 121.188 58.0391C120.602 58.9405 120.02 59.8326 119.284 60.6238C118.277 61.7082 114.191 63.3318 115.113 60.2914C115.381 59.4094 114.286 58.3449 113.5 59.1277C112.591 60.0356 111.759 60.9401 111.265 62.0793C110.658 63.4641 111.704 61.4539 111.725 61.3977C112.018 60.7919 112.325 60.2025 112.565 59.5662C112.907 58.6586 111.708 57.6723 110.952 58.4025C109.101 60.1949 107.578 62.4208 105.563 64.0232C105.35 64.2207 105.116 64.3888 104.869 64.5312C104.332 64.7668 104.297 64.8603 104.777 64.8061C104.784 64.7874 105.342 64.0147 105.466 63.6017C105.723 62.7478 105.981 61.8938 106.164 61.0116C106.363 60.0288 104.822 59.4691 104.311 60.3133C102.23 63.793 98.758 65.6903 96.0111 68.4702C95.9291 68.5461 95.183 68.8527 95.1828 68.9381C95.1102 69.6695 96.012 69.3468 96.1221 69.2814C96.6247 68.9686 97.1367 67.27 97.456 66.7064C98.3962 65.0624 99.423 63.4723 100.329 61.8048C100.942 60.6893 99.4694 59.493 98.6763 60.6047C97.854 61.7375 90.2116 72.0338 89.004 71.1832C87.6608 70.2388 94.6378 60.2902 95.4227 59.1433C96.1642 58.0549 94.579 56.9018 93.7791 57.9468C89.9518 62.8842 86.6797 68.2768 82.5392 72.9679C81.6023 74.0361 76.3444 79.8771 75.5741 75.7396C75.2725 74.1298 76.9461 71.3622 77.6402 69.946C81.2972 62.5398 86.7167 55.8728 92.1086 49.6762C94.5559 46.8689 97.0768 44.1215 99.7626 41.5323C100.601 40.7261 101.435 39.9293 102.334 39.1887C103.005 38.6292 104.176 38.3011 103.387 37.6725C102.622 37.0637 102.508 38.1321 102.033 38.8828C101.345 39.9701 100.558 41.0093 99.7875 42.0333C97.4931 45.0585 95.0573 47.977 92.5853 50.8497C86.5237 57.916 80.2283 64.8086 73.5742 71.3203C72.2753 72.5834 70.9927 73.9167 69.5723 75.0484C68.7132 75.7399 66.5797 77.7143 65.5235 75.8949C65.0427 75.0725 65.9838 72.9158 66.2707 72.1263C67.6593 68.3002 70.0984 64.8058 72.4751 61.5338C77.3317 54.8577 82.9308 48.6216 88.9105 42.9352C89.778 42.1079 90.6548 41.2843 91.5643 40.5156C91.7835 40.3311 92.463 39.946 92.5933 39.6852C92.638 39.5951 92.8639 39.5628 92.8828 39.4844C92.8757 39.5031 92.1614 38.3362 91.8417 38.4187C91.6309 38.4675 90.9847 39.9552 90.8627 40.1657C90.1327 41.3653 89.3501 42.5344 88.5675 43.7036C83.1303 51.8067 77.25 59.6679 70.949 67.1141C69.3705 68.9772 67.7616 70.8074 66.1095 72.6106C64.468 74.3857 62.1816 77.5315 59.8184 78.3293C54.4128 80.1391 58.8147 75.2365 59.8236 73.7787C60.8326 72.3209 61.7201 70.7318 61.9162 68.9355C61.9517 68.6711 61.5411 68.5697 61.4646 68.8294L61.4213 68.8024Z" fill="black"/>
<path d="M135.873 58.5729C140.911 54.0811 147.295 45.9608 154.969 48.7673C157.908 49.8431 159.211 52.5677 158.402 55.565C157.653 58.3177 155.408 60.3891 153.314 62.1752C149.992 65.0056 146.347 67.4469 142.507 69.5261C134.865 73.6672 126.48 76.4061 117.915 77.8373C109.219 79.3046 100.516 79.9678 91.9099 82.0462C85.6012 83.5585 79.2943 85.4347 73.3536 88.0688C71.2863 88.9888 66.4308 90.7282 65.6915 93.3135C64.9887 95.7738 68.7731 96.1956 70.3893 96.3024C75.9984 96.6746 81.8043 94.9087 86.8864 92.7097C94.6916 89.325 101.093 83.9365 107.915 78.9946C115.185 73.741 122.48 70.517 131.594 71.0342C132.399 71.0812 132.494 69.9203 131.708 69.7949C117.121 67.4392 106.528 78.8461 95.475 86.254C88.9415 90.631 81.2531 94.1879 73.3061 94.7728C72.3287 94.8426 67.9296 95.2578 67.2832 94.0524C66.8783 93.312 68.5513 92.3609 69.1652 91.9511C74.1122 88.6646 80.2693 86.8174 85.9029 85.1683C94.3655 82.7046 103.059 81.0758 111.814 80.1329C127.608 78.434 145.042 72.8649 156.382 61.1515C158.795 58.6625 160.851 55.2483 159.698 51.672C158.76 48.7748 155.865 47.2672 152.985 47.026C145.534 46.4085 139.582 51.1435 134.638 56.889C134.356 57.2104 134.968 58.4239 135.319 58.1717L135.88 58.5542L135.873 58.5729Z" fill="black"/>
</svg>
