<svg width="151" height="156" viewBox="0 0 151 156" fill="none" xmlns="http://www.w3.org/2000/svg">
<g clip-path="url(#clip0_146_391)">
<path d="M13.9356 67.3046C14.7371 67.6588 15.5989 67.9183 16.3306 68.3825C21.4275 71.6258 26.5355 71.77 31.6708 68.5184C35.6634 65.9905 39.5574 63.2964 43.6349 60.9167C53.6699 55.0603 59.5095 56.8248 64.8928 67.1768C65.7354 68.7972 66.4712 70.4738 67.507 72.6516C69.4156 66.5301 70.5008 60.9085 68.9169 55.1179C67.9071 51.4228 65.3806 48.7534 61.54 48.7589C56.7884 48.7644 51.9682 49.2876 47.3056 50.2268C41.207 51.4558 35.2935 53.6308 29.184 54.7719C25.6764 55.4269 21.8345 55.3802 18.3228 54.7074C10.4951 53.2079 7.06154 45.565 11.1432 38.6746C12.9614 35.6056 15.4537 32.5408 18.3886 30.6253C23.4143 27.3448 28.8921 24.6452 34.4371 22.315C38.9997 20.3981 41.1029 21.5667 43.117 26.0912C44.6242 29.4759 47.4124 31.0358 50.7104 31.8377C57.2337 33.4251 63.6788 32.8388 69.8596 30.33C75.6635 27.9751 77.4009 24.0987 75.521 18.0569C74.7291 15.5111 73.5014 13.104 72.5629 10.5994C71.971 9.02305 71.3051 7.41373 71.0982 5.76459C70.6748 2.37568 72.4683 0.148454 75.8649 0.0152594C78.0544 -0.0698752 80.3714 0.127857 82.4512 0.777351C88.1442 2.55419 93.7906 4.51366 99.363 6.64065C103.556 8.24036 104.33 10.2451 102.576 14.4167C101.263 17.5393 99.5123 20.4805 98.2449 23.6195C97.4626 25.557 96.8268 27.7142 96.8268 29.7739C96.8268 33.1203 99.1314 34.9918 102.346 34.1487C105.233 33.3921 107.946 31.9325 110.69 30.6829C113.2 29.5405 115.575 28.063 118.141 27.0853C124.289 24.7427 129.275 26.7791 132.168 32.6438C135.009 38.4014 137.8 44.1823 140.604 49.9563C143.76 56.4526 144.792 63.2291 142.926 70.2705C141.394 76.046 138.864 77.025 133.759 74.0673C133.604 73.978 133.424 73.9148 133.302 73.7926C128.62 69.0732 124.301 69.9849 119.341 73.8448C113.6 78.3116 106.88 78.8842 100.082 76.0871C93.4207 73.3464 90.4036 67.8675 92.4835 60.9909C93.6974 56.9772 96.1815 53.3452 98.1326 49.5622C98.5313 48.7905 99.1027 48.1081 99.6905 47.2416C96.2788 46.3381 93.2919 47.1386 90.4543 48.5008C78.7381 54.1252 71.5681 63.4694 69.6445 76.2327C66.7959 95.1257 64.5777 114.113 62.0867 133.061C61.7963 135.275 61.577 137.506 61.103 139.68C60.955 140.36 60.0753 140.88 59.5314 141.473C59.1231 140.774 58.3257 140.051 58.3668 139.379C58.7271 133.497 58.9847 127.589 59.7561 121.755C61.5469 108.21 63.4404 94.6753 65.6231 81.1897C66.9138 73.2104 63.7377 67.089 58.7107 61.5195C56.476 59.0424 53.4479 58.57 50.5925 59.8058C46.5342 61.5635 42.6635 63.7811 38.7956 65.9506C35.6935 67.6918 32.8464 69.9341 29.6498 71.4528C24.2624 74.011 19.2216 72.6516 14.6302 69.1789C14.1932 68.848 13.9246 68.296 13.578 67.8469C13.6972 67.6657 13.815 67.4831 13.9342 67.3018L13.9356 67.3046ZM102.042 47.1798C98.3477 52.0833 95.2388 56.3153 94.1359 61.6294C92.8657 67.7412 95.2128 72.1421 101.035 74.4325C106.115 76.4304 111.194 76.2341 116.029 73.6484C118.538 72.3069 120.88 70.6495 123.284 69.1157C125.371 67.7838 127.457 67.7069 129.567 69.0429C131.3 70.1401 133.011 71.2729 134.774 72.3206C138.578 74.5794 139.784 74.0865 140.98 69.7432C142.479 64.3001 142.234 58.8391 140.021 53.7146C136.912 46.5152 133.498 39.4394 129.98 32.4282C127.922 28.3253 124.257 26.8203 119.832 28.2621C116.813 29.2453 114.018 30.9164 111.119 32.2717C108.781 33.3647 106.518 34.6898 104.083 35.4834C98.5121 37.3001 94.5538 34.0746 95.2827 28.2374C95.5512 26.0912 96.5665 23.9903 97.4968 21.9896C98.8492 19.0813 100.54 16.3295 101.879 13.4157C102.697 11.6334 103.013 9.50639 100.576 8.70723C93.3069 6.32209 86.0602 3.79002 78.6463 1.96649C73.6864 0.745769 71.8367 3.43712 73.6987 8.28842C74.9141 11.4521 76.5048 14.4895 77.5023 17.715C79.6397 24.6178 77.294 29.3977 70.5666 32.0712C64.1926 34.6046 57.5844 35.1937 50.8734 33.6942C46.4821 32.7124 43.0129 30.5374 41.3481 25.9923C40.3123 23.165 38.7709 22.2738 35.8799 23.3998C30.9268 25.3263 25.8312 27.2432 21.4399 30.1433C17.9186 32.4694 14.7262 35.8597 12.5024 39.4669C8.91672 45.2822 12.0379 51.6288 18.7338 52.9511C21.5659 53.5114 24.6515 53.6858 27.474 53.1887C32.7189 52.2646 37.8214 50.5674 43.043 49.4743C48.5072 48.3305 54.0165 46.956 59.5519 46.7075C66.4068 46.3985 70.2638 50.2007 71.3448 56.984C71.6613 58.9723 71.7326 60.9991 71.9518 63.4021C72.5478 62.4917 72.9739 61.8628 73.3795 61.2215C77.4557 54.7843 82.8815 49.7792 89.9103 46.9107C92.8589 45.7065 96.2706 45.381 99.4973 45.2465C100.954 45.186 101.848 44.9389 102.96 44.0683C104.97 42.4933 107.062 40.8153 109.402 39.9187C112.747 38.6389 115.888 41.1064 115.477 44.2221C112.074 39.5589 107.37 40.3828 103.626 45.874C106.689 49.7517 109.632 53.477 112.686 57.3411C113.38 56.189 113.822 55.4544 114.263 54.7211C114.552 54.8735 114.842 55.0259 115.131 55.1784C114.529 56.3153 114.088 58.2267 113.285 58.3929C112.264 58.6057 110.727 57.6349 109.82 56.7534C108.764 55.7276 108.268 54.1471 107.313 52.9855C105.759 51.096 104.028 49.3508 102.042 47.1839V47.1798Z" fill="black"/>
<path d="M149.541 117.704C123.861 115.933 98.2451 114.936 72.959 121.289C80.3208 114.952 140.27 112.056 149.541 117.704Z" fill="black"/>
<path d="M10.91 136.332H0.0871572C0.0405722 135.657 -0.0443771 135.386 0.0282408 135.334C2.28899 133.699 10.3674 133.435 12.2787 135.077C12.7884 135.515 13.0227 136.625 12.9145 137.355C12.7638 138.369 12.1691 139.315 11.6211 140.634C12.8391 140.772 13.8585 140.987 14.8765 140.986C22.274 140.979 29.6714 140.924 37.0688 140.895C38.0485 140.891 39.0309 140.917 40.0092 140.973C43.2797 141.159 43.6798 141.624 43.2948 145.435H55.3055C55.3412 145.775 55.3754 146.114 55.411 146.455C54.8397 146.639 54.2683 146.977 53.6942 146.982C50.8443 147.008 47.9917 147.019 45.1445 146.9C41.8013 146.759 41.3574 146.193 41.5643 142.84C36.0673 142.84 30.5702 142.853 25.0746 142.835C21.245 142.823 17.41 142.877 13.5859 142.704C9.35896 142.513 8.89448 141.66 10.5359 137.852C10.6688 137.545 10.7017 137.193 10.9072 136.332H10.91Z" fill="black"/>
<path d="M48.5502 119.302C33.469 114.949 18.4233 110.421 2.57757 109.948C2.54195 109.618 2.50633 109.287 2.4707 108.956C3.56408 108.77 4.69719 108.298 5.74399 108.445C12.6989 109.423 19.7017 110.222 26.5593 111.691C33.3319 113.141 39.9552 115.294 46.6292 117.189C47.4294 117.417 48.1419 117.961 48.8941 118.358L48.5502 119.302Z" fill="black"/>
<path d="M126.012 131.427C123.389 132.821 89.1821 131.78 87.7188 130.325C100.639 130.224 113.343 129.569 126.012 131.427Z" fill="black"/>
<path d="M147.505 138.411C138.065 138.047 128.623 137.683 118.92 137.31C120.996 135.165 144.413 135.718 147.505 138.411Z" fill="black"/>
<path d="M94.3237 143.201C84.6285 143.764 74.9347 144.327 65.2395 144.891C65.1656 144.75 65.0916 144.608 65.0176 144.467C65.53 144.176 66.0287 143.661 66.5576 143.628C75.5266 143.077 84.4984 142.583 93.4715 142.102C93.7592 142.087 94.062 142.347 94.3566 142.478C94.3456 142.719 94.3347 142.96 94.3237 143.201Z" fill="black"/>
<path d="M122.327 124.74C131.952 124.894 141.517 125.659 151 127.293C150.966 127.658 150.933 128.022 150.899 128.387C141.353 127.521 131.806 126.656 122.26 125.789C122.282 125.439 122.304 125.09 122.327 124.74Z" fill="black"/>
<path d="M0.202078 119.729C9.17655 119.786 18.151 119.805 27.0721 121.002C27.0543 121.37 27.0378 121.738 27.02 122.106C18.062 121.725 9.10394 121.343 0.144531 120.961C0.163713 120.551 0.182895 120.14 0.202078 119.729Z" fill="black"/>
<path d="M46.3654 131.007C38.7762 130.69 31.1869 130.371 23.5977 130.054C23.6182 129.608 23.6374 129.16 23.6579 128.714C31.2417 129.032 38.8269 129.352 46.4106 129.671C46.3956 130.116 46.3805 130.562 46.3654 131.007Z" fill="black"/>
<path d="M76.2215 39.1001C75.245 40.29 74.0844 41.3767 73.3497 42.7014C72.7302 43.8183 72.6043 45.2091 72.2605 46.4788C73.7348 46.3723 75.2321 46.3822 76.6738 46.1047C77.3251 45.9796 77.8651 45.2799 78.9342 44.4859C78.5711 47.3126 76.8718 48.1486 75.2469 48.3378C73.8236 48.5039 71.7393 48.209 70.9709 47.2738C70.2429 46.389 70.4414 44.2394 70.9719 42.9506C71.5859 41.4595 72.9589 40.2544 74.1097 39.0257C74.4644 38.647 75.17 38.5977 75.714 38.3981C75.8828 38.6319 76.0528 38.8663 76.2215 39.1001Z" fill="black"/>
<path d="M89.8178 32.689C90.233 35.8211 89.1958 38.3051 87.4886 40.4925C86.6034 41.6267 85.4717 41.6858 85.0004 39.9707C84.3591 37.6391 86.9665 33.462 89.8165 32.689H89.8178Z" fill="black"/>
<path d="M80.2202 37.1641C79.1871 35.9132 78.4664 35.4229 78.3321 34.8037C77.932 32.965 79.6516 30.33 81.2628 30.3876C82.0219 30.4151 83.4291 31.5699 83.3962 31.6345C82.5371 33.3426 81.5287 34.9739 80.2202 37.1627V37.1641Z" fill="black"/>
</g>
<g opacity="0.55" style="mix-blend-mode:plus-darker">
<path d="M47.859 85.999L55.389 108.787L55.9321 108.608C56.5142 108.415 57.0611 108.12 57.4632 107.657C58.7986 106.121 61.5365 101.893 59.22 94.883C58.5332 92.8046 58.5181 89.7785 58.6857 87.2071C58.8336 84.9455 56.6495 83.0943 54.497 83.8055L47.859 85.999ZM50.8649 96.9461L58.9008 105.858L50.8649 96.9461ZM66.9584 85.3107L60.2702 75.3474V75.3474L66.9584 85.3107ZM67.6294 86.1338L58.1737 78.7453V78.7453L67.6294 86.1338ZM64.9998 89.042L74.1944 96.7529L64.9998 89.042ZM64.1808 90.6068L52.8788 86.5739L64.1808 90.6068ZM63.5324 104.136L75.5323 104.162L63.5324 104.136ZM64.7157 111.297L52.8178 112.86L64.7157 111.297ZM62.2572 133.304L73.8027 136.575V136.575L62.2572 133.304ZM59.0619 137.332L50.5667 128.857L59.0619 137.332ZM48.8427 143.006L46.4186 131.253L48.8427 143.006ZM54.9597 136.685L45.6736 129.084L54.9597 136.685ZM33.5297 140.85L34.082 152.837L33.5297 140.85ZM33.2044 135.691L25.2602 126.697L24.7911 127.111L24.3676 127.572L33.2044 135.691ZM37.2902 132.582L44.2638 142.348L60.4056 130.821L42.7039 121.873L37.2902 132.582ZM39.4731 144.681L29.4967 122.853L28.9765 123.09C28.419 123.345 27.9077 123.699 27.5585 124.202C26.3991 125.876 24.1399 130.377 27.2088 137.092C28.1188 139.083 28.4647 142.089 28.5792 144.664C28.6794 146.928 31.0529 148.529 33.1147 147.587L39.4731 144.681ZM51.624 97.393L47.859 85.999C47.613 86.0802 47.3851 86.1556 46.99 86.2835L50.6873 97.6997L54.3845 109.116C54.8466 108.966 55.1268 108.874 55.389 108.787L51.624 97.393ZM50.6873 97.6997L46.99 86.2835C46.7098 86.3742 47.2421 86.1875 47.891 86.0507C48.1679 85.9924 49.2203 85.7708 50.6087 85.8137C51.2804 85.8344 56.3224 85.9455 59.7989 90.627C63.6921 95.8698 61.6951 101.224 61.2553 102.287C60.619 103.824 59.812 104.824 59.6182 105.064C59.1029 105.705 58.7069 106.033 58.9008 105.858L50.8649 96.9461L42.8291 88.034C42.4221 88.401 41.6499 89.1117 40.9216 90.0166C40.6214 90.3897 39.7488 91.4921 39.08 93.1078C38.6076 94.2489 36.6112 99.6576 40.5306 104.936C44.0332 109.652 49.1268 109.779 49.8678 109.802C51.3256 109.847 52.4652 109.614 52.8394 109.535C53.3482 109.428 53.7558 109.31 53.953 109.251C54.1629 109.188 54.3494 109.127 54.3845 109.116L50.6873 97.6997ZM50.8649 96.9461L58.9008 105.858C67.0326 98.5258 71.0827 96.9951 73.6465 95.2741L66.9584 85.3107L60.2702 75.3474C60.3088 75.3215 52.6307 79.1961 42.8291 88.034L50.8649 96.9461ZM66.9584 85.3107L73.6465 95.2741C73.2122 95.5657 72.4256 96.032 71.2536 96.388C70.7369 96.5449 69.4779 96.8901 67.7923 96.8526C66.5535 96.8251 61.7663 96.4968 58.4791 91.9204L68.2253 84.9196L77.9715 77.9189C74.6247 73.2595 69.7224 72.8896 68.3261 72.8586C66.4831 72.8176 65.0243 73.1974 64.2788 73.4238C62.6492 73.9188 61.2887 74.6636 60.2702 75.3474L66.9584 85.3107ZM68.2253 84.9196L58.4791 91.9204C56.8185 89.6087 56.366 87.2598 56.2725 85.7305C56.1807 84.2271 56.3985 83.0347 56.557 82.3607C56.8655 81.049 57.3302 80.1389 57.4788 79.8537C57.8346 79.1706 58.1395 78.7891 58.1737 78.7453L67.6294 86.1338L77.0851 93.5223C77.5162 92.9705 78.1787 92.0648 78.7631 90.9432C79.0259 90.4387 79.5726 89.3307 79.9196 87.8552C80.1111 87.0407 81.1994 82.4126 77.9715 77.9189L68.2253 84.9196ZM67.6294 86.1338L58.1737 78.7453C58.1785 78.7392 58.1006 78.8382 57.6426 79.3182C57.3128 79.6638 56.5264 80.4709 55.8051 81.3311L64.9998 89.042L74.1944 96.7529C74.2986 96.6287 74.4279 96.4926 75.007 95.8856C75.4578 95.4131 76.2819 94.5502 77.0851 93.5223L67.6294 86.1338ZM64.9998 89.042L55.8051 81.3311C53.9713 83.5178 53.1755 85.7424 52.8788 86.5739L64.1808 90.6068L75.4829 94.6398C75.5839 94.3567 75.231 95.5168 74.1944 96.7529L64.9998 89.042ZM64.1808 90.6068L52.8788 86.5739C51.4008 90.716 51.3052 95.2599 51.3233 97.9323C51.3337 99.4609 51.3971 100.897 51.4483 101.995C51.5077 103.268 51.5331 103.805 51.5324 104.11L63.5324 104.136L75.5323 104.162C75.5346 103.105 75.4639 101.77 75.4222 100.876C75.3723 99.8072 75.3296 98.7823 75.3228 97.7698C75.3158 96.7487 75.3478 95.9071 75.4151 95.2493C75.4884 94.5344 75.5684 94.3999 75.4829 94.6398L64.1808 90.6068ZM63.5324 104.136L51.5324 104.11C51.5296 105.392 51.6739 106.511 51.7998 107.302C51.924 108.082 52.0842 108.858 52.1967 109.403C52.4423 110.592 52.6509 111.588 52.8178 112.86L64.7157 111.297L76.6135 109.735C76.3168 107.475 75.9321 105.669 75.7011 104.55C75.5753 103.941 75.5264 103.686 75.5015 103.529C75.4782 103.383 75.5334 103.659 75.5323 104.162L63.5324 104.136ZM64.7157 111.297L52.8178 112.86C53.4125 117.388 53.0715 120.948 52.5648 123.54C51.9482 126.694 51.4936 127.272 50.7116 130.033L62.2572 133.304L73.8027 136.575C73.7321 136.824 75.2918 132.376 76.119 128.144C77.0562 123.35 77.5888 117.162 76.6135 109.735L64.7157 111.297ZM62.2572 133.304L50.7116 130.033C50.876 129.452 51.0701 128.987 51.2343 128.647C51.3987 128.306 51.5529 128.05 51.6617 127.882C51.8655 127.568 51.9996 127.428 51.9433 127.491C51.8942 127.546 51.7829 127.664 51.5359 127.907C51.4103 128.031 51.2931 128.144 51.1229 128.31C50.9716 128.457 50.7706 128.653 50.5667 128.857L59.0619 137.332L67.5572 145.808C67.8079 145.556 67.819 145.555 68.3628 145.02C68.7484 144.641 69.2903 144.098 69.8546 143.466C70.7493 142.463 72.8207 140.041 73.8027 136.575L62.2572 133.304ZM59.0619 137.332L50.5667 128.857C49.9761 129.449 48.9635 130.114 47.7159 130.686C47.1466 130.948 46.6458 131.136 46.3014 131.253C46.1311 131.31 46.0196 131.344 45.9798 131.355C45.8623 131.389 46.0488 131.33 46.4186 131.253L48.8427 143.006L51.2669 154.759C52.6256 154.478 55.0682 153.719 57.7237 152.5C60.4476 151.251 64.2282 149.144 67.5572 145.808L59.0619 137.332ZM48.8427 143.006L46.4186 131.253C46.6973 131.196 48.3013 130.847 50.3978 131.177C51.5363 131.356 53.511 131.84 55.52 133.306C57.7648 134.943 59.3916 137.337 60.0653 140.091C61.1692 144.603 59.2586 147.995 59.0671 148.358C58.5589 149.32 58.0442 149.947 57.9084 150.112C57.5028 150.604 57.3771 150.643 58.3632 149.786C58.724 149.473 60.3178 148.114 60.9458 147.564C61.6544 146.943 63.1267 145.653 64.2458 144.286L54.9597 136.685L45.6736 129.084C46.0148 128.668 46.0581 128.699 45.1296 129.513C44.1204 130.397 43.8691 130.586 42.6197 131.671C41.9956 132.214 40.4947 133.506 39.3918 134.843C39.0817 135.219 38.4351 136.032 37.8442 137.151C37.5701 137.67 35.6262 141.189 36.7529 145.795C38.3866 152.472 44.1424 154.488 46.6646 154.885C48.9034 155.237 50.7127 154.873 51.2669 154.759L48.8427 143.006ZM54.9597 136.685L64.2458 144.286C64.7997 143.609 66.2125 141.816 66.928 139.182C67.3266 137.715 67.6315 135.534 67.0296 133.019C66.3902 130.346 64.9264 128.143 63.1062 126.569C60.0058 123.888 56.5832 123.593 55.6721 123.522C54.3027 123.415 53.1139 123.526 52.3889 123.615C49.7654 123.937 46.4747 124.911 44.173 125.605C41.2953 126.473 38.8989 127.251 36.4106 127.966C33.6359 128.765 32.7349 128.874 32.9774 128.862L33.5297 140.85L34.082 152.837C37.1292 152.697 40.7395 151.695 43.0465 151.031C45.64 150.285 48.8957 149.249 51.1046 148.582C52.3249 148.214 53.3496 147.918 54.1808 147.703C55.1015 147.465 55.4086 147.425 55.3151 147.436C55.2948 147.438 54.7044 147.519 53.8093 147.45C53.3725 147.416 50.3 147.224 47.4079 144.723C45.6919 143.239 44.2967 141.146 43.6883 138.603C43.1174 136.216 43.4156 134.185 43.7677 132.89C44.39 130.599 45.55 129.236 45.6736 129.084L54.9597 136.685ZM33.5297 140.85L32.9774 128.862C34.8662 128.775 36.9281 129.238 38.7945 130.39C40.5683 131.484 41.7287 132.928 42.4354 134.23L31.8876 139.952L21.3397 145.675C23.4381 149.543 27.9252 153.121 34.082 152.837L33.5297 140.85ZM31.8876 139.952L42.4354 134.23C43.4939 136.181 43.6861 137.968 43.6894 139.03C43.6928 140.119 43.5044 140.934 43.365 141.403L31.8626 137.983L20.3602 134.563C19.7834 136.503 18.822 141.034 21.3397 145.675L31.8876 139.952ZM31.8626 137.983L43.365 141.403C43.0391 142.499 42.5164 143.292 42.0412 143.809L33.2044 135.691L24.3676 127.572C22.5349 129.567 21.1395 131.942 20.3602 134.563L31.8626 137.983ZM33.2044 135.691L41.1487 144.684C41.5698 144.312 42.0903 143.905 42.6604 143.486C42.9367 143.284 43.2047 143.093 43.4661 142.909C43.6636 142.77 44.0377 142.509 44.2638 142.348L37.2902 132.582L30.3166 122.817C29.9366 123.088 27.4488 124.764 25.2602 126.697L33.2044 135.691ZM37.2902 132.582L42.7039 121.873C40.6867 120.853 38.8896 120.662 38.1044 120.608C37.1848 120.545 36.4441 120.601 36.0212 120.645C35.1802 120.733 34.5291 120.892 34.2572 120.961C33.6557 121.114 33.176 121.285 32.9879 121.353C32.5369 121.516 32.1058 121.696 31.8164 121.819C31.182 122.088 30.3748 122.451 29.4967 122.853L34.4849 133.767L39.4731 144.681C40.3279 144.29 40.8854 144.042 41.2015 143.908C41.3873 143.829 41.3278 143.858 41.1391 143.926C41.0822 143.947 40.7064 144.085 40.1807 144.218C39.9466 144.278 39.3265 144.431 38.5093 144.516C38.0982 144.559 37.3676 144.614 36.4564 144.552C35.6795 144.498 33.889 144.309 31.8765 143.292L37.2902 132.582Z" fill="#86FA16"/>
</g>
<g opacity="0.55" style="mix-blend-mode:plus-darker">
<path d="M63.6673 146.31L61.8015 122.382L61.2312 122.427C60.6201 122.474 60.0184 122.631 59.5173 122.984C57.8535 124.157 54.1846 127.607 54.7586 134.968C54.9288 137.15 54.2203 140.092 53.443 142.549C52.7589 144.71 54.4373 147.029 56.6974 146.853L63.6673 146.31ZM80.6781 132.362L79.5579 120.415L80.6781 132.362ZM90.4975 131.68L91.5293 143.635L90.4975 131.68ZM106.459 130.986L106.956 142.976L106.459 130.986ZM124.806 131.643L130.875 121.291L124.806 131.643ZM123.679 132.951L117.238 122.825L123.679 132.951ZM113.269 136.175L114.859 148.069L115.219 148.021L115.576 147.951L113.269 136.175ZM93.8574 137.032L117.072 130.944L116.927 130.391C116.772 129.798 116.511 129.233 116.075 128.803C114.625 127.374 110.577 124.377 103.436 126.249C101.318 126.805 98.2972 126.63 95.7413 126.302C93.4934 126.013 91.509 128.077 92.084 130.269L93.8574 137.032ZM62.7344 134.346L63.6673 146.31C64.8598 146.217 67.4286 145.883 70.1116 145.563C73.0957 145.206 77.0418 144.756 81.7983 144.31L80.6781 132.362L79.5579 120.415C74.5333 120.886 70.3717 121.36 67.2613 121.732C65.7516 121.913 64.3793 122.083 63.453 122.195C62.9627 122.254 62.5754 122.3 62.2712 122.334C62.1209 122.35 62.0053 122.363 61.9186 122.371C61.828 122.38 61.7942 122.383 61.8015 122.382L62.7344 134.346ZM80.6781 132.362L81.7983 144.31C82.9478 144.202 84.1961 144.128 85.867 144.029C87.4795 143.934 89.3817 143.821 91.5293 143.635L90.4975 131.68L89.4658 119.724C87.6762 119.879 86.0653 119.976 84.4507 120.071C82.8945 120.163 81.2016 120.26 79.5579 120.415L80.6781 132.362ZM90.4975 131.68L91.5293 143.635C93.9733 143.424 98.1012 143.343 106.956 142.976L106.459 130.986L105.962 118.997C98.0177 119.326 92.6156 119.452 89.4658 119.724L90.4975 131.68ZM106.459 130.986L106.956 142.976C111.969 142.768 115.956 142.798 118.679 142.927C120.06 142.993 120.978 143.078 121.478 143.143C121.739 143.177 121.728 143.186 121.535 143.142C121.436 143.12 121.171 143.057 120.805 142.937C120.52 142.843 119.71 142.566 118.737 141.995L124.806 131.643L130.875 121.291C129.033 120.211 127.24 119.826 126.824 119.732C126.035 119.554 125.254 119.432 124.578 119.344C123.204 119.165 121.582 119.038 119.819 118.955C116.256 118.785 111.544 118.765 105.962 118.997L106.459 130.986ZM124.806 131.643L118.737 141.995C116.722 140.814 114.544 138.698 113.487 135.489C112.498 132.488 112.939 129.887 113.394 128.382C114.186 125.764 115.678 124.221 115.874 124.01C116.34 123.508 116.72 123.204 116.86 123.095C117.036 122.958 117.164 122.873 117.238 122.825L123.679 132.951L130.12 143.076C130.895 142.583 132.23 141.665 133.457 140.344C133.875 139.894 135.519 138.132 136.366 135.331C136.849 133.735 137.294 131.051 136.281 127.978C135.2 124.697 132.972 122.521 130.875 121.291L124.806 131.643ZM123.679 132.951L117.238 122.825C117.537 122.635 117.628 122.621 117.361 122.732C117.121 122.832 116.714 122.982 116.104 123.169C114.871 123.548 113.162 123.968 110.963 124.399L113.269 136.175L115.576 147.951C120.349 147.016 126.132 145.612 130.12 143.076L123.679 132.951ZM113.269 136.175L111.68 124.281C110.93 124.381 110.265 124.42 109.796 124.42C109.686 124.42 109.601 124.418 109.539 124.415C109.476 124.413 109.448 124.41 109.454 124.411C109.457 124.411 109.515 124.416 109.62 124.433C109.72 124.449 109.91 124.483 110.167 124.549L107.195 136.175L104.222 147.801C107.777 148.71 111.982 148.454 114.859 148.069L113.269 136.175ZM107.195 136.175L110.167 124.549C110.694 124.683 111.72 125.004 112.89 125.752C114.165 126.567 115.22 127.636 116.001 128.826C116.7 129.891 117.007 130.796 117.096 131.066C117.159 131.259 117.203 131.44 117.072 130.944L105.465 133.988L93.8574 137.032C93.8854 137.138 94.0648 137.854 94.2819 138.518C94.5243 139.26 95.0049 140.576 95.9369 141.996C98.2656 145.543 101.598 147.13 104.222 147.801L107.195 136.175Z" fill="#86FA16"/>
</g>
<g opacity="0.55" style="mix-blend-mode:plus-darker">
<path d="M27.7227 59.8003V35.8003H27.1507C26.5377 35.8003 25.9257 35.9093 25.3987 36.2223C23.6487 37.2623 19.7227 40.4173 19.7227 47.8003C19.7227 49.9893 18.7877 52.8673 17.8217 55.2563C16.9717 57.3573 18.4647 59.8003 20.7317 59.8003H27.7227ZM33.7327 46.7542L31.5051 34.9627L33.7327 46.7542ZM57.8644 42.8556L57.0949 30.8803L57.8644 42.8556ZM78.4815 43.5368L77.3176 55.4802L78.4815 43.5368ZM79.3844 43.3265L77.0427 55.0958V55.0958L79.3844 43.3265ZM70.7534 42.5194L68.5628 54.3178L70.7534 42.5194ZM80.959 35.6324L88.5443 44.931V44.931L80.959 35.6324ZM86.5059 15.4327L74.8773 12.4703L86.5059 15.4327ZM86.5593 16.1717L74.7501 14.0407L86.5593 16.1717ZM83.4221 27.1695L71.75 24.3832L83.4221 27.1695ZM84.0138 29.2911L74.03 35.9487L84.0138 29.2911ZM88.1621 33.7844L79.9611 42.5447V42.5447L88.1621 33.7844ZM98.8932 37.4786L95.9648 49.1158L98.8932 37.4786ZM106.117 41.2704L113.303 31.66L106.117 41.2704ZM120.964 41.5693L119.946 29.6126V29.6126L120.964 41.5693ZM132.017 41.1095L131.546 53.1003L132.017 41.1095ZM132.765 45.6598L125.672 35.9804L132.765 45.6598ZM115.712 55.2157L108.722 45.4618V45.4618L115.712 55.2157ZM113.296 59.1996L122.291 67.1426L113.296 59.1996ZM106.696 57.8773L95.7675 52.9203V52.9203L106.696 57.8773ZM111.288 52.0128L119.246 60.9943L111.288 52.0128ZM114.513 49.5755L121.217 59.5283L114.513 49.5755ZM113.107 51.7501L102.029 47.1373L113.107 51.7501ZM113.841 54.1883L124 47.8012L113.841 54.1883ZM131.941 67.6L124.763 77.2166V77.2166L131.941 67.6ZM136.064 71.3261L144.328 62.6247L136.064 71.3261ZM133.355 71.7524L127.334 82.1325L128.431 82.769L129.637 83.162L133.355 71.7524ZM129.548 68.8692L121.89 78.1082L121.93 78.1409L121.969 78.1732L129.548 68.8692ZM121.457 77.7884L132.896 56.6898L132.393 56.4172C131.854 56.125 131.264 55.9292 130.651 55.9531C128.617 56.0333 123.662 56.9357 120.143 63.4261C119.1 65.3505 116.906 67.4349 114.918 69.0747C113.17 70.5166 113.318 73.3758 115.311 74.4563L121.457 77.7884ZM27.7227 47.8003V59.8003C28.3119 59.8003 28.7852 59.7542 28.8443 59.7489C29.0127 59.7336 29.1554 59.7173 29.2486 59.7062C29.4405 59.6833 29.6271 59.6576 29.788 59.6343C30.119 59.5863 30.5333 59.5209 31.0435 59.4354C32.071 59.2632 33.6319 58.9855 35.9603 58.5456L33.7327 46.7542L31.5051 34.9627C29.2723 35.3846 27.8857 35.6299 27.0771 35.7654C26.6693 35.8337 26.4435 35.8682 26.3496 35.8818C26.298 35.8893 26.3259 35.8847 26.405 35.8753C26.4418 35.8709 26.5396 35.8594 26.6737 35.8472C26.7413 35.8411 26.8525 35.8316 26.9918 35.8229C27.1044 35.8159 27.375 35.8003 27.7227 35.8003V47.8003ZM33.7327 46.7542L35.9603 58.5456C45.1571 56.8082 52.1991 55.2444 58.634 54.8309L57.8644 42.8556L57.0949 30.8803C48.7382 31.4173 39.488 33.4546 31.5051 34.9627L33.7327 46.7542ZM57.8644 42.8556L58.634 54.8309C68.4324 54.2012 74.9774 55.2522 77.3176 55.4802L78.4815 43.5368L79.6454 31.5934C78.1033 31.4431 69.286 30.0968 57.0949 30.8803L57.8644 42.8556ZM78.4815 43.5368L77.3176 55.4802C78.4636 55.5919 80.359 55.6595 82.4013 55.1472C82.843 55.0363 84.3382 54.6555 85.9722 53.6292C86.7706 53.1277 88.5015 51.9223 89.8632 49.6861C91.498 47.0014 92.2602 43.3011 90.9695 39.5328C89.8856 36.3684 87.825 34.5759 86.843 33.8319C85.7505 33.0044 84.7495 32.5406 84.2019 32.3104C83.094 31.8448 82.1461 31.6408 81.7261 31.5572L79.3844 43.3265L77.0427 55.0958C76.7721 55.042 75.935 54.8695 74.9034 54.4359C74.3938 54.2218 73.4223 53.7741 72.3511 52.9627C71.3903 52.2349 69.3429 50.4584 68.2645 47.31C66.9792 43.5576 67.7392 39.8731 69.3646 37.2038C70.7169 34.983 72.4313 33.7928 73.2064 33.3059C74.7939 32.3088 76.2157 31.9552 76.5612 31.8686C78.2189 31.4527 79.3641 31.566 79.6454 31.5934L78.4815 43.5368ZM79.3844 43.3265L81.7261 31.5572C78.4992 30.9152 75.9601 30.7014 74.0238 30.6286C73.1368 30.5952 72.3117 30.5917 72.0019 30.5874C71.7966 30.5845 71.7957 30.5821 71.8741 30.5865C71.9275 30.5894 72.3503 30.6108 72.9439 30.721L70.7534 42.5194L68.5628 54.3178C69.4161 54.4762 70.146 54.5277 70.5581 54.5503C70.9952 54.5743 71.4042 54.5813 71.6639 54.585C72.2842 54.5937 72.6092 54.5924 73.1217 54.6116C73.9844 54.6441 75.2417 54.7375 77.0427 55.0958L79.3844 43.3265ZM70.7534 42.5194L72.9439 30.721C73.4863 30.8217 76.0968 31.3 78.5511 33.5422C79.9786 34.8463 81.3311 36.7394 81.9928 39.2073C82.6408 41.6241 82.4124 43.7906 81.9825 45.3673C81.2335 48.115 79.7002 49.7587 79.365 50.1197C78.8222 50.7044 78.3687 51.0564 78.2433 51.1527C77.9739 51.3599 78.1523 51.2058 79.5679 50.4266C80.5653 49.8777 82.2375 48.983 83.634 48.1833C84.9701 47.4181 86.9047 46.2685 88.5443 44.931L80.959 35.6324L73.3737 26.3339C73.3846 26.3249 72.9449 26.6477 71.7065 27.3569C70.5285 28.0316 69.4264 28.6134 67.995 29.4012C66.982 29.9588 65.0775 31.0019 63.6168 32.1248C63.1936 32.4501 62.498 33.0134 61.7773 33.7896C61.2643 34.3422 59.6174 36.1576 58.8275 39.055C58.3773 40.7066 58.1466 42.9425 58.8117 45.4228C59.4904 47.9543 60.8793 49.9052 62.3634 51.2611C64.931 53.6067 67.736 54.1643 68.5628 54.3178L70.7534 42.5194ZM80.959 35.6324L88.5443 44.931C91.6463 42.4005 93.2207 39.2267 94.0818 36.9628C94.9509 34.6774 95.4672 32.2927 95.8327 30.3783C96.6827 25.9254 97.021 22.7662 98.1345 18.3951L86.5059 15.4327L74.8773 12.4703C73.546 17.6961 72.7507 23.2992 72.2584 25.878C71.9527 27.4795 71.7456 28.1781 71.6493 28.4315C71.5448 28.7062 71.9115 27.5267 73.3737 26.3339L80.959 35.6324ZM86.5059 15.4327L98.1345 18.3951C98.2933 17.7718 98.0889 18.7868 97.5377 19.9551C97.419 20.2066 97.202 20.6445 96.8787 21.1628C96.6233 21.5721 95.9376 22.6323 94.7481 23.706C93.7838 24.5763 90.4747 27.2684 85.4308 26.7249C80.0028 26.1401 77.2607 22.3848 76.3732 20.8723C75.4363 19.2756 75.1073 17.8515 74.9981 17.3457C74.855 16.683 74.7988 16.1448 74.7735 15.8461C74.7229 15.2468 74.7314 14.7836 74.7357 14.6077C74.7561 13.7831 74.8561 13.4529 74.7501 14.0407L86.5593 16.1717L98.3686 18.3027C98.4534 17.8329 98.6973 16.4638 98.7284 15.1993C98.7341 14.9685 98.7419 14.4596 98.6883 13.8252C98.6616 13.509 98.6033 12.9558 98.4576 12.281C98.3458 11.763 98.0136 10.3295 97.0728 8.72625C96.1815 7.20728 93.435 3.44845 88.0019 2.86304C82.953 2.31903 79.6383 5.01361 78.6677 5.88967C76.7009 7.6648 75.8423 9.69302 75.8323 9.7141C75.2093 11.0346 74.8891 12.4242 74.8773 12.4703L86.5059 15.4327ZM86.5593 16.1717L74.7501 14.0407C74.5365 15.2242 74.1983 16.3727 73.6522 18.0372C73.1582 19.5429 72.3488 21.8749 71.75 24.3832L83.4221 27.1695L95.0941 29.9558C95.4012 28.6692 95.7922 27.5429 96.4563 25.5187C97.0683 23.6533 97.8457 21.2004 98.3686 18.3027L86.5593 16.1717ZM83.4221 27.1695L71.75 24.3832C70.2915 30.4929 73.3405 34.9147 74.03 35.9487L84.0138 29.2911L93.9976 22.6335C93.8293 22.3811 94.4211 23.1857 94.8508 24.4737C95.4037 26.1307 95.547 28.0584 95.0941 29.9558L83.4221 27.1695ZM84.0138 29.2911L74.03 35.9487C76.0405 38.9636 78.7815 41.4404 79.9611 42.5447L88.1621 33.7844L96.3632 25.0241C95.6009 24.3104 95.0756 23.8162 94.6133 23.335C94.3987 23.1116 94.2441 22.9383 94.1349 22.8075C94.0247 22.6755 93.9879 22.619 93.9976 22.6335L84.0138 29.2911ZM88.1621 33.7844L79.9611 42.5447C83.3469 45.7143 87.1744 47.0135 89.7337 47.7013C91.0205 48.0471 92.3123 48.3166 93.2772 48.5188C94.3402 48.7414 95.1524 48.9113 95.9648 49.1158L98.8932 37.4786L101.822 25.8413C100.458 25.4982 99.158 25.2297 98.1976 25.0286C97.1393 24.8069 96.4966 24.6672 95.9622 24.5236C94.8791 24.2325 95.5174 24.2323 96.3632 25.0241L88.1621 33.7844ZM98.8932 37.4786L95.9648 49.1158C97.3328 49.46 97.6058 49.722 97.3877 49.5782C97.3067 49.5248 97.2649 49.4829 97.3649 49.5702C97.3998 49.6007 97.4412 49.6374 97.5115 49.7001C97.5673 49.7499 97.6794 49.8502 97.7849 49.9431C97.9835 50.1182 98.4058 50.4881 98.931 50.8808L106.117 41.2704L113.303 31.66C113.534 31.8322 114.057 32.2839 113.156 31.497C112.585 30.9981 111.735 30.2909 110.599 29.5414C108.269 28.0052 105.438 26.7514 101.822 25.8413L98.8932 37.4786ZM106.117 41.2704L98.931 50.8808C101.876 53.0829 105.055 53.7537 106.906 54.0215C108.953 54.3178 110.978 54.3285 112.63 54.2747C115.712 54.1742 119.685 53.7217 121.982 53.5261L120.964 41.5693L119.946 29.6126C118.467 29.7385 116.661 29.9214 115.407 30.0364C113.984 30.1671 112.822 30.2556 111.848 30.2874C111.373 30.3029 111.005 30.3025 110.727 30.2931C110.443 30.2835 110.328 30.2667 110.343 30.269C110.345 30.2693 110.625 30.3073 111.079 30.4625C111.526 30.6151 112.359 30.954 113.303 31.66L106.117 41.2704ZM120.964 41.5693L121.982 53.5261C125.633 53.2153 128.782 52.9919 131.546 53.1003L132.017 41.1095L132.487 29.1187C128.04 28.9444 123.504 29.3097 119.946 29.6126L120.964 41.5693ZM132.017 41.1095L131.546 53.1003C131.51 53.0989 130.209 53.0743 128.507 52.275C127.57 51.8345 126.486 51.1465 125.467 50.1036C124.431 49.0441 123.688 47.8486 123.2 46.6587L134.303 42.1047L145.405 37.5507C142.323 30.0369 134.95 29.2153 132.487 29.1187L132.017 41.1095ZM134.303 42.1047L123.2 46.6587C122.21 44.2435 122.394 42.2353 122.496 41.484C122.622 40.5648 122.871 39.8191 123.146 39.2106L134.076 44.1655L145.005 49.1205C145.571 47.8727 146.05 46.382 146.275 44.735C146.477 43.2559 146.63 40.5369 145.405 37.5507L134.303 42.1047ZM134.076 44.1655L123.146 39.2106C123.511 38.4071 124.02 37.6231 124.641 36.9353C125.192 36.3266 125.653 35.9941 125.672 35.9804L132.765 45.6598L139.858 55.3392C141.361 54.2374 143.538 52.3553 145.005 49.1205L134.076 44.1655ZM132.765 45.6598L125.672 35.9804C124.472 36.8596 122.112 38.1239 118.567 39.9315C115.774 41.3553 111.508 43.465 108.722 45.4618L115.712 55.2157L122.702 64.9697C123.621 64.3113 125.734 63.2165 129.468 61.3129C132.449 59.7932 136.763 57.6071 139.858 55.3392L132.765 45.6598ZM115.712 55.2157L108.722 45.4618C105.171 48.0069 103.702 51.3567 103.165 52.6334C103.027 52.9635 102.9 53.2862 102.848 53.4184C102.773 53.6077 102.774 53.5998 102.798 53.547C102.824 53.4869 102.94 53.2222 103.146 52.8617C103.354 52.4993 103.723 51.9118 104.302 51.2566L113.296 59.1996L122.291 67.1426C123.068 66.2631 123.614 65.4171 123.984 64.7698C124.353 64.1243 124.619 63.5483 124.789 63.1582C124.956 62.7753 125.097 62.4188 125.164 62.2487C125.254 62.0214 125.273 61.9737 125.291 61.9304C125.323 61.856 125.161 62.2669 124.79 62.8248C124.382 63.4378 123.712 64.246 122.702 64.9697L115.712 55.2157ZM113.296 59.1996L104.302 51.2566C104.864 50.6192 105.52 50.0677 106.209 49.6404C106.834 49.2528 107.299 49.0844 107.399 49.0494L111.339 60.3842L115.279 71.719C117.623 70.9041 120.15 69.5678 122.291 67.1426L113.296 59.1996ZM111.339 60.3842L107.399 49.0494C107.517 49.0086 107.545 49.0044 107.452 49.029C107.369 49.051 107.238 49.083 107.056 49.1229C106.681 49.2047 106.248 49.2857 105.791 49.3652L107.848 61.1876L109.904 73.01C110.854 72.8449 113.23 72.431 115.279 71.719L111.339 60.3842ZM107.848 61.1876L105.791 49.3652C105.509 49.4142 105.57 49.3998 105.725 49.3814C105.832 49.3688 106.588 49.2737 107.633 49.3648C108.686 49.4566 110.857 49.8035 113.094 51.37C115.564 53.0997 116.909 55.4584 117.509 57.4903L106 60.8881L94.4914 64.286C95.175 66.6014 96.661 69.1623 99.3285 71.03C101.763 72.7345 104.186 73.1553 105.549 73.274C107.752 73.4661 109.896 73.0116 109.904 73.01L107.848 61.1876ZM106 60.8881L117.509 57.4903C118.026 59.2406 117.968 60.6314 117.935 61.1375C117.893 61.7705 117.797 62.2121 117.753 62.3984C117.665 62.7712 117.595 62.8987 117.624 62.8342L106.696 57.8773L95.7675 52.9203C95.242 54.079 94.7407 55.4284 94.4013 56.859C94.2085 57.6717 93.4571 60.7826 94.4914 64.286L106 60.8881ZM106.696 57.8773L117.624 62.8342C117.764 62.5254 118.031 62.0711 119.246 60.9943L111.288 52.0128L103.33 43.0312C100.997 45.0984 97.9096 48.1978 95.7675 52.9203L106.696 57.8773ZM111.288 52.0128L119.246 60.9943C119.389 60.8678 119.725 60.5976 120.213 60.2382C120.663 59.9076 121.061 59.6338 121.217 59.5283L114.513 49.5755L107.81 39.6226C107.217 40.0221 105.049 41.5077 103.33 43.0312L111.288 52.0128ZM114.513 49.5755L121.217 59.5283C121.043 59.6456 120.172 60.2418 118.927 60.7338C118.379 60.9504 116.808 61.5415 114.692 61.5723C112.34 61.6066 107.886 60.8595 104.812 56.6302C102.204 53.0436 102.463 49.3801 102.595 48.2193C102.759 46.7701 103.154 45.6877 103.33 45.2361C103.706 44.2664 104.127 43.5687 104.239 43.3828C104.54 42.8832 104.814 42.517 104.859 42.456C104.954 42.3278 105.029 42.2312 105.059 42.1933C105.123 42.1124 105.216 41.9982 105.086 42.1576C104.95 42.3253 104.688 42.6495 104.381 43.0626C103.86 43.7654 102.821 45.2348 102.029 47.1373L113.107 51.7501L124.185 56.3629C124.002 56.803 123.835 57.0839 123.773 57.1851C123.702 57.3015 123.657 57.3607 123.657 57.3607C123.652 57.3672 123.657 57.3602 123.702 57.3048C123.709 57.2965 123.716 57.2879 123.726 57.2757C123.734 57.2654 123.749 57.2478 123.763 57.2306C123.779 57.2108 123.851 57.1222 123.932 57.0198C123.972 56.9687 124.056 56.8607 124.158 56.7231C124.21 56.6527 124.488 56.2792 124.793 55.7744C124.906 55.5858 125.329 54.886 125.705 53.9147C125.881 53.4623 126.276 52.3792 126.441 50.9295C126.573 49.7682 126.831 46.1043 124.224 42.5174C121.149 38.2879 116.695 37.5406 114.342 37.5749C112.226 37.6057 110.654 38.1969 110.106 38.4138C108.859 38.9064 107.986 39.5037 107.81 39.6226L114.513 49.5755ZM113.107 51.7501L102.029 47.1373C100.158 51.6318 101.4 55.5928 101.869 56.9123C102.462 58.583 103.265 59.9122 103.682 60.5755L113.841 54.1883L124 47.8012C123.889 47.625 124.192 48.0556 124.484 48.8773C124.641 49.3211 124.908 50.1847 124.999 51.3514C125.092 52.5424 125.022 54.3541 124.185 56.3629L113.107 51.7501ZM113.841 54.1883L103.682 60.5755C105.338 63.209 107.7 65.2022 109.105 66.3288C110.78 67.6725 112.696 69.012 114.485 70.2232C118.412 72.8825 121.791 74.9984 124.763 77.2166L131.941 67.6L139.119 57.9833C135.576 55.3392 130.924 52.3703 127.94 50.3499C126.273 49.2212 125.013 48.3221 124.121 47.6069C122.959 46.6746 123.363 46.7887 124 47.8012L113.841 54.1883ZM131.941 67.6L124.763 77.2166C125.044 77.4264 125.432 77.7563 125.977 78.2679C126.242 78.517 126.509 78.7758 126.814 79.0736C127.092 79.3437 127.459 79.7032 127.801 80.0275L136.064 71.3261L144.328 62.6247C143.814 62.1369 141.473 59.7406 139.119 57.9833L131.941 67.6ZM136.064 71.3261L127.801 80.0275C126.93 79.2004 125.268 77.3649 124.509 74.4149C123.63 70.999 124.368 67.6894 125.916 65.1914C127.233 63.0657 128.875 61.9126 129.667 61.4168C130.553 60.8622 131.318 60.5515 131.736 60.3971C132.564 60.0909 133.199 59.9739 133.374 59.9422C133.629 59.8961 133.807 59.8767 133.889 59.8687L135.065 71.8109L136.241 83.7531C136.665 83.7114 138.304 83.5568 140.06 82.9074C140.584 82.7137 141.442 82.3601 142.402 81.759C143.269 81.2166 144.966 80.0133 146.317 77.8335C147.898 75.2815 148.647 71.9139 147.752 68.4359C146.978 65.4238 145.273 63.5223 144.328 62.6247L136.064 71.3261ZM135.065 71.8109L133.889 59.8687C133.48 59.909 133.785 59.8687 134.194 59.8689C134.682 59.8691 135.753 59.9129 137.073 60.3429L133.355 71.7524L129.637 83.162C132.992 84.2551 136.204 83.7568 136.241 83.7531L135.065 71.8109ZM133.355 71.7524L139.376 61.3724C139.524 61.4583 139.563 61.4914 139.462 61.4204C139.37 61.3553 139.218 61.2435 138.988 61.065C138.493 60.6811 137.94 60.2274 137.127 59.5652L129.548 68.8692L121.969 78.1732C123.028 79.0359 125.286 80.9448 127.334 82.1325L133.355 71.7524ZM129.548 68.8692L137.206 59.6302C136.346 58.9176 135.174 57.9249 132.896 56.6898L127.176 67.2391L121.457 77.7884C121.601 77.8664 121.663 77.9046 121.669 77.9084C121.669 77.9084 121.635 77.8869 121.583 77.8496C121.532 77.8134 121.509 77.7938 121.543 77.8211C121.564 77.8382 121.597 77.8652 121.657 77.9146C121.687 77.9392 121.719 77.9657 121.758 77.9988C121.796 78.0301 121.843 78.0688 121.89 78.1082L129.548 68.8692Z" fill="#FF99F8"/>
</g>
<g opacity="0.55" style="mix-blend-mode:plus-darker">
<path d="M37.5828 46.9905L14.2805 41.2457L14.1436 41.801C13.9968 42.3962 13.9562 43.0165 14.1339 43.6031C14.7248 45.5512 16.8483 50.1183 24.0167 51.8855C26.1421 52.4095 28.7126 54.0062 30.8009 55.516C32.6374 56.8442 35.3667 55.9794 35.9094 53.7783L37.5828 46.9905ZM28.4232 37.0615L17.295 32.5712V32.5712L28.4232 37.0615ZM30.2607 35.3722L26.9677 23.8329L26.1122 24.077L25.302 24.4446L30.2607 35.3722ZM40.4535 32.9634L49.9233 25.593L46.9006 21.7093L42.0214 21.0663L40.4535 32.9634ZM48.9384 41.9268L30.4814 26.586L30.1157 27.0259C29.7239 27.4974 29.4165 28.0377 29.3204 28.643C29.0016 30.6536 28.9184 35.6896 34.5963 40.4088C36.2797 41.808 37.8954 44.3666 39.1151 46.6366C40.1876 48.6332 43.0207 49.0466 44.4697 47.3032L48.9384 41.9268ZM25.9316 44.1181L37.5828 46.9905C37.5489 47.1281 37.5668 47.0386 37.7051 46.6066C37.8232 46.238 37.9851 45.7559 38.1828 45.1921C38.5803 44.059 39.0717 42.7408 39.5514 41.5518L28.4232 37.0615L17.295 32.5712C16.141 35.4311 14.7621 39.2923 14.2805 41.2457L25.9316 44.1181ZM28.4232 37.0615L39.5514 41.5518C39.1533 42.5385 38.4569 43.7346 37.3464 44.8032C36.3557 45.7564 35.4688 46.1866 35.2194 46.2998L30.2607 35.3722L25.302 24.4446C23.9413 25.0621 22.2701 26.0038 20.7056 27.5091C19.0214 29.1298 17.9619 30.9183 17.295 32.5712L28.4232 37.0615ZM30.2607 35.3722L33.5537 46.9115C36.541 46.059 38.6897 45.4907 40.1082 45.1574C40.8309 44.9875 41.2153 44.9142 41.3514 44.8917C41.4216 44.8801 41.2974 44.9037 41.0439 44.9248C40.9347 44.9339 40.0642 45.0158 38.8856 44.8605L40.4535 32.9634L42.0214 21.0663C39.829 20.7773 37.8136 21.151 37.4443 21.2119C36.553 21.3589 35.5836 21.5669 34.6182 21.7937C32.6604 22.2538 30.0955 22.9403 26.9677 23.8329L30.2607 35.3722ZM40.4535 32.9634L30.9837 40.3338C27.7349 36.1596 28.4396 31.7309 28.8693 30.0982C29.3061 28.439 30.0055 27.3273 30.1578 27.0832C30.5235 26.4972 30.8364 26.1589 30.4814 26.586L39.7099 34.2564L48.9384 41.9268C49.1215 41.7064 49.8786 40.8145 50.5177 39.7904C50.8068 39.3273 51.6003 38.0253 52.0788 36.2074C52.5503 34.416 53.2445 29.8601 49.9233 25.593L40.4535 32.9634Z" fill="#FF99F8"/>
</g>
<defs>
<clipPath id="clip0_146_391">
<rect width="151" height="147" fill="white"/>
</clipPath>
</defs>
</svg>
