<svg width="163" height="120" viewBox="0 0 163 120" fill="none" xmlns="http://www.w3.org/2000/svg">
<g clip-path="url(#clip0_146_404)">
<path d="M155.128 89.5181C155.756 88.7303 155.536 87.7713 155.538 86.8765C155.552 74.1992 152.367 62.1911 148.195 50.325C143.818 37.8772 134.529 29.6254 124.674 21.788C123.455 20.8173 121.98 20.1345 120.556 19.4731C115.232 16.9968 109.455 16.3685 103.773 15.25C93.1632 13.1569 82.8552 14.2443 72.5725 17.1369C62.5895 19.9478 53.3281 24.3907 44.6678 29.9309C34.1945 36.6284 26.3804 45.6991 22.3984 57.7189C19.7742 65.6498 18.8891 73.8685 18.3425 82.1456C17.9437 88.2265 18.5059 94.2432 19.5466 100.225C20.0524 103.121 21.1126 104.565 23.2368 104.625C27.7109 104.751 32.1811 105.318 36.6611 104.886C40.112 104.553 40.3104 104.431 39.7171 101.02C38.4877 93.9358 38.5713 86.857 39.4214 79.7568C40.2695 72.6566 41.7343 65.7762 45.4459 59.4833C52.1726 48.0704 62.1596 40.6045 74.2533 35.9573C86.95 31.0766 99.3044 30.8159 111.793 37.9823C123.645 44.7829 129.68 54.9897 132.794 67.5503C134.578 74.7361 134.669 82.1281 134.609 89.5979C138.132 90.1387 141.509 89.1485 144.923 89.4073C148.298 89.664 151.708 89.4987 155.126 89.5201M31.1599 107.444C27.8646 107.424 24.5693 107.465 21.274 107.362C19.5272 107.306 18.7238 106.761 18.0079 104.563C14.7808 94.6186 15.2573 84.548 16.0296 74.4346C16.5023 68.2506 17.7473 62.1736 19.5525 56.2327C22.9042 45.205 29.7904 36.5564 38.8748 29.9231C51.9139 20.403 66.5092 14.1859 82.5984 11.7893C91.7392 10.4257 100.713 11.801 109.698 13.3105C118.14 14.7267 125.439 18.2826 131.555 24.3071C134.086 26.8029 136.786 29.1275 139.373 31.5649C145.189 37.0486 148.471 44.0787 151.282 51.3618C155.48 62.2319 157.816 73.4969 158.353 85.151C158.45 87.2266 158.38 89.3917 159.259 91.3739C159.681 92.3251 159.378 93.148 159.022 94.0214C158.24 95.9492 157.09 96.3693 155.989 94.7139C154.914 93.0935 153.534 92.8737 151.988 92.7784C147.782 92.5177 143.573 92.261 139.357 92.6831C137.918 92.8251 136.469 93.0196 135.029 92.9943C132.002 92.9379 130.942 91.7552 131.331 88.7964C132.502 79.8716 131.166 71.1782 128.723 62.6521C127.075 56.9 124.272 51.5213 120.099 47.2709C110.159 37.1419 98.0321 33.265 84.0438 36.3366C73.1386 38.7332 63.7274 44.1468 55.6838 51.7975C48.1867 58.9328 44.0939 67.8401 42.6914 78.1111C41.6876 85.472 41.9172 92.7764 42.7225 100.106C42.8509 101.281 42.9501 102.458 43.0318 103.635C43.2944 107.294 43.2886 107.341 39.4545 107.42C36.6902 107.479 33.9221 107.403 31.1599 107.385V107.444Z" fill="black"/>
<path d="M56.9799 101.942C60.3083 101.962 63.5977 102.082 66.8832 101.973C70.0735 101.868 70.0482 101.701 70.0754 98.5516C70.1377 91.5409 72.0771 85.141 76.0318 79.2565C79.2376 74.4809 84.0521 73.874 88.4368 76.1091C95.8463 79.8868 101.229 85.5961 104.425 93.3013C105.586 96.0986 105.549 96.1473 108.356 95.1532C111.951 93.881 115.433 92.2645 119.162 91.4164C120.551 91.0993 120.781 90.3368 120.66 89.1521C120.421 86.7983 120.228 84.4368 119.979 82.0849C119.267 75.3485 117.694 68.9272 113.996 63.072C109.325 55.6722 103.97 52.8943 95.4008 54.3669C88.2481 55.5963 81.5097 58.0668 75.065 61.508C69.9256 64.2527 66.0079 68.2541 62.5064 72.6602C57.6413 78.7819 55.9373 86.0222 56.3458 93.7468C56.4897 96.4643 55.8945 99.2558 56.978 101.938M53.4629 94.1008C53.4726 92.391 53.5115 90.6811 53.4882 88.9712C53.4084 83.1198 55.2545 77.8735 58.3358 72.9636C64.8485 62.5856 74.5904 56.7615 85.9993 53.334C89.637 52.2407 93.261 51.0308 97.1515 50.9899C104.701 50.9082 110.644 53.8709 114.982 60.0471C119.366 66.2914 122.263 73.0375 122.794 80.7933C123.049 84.5477 123.097 88.4226 124.831 91.9747C125.327 92.992 124.724 93.8343 123.514 93.7585C118.835 93.4647 114.869 95.7874 110.728 97.3241C108.887 98.0069 106.975 98.4718 105.162 99.2558C103.404 100.014 102.421 99.4328 102.211 97.4272C101.396 89.6773 96.5038 84.6877 90.8469 80.1591C86.4506 76.6402 80.4612 76.4651 76.9694 83.5497C74.2441 89.0743 72.6062 94.7253 73.2754 100.975C73.5847 103.876 73.0206 104.317 70.0832 104.71C69.3109 104.811 68.5075 104.86 67.7392 104.771C64.3272 104.374 60.9385 104.413 57.5363 104.916C54.0659 105.426 53.5563 104.94 53.5874 101.602C53.6127 99.1021 53.6185 96.6005 53.6341 94.1008C53.5757 94.1008 53.5193 94.1008 53.4609 94.1008" fill="black"/>
<path d="M83.2255 97.9624C83.5815 98.0479 83.9667 98.2541 84.3246 98.2094C86.3963 97.9604 88.468 97.6939 90.5261 97.3574C94.9788 96.6299 95.3406 95.8206 93.0413 91.8445C92.7807 91.3913 92.4928 90.9497 92.1621 90.549C90.602 88.6465 89.6274 88.5006 87.4293 89.7261C84.206 91.5274 83.2041 94.4531 83.2236 97.9624M88.5653 85.7753C91.4521 86.2616 93.2981 87.4132 94.7668 89.2203C96.4553 91.3018 97.2684 93.8131 98.2546 96.2389C98.8985 97.8165 98.1788 98.5654 96.6984 99.1801C94.191 100.221 91.489 99.7267 88.9524 100.446C87.3301 100.907 85.6746 101.026 84.1398 102.003C82.2801 103.189 80.8776 102.471 80.2396 100.448C78.6192 95.3032 81.8794 88.3469 86.8593 86.2986C87.5985 85.997 88.3338 85.7481 88.5653 85.7772" fill="black"/>
</g>
<g opacity="0.55" style="mix-blend-mode:plus-darker">
<path d="M37.7699 111.049L14.8395 103.964L14.6706 104.51C14.4897 105.096 14.4131 105.713 14.5566 106.309C15.0337 108.288 16.8891 112.97 23.943 115.15C26.0345 115.796 28.5082 117.539 30.5055 119.167C32.262 120.6 35.0368 119.894 35.7061 117.728L37.7699 111.049ZM28.4999 96.8158L16.6244 95.0915L28.4999 96.8158ZM29.3858 85.9555L41.3512 86.8662L29.3858 85.9555ZM35.4939 73.3404L24.8695 67.7618L35.4939 73.3404ZM44.023 60.6873L53.3509 68.2365V68.2365L44.023 60.6873ZM51.1688 48.4802L41.0088 42.0948L51.1688 48.4802ZM58.4168 40.3928L66.9012 48.879V48.879L58.4168 40.3928ZM68.0649 37.6937L72.5242 48.8344L68.0649 37.6937ZM80.6841 35.8106L77.8997 24.1381L80.6841 35.8106ZM94.5369 34.9546L93.7633 46.9297L94.5369 34.9546ZM114.352 36.3946L111.442 48.0366L114.352 36.3946ZM122.698 41.6777L128.12 30.9725L122.698 41.6777ZM126.946 43.3599L132.367 32.6544L126.946 43.3599ZM132.713 51.5796L142.607 44.7888L132.713 51.5796ZM144.444 65.5034L153.76 57.9393V57.9393L144.444 65.5034ZM161.423 81.7955L137.514 83.8891L137.564 84.4589C137.618 85.0696 137.779 85.6698 138.137 86.1674C139.326 87.82 142.811 91.4558 150.166 90.8118C152.347 90.6208 155.296 91.3012 157.76 92.0551C159.927 92.7186 162.23 91.0182 162.033 88.7598L161.423 81.7955ZM26.3047 107.506L37.7699 111.049C38.439 108.883 39.5942 103.92 40.3754 98.54L28.4999 96.8158L16.6244 95.0915C16.311 97.2504 15.9238 99.2964 15.5679 100.95C15.3906 101.774 15.2262 102.476 15.0898 103.023C15.0217 103.297 14.9635 103.519 14.9171 103.689C14.8941 103.774 14.8755 103.841 14.8613 103.89C14.8543 103.914 14.8489 103.933 14.845 103.946C14.8411 103.959 14.8393 103.965 14.8395 103.964L26.3047 107.506ZM28.4999 96.8158L40.3754 98.54C41.0493 93.8984 41.2293 88.4676 41.3512 86.8662L29.3858 85.9555L17.4204 85.0448C17.1578 88.4942 17.1496 91.4742 16.6244 95.0915L28.4999 96.8158ZM29.3858 85.9555L41.3512 86.8662C41.3024 87.5071 41.1598 87.7493 41.2833 87.4393C41.4026 87.1398 41.6461 86.6274 42.1225 85.7845C42.613 84.9168 43.1428 84.055 43.8731 82.8444C44.5447 81.7312 45.3584 80.3664 46.1184 78.9189L35.4939 73.3404L24.8695 67.7618C24.4655 68.5312 23.9699 69.3748 23.3234 70.4466C22.7355 71.4209 21.9382 72.7204 21.2289 73.9753C19.9658 76.2101 17.7838 80.2698 17.4204 85.0448L29.3858 85.9555ZM35.4939 73.3404L46.1184 78.9189C47.6605 75.982 49.8681 72.54 53.3509 68.2365L44.023 60.6873L34.6951 53.1382C30.372 58.4799 27.2484 63.231 24.8695 67.7618L35.4939 73.3404ZM44.023 60.6873L53.3509 68.2365C55.6794 65.3594 57.3135 62.3951 58.5004 60.1312C59.8606 57.5367 60.4723 56.2286 61.3289 54.8656L51.1688 48.4802L41.0088 42.0948C39.4868 44.5165 38.0836 47.3868 37.2445 48.9872C36.2322 50.9181 35.4827 52.165 34.6951 53.1382L44.023 60.6873ZM51.1688 48.4802L61.3289 54.8656C61.6442 54.3639 62.2785 53.561 63.3748 52.4042C64.5432 51.1715 65.4937 50.2862 66.9012 48.879L58.4168 40.3928L49.9325 31.9066C48.4239 33.4148 43.8105 37.6368 41.0088 42.0948L51.1688 48.4802ZM58.4168 40.3928L66.9012 48.879C65.7167 50.0633 64.4673 50.6035 63.7847 50.8209C63.3125 50.9713 63.089 50.9634 63.9076 50.8564C65.1493 50.694 68.6819 50.3723 72.5242 48.8344L68.0649 37.6937L63.6057 26.553C63.1126 26.7503 62.8032 26.7965 60.7957 27.059C59.5905 27.2166 54.1715 27.6685 49.9325 31.9066L58.4168 40.3928ZM68.0649 37.6937L72.5242 48.8344C72.4921 48.8472 72.7303 48.7534 73.3842 48.6401C74.0195 48.53 74.8008 48.4419 75.8045 48.3603C76.3008 48.32 76.8 48.2851 77.3563 48.2465C77.8857 48.2097 78.4948 48.1676 79.086 48.119C80.1331 48.0327 81.811 47.8784 83.4685 47.4831L80.6841 35.8106L77.8997 24.1381C78.1652 24.0747 78.0705 24.1214 77.1167 24.1999C76.7073 24.2336 76.2588 24.2649 75.6925 24.3042C75.153 24.3417 74.5184 24.3858 73.8616 24.4391C71.5029 24.6307 67.4398 25.0183 63.6057 26.553L68.0649 37.6937ZM80.6841 35.8106L83.4685 47.4831C85.3418 47.0362 89.3322 46.6434 93.7633 46.9297L94.5369 34.9546L95.3105 22.9796C89.1317 22.5804 82.6533 23.0041 77.8997 24.1381L80.6841 35.8106ZM94.5369 34.9546L93.7633 46.9297C97.8152 47.1914 102.481 47.4003 105.754 47.5889C107.508 47.6899 108.962 47.789 110.097 47.8953C111.414 48.0187 111.7 48.101 111.442 48.0366L114.352 36.3946L117.261 24.7526C114.506 24.0643 110.257 23.8085 107.135 23.6286C103.238 23.4041 99.4001 23.2438 95.3105 22.9796L94.5369 34.9546ZM114.352 36.3946L111.442 48.0366C110.2 47.7261 109.591 47.0433 110.811 48.0136C111.734 48.7477 114.111 50.7801 117.276 52.3829L122.698 41.6777L128.12 30.9725C127.611 30.7146 127.325 30.4829 125.749 29.2294C124.47 28.212 121.524 25.818 117.261 24.7526L114.352 36.3946ZM122.698 41.6777L117.276 52.3829C118.889 53.2 120.336 53.6961 121.117 53.9631C121.582 54.1222 121.71 54.1648 121.846 54.2151C121.94 54.2502 121.789 54.1994 121.524 54.0653L126.946 43.3599L132.367 32.6544C131.521 32.2261 130.753 31.9212 130.197 31.7149C129.682 31.5238 129.126 31.3376 128.88 31.2532C128.555 31.1424 128.391 31.0833 128.265 31.0339C128.155 30.9906 128.118 30.9714 128.12 30.9725L122.698 41.6777ZM126.946 43.3599L121.524 54.0653C120.381 53.4866 119.762 52.805 119.578 52.5862C119.415 52.3923 119.457 52.3949 119.725 52.8739C120.04 53.4363 120.241 53.857 120.795 54.9213C121.235 55.7671 121.928 57.0715 122.819 58.3705L132.713 51.5796L142.607 44.7888C142.62 44.8087 142.581 44.7533 142.482 44.5791C142.382 44.4043 142.258 44.1746 142.085 43.8419C141.823 43.3382 141.217 42.133 140.664 41.1461C139.666 39.3628 137.205 35.1044 132.367 32.6544L126.946 43.3599ZM132.713 51.5796L122.819 58.3705C123.91 59.9597 126.029 62.3457 127.687 64.2539C129.694 66.5625 132.228 69.4961 135.128 73.0676L144.444 65.5034L153.76 57.9393C150.601 54.0493 147.856 50.8733 145.803 48.5115C144.754 47.304 143.958 46.3922 143.334 45.6576C142.622 44.8183 142.504 44.6388 142.607 44.7888L132.713 51.5796ZM144.444 65.5034L135.128 73.0676C135.824 73.9242 136.015 74.6099 136.678 77.495L148.373 74.8071L160.068 72.1193C159.591 70.0451 158.507 63.7859 153.76 57.9393L144.444 65.5034ZM148.373 74.8071L136.678 77.495C136.877 78.3604 136.99 79.0359 137.063 79.5713C137.141 80.1399 137.178 80.5627 137.242 81.2263L149.187 80.0793L161.132 78.9324C161.016 77.7234 160.826 75.4172 160.068 72.1193L148.373 74.8071ZM149.187 80.0793L137.242 81.2263C137.421 83.088 137.41 82.703 137.514 83.8891L149.468 82.8423L161.423 81.7955C161.354 81.006 161.175 79.3793 161.132 78.9324L149.187 80.0793Z" fill="#FFAE4F"/>
</g>
<g opacity="0.55" style="mix-blend-mode:plus-darker">
<path d="M54.79 110.309L32.9014 100.465L32.6668 100.987C32.4154 101.546 32.2638 102.149 32.3331 102.758C32.5639 104.781 33.8311 109.655 40.5646 112.683C42.561 113.581 44.8023 115.614 46.5849 117.475C48.1525 119.112 50.9929 118.752 51.9227 116.685L54.79 110.309ZM49.6459 89.4506L60.5401 94.4822V94.4822L49.6459 89.4506ZM67.9321 73.1487L75.7003 82.2951V82.2951L67.9321 73.1487ZM76.6252 66.2204L70.9008 55.6738V55.6738L76.6252 66.2204ZM80.8464 63.2556L87.3348 73.3502L80.8464 63.2556ZM89.5529 61.8502L90.6101 73.8036L89.5529 61.8502ZM106.024 60.6742L106.082 72.674L106.024 60.6742ZM109.847 61.3641L114.817 50.4414L109.847 61.3641ZM116.224 65.2748L124.394 56.4857L123.917 56.0416L123.394 55.6519L116.224 65.2748ZM126.863 75.8598L135.108 67.1409L135.02 67.0577L134.93 66.9762L126.863 75.8598ZM143.023 74.7702L126.516 92.1922L126.932 92.5856C127.377 93.0072 127.896 93.349 128.494 93.4843C130.479 93.9329 135.499 94.3429 140.577 88.9835C142.083 87.3945 144.741 85.9484 147.085 84.8786C149.147 83.938 149.744 81.1378 148.098 79.5786L143.023 74.7702ZM43.8457 105.387L54.79 110.309C55.1202 109.575 55.39 108.776 55.482 108.507C55.636 108.058 55.8127 107.521 55.991 106.977C56.3619 105.844 56.7962 104.505 57.3006 103.01C58.3376 99.9363 59.4914 96.7527 60.5401 94.4822L49.6459 89.4506L38.7518 84.419C37.1248 87.9415 35.629 92.1692 34.5601 95.337C34.0115 96.963 33.5288 98.4515 33.1832 99.5064C33.0032 100.056 32.8719 100.453 32.7761 100.733C32.6182 101.194 32.6965 100.921 32.9014 100.465L43.8457 105.387ZM49.6459 89.4506L60.5401 94.4822C60.2684 95.0705 59.94 94.9285 62.7491 92.6781C65.1621 90.7451 69.8357 87.276 75.7003 82.2951L67.9321 73.1487L60.164 64.0024C54.5637 68.7588 51.1032 71.2561 47.7438 73.9474C44.7804 76.3214 41.0414 79.4616 38.7518 84.419L49.6459 89.4506ZM67.9321 73.1487L75.7003 82.2951C81.4485 77.413 81.4965 77.2301 82.3496 76.7671L76.6252 66.2204L70.9008 55.6738C67.1473 57.7111 63.9297 60.8042 60.164 64.0024L67.9321 73.1487ZM76.6252 66.2204L82.3496 76.7671C83.9403 75.9037 85.2691 74.8903 85.938 74.3825C86.8209 73.7123 87.065 73.5236 87.3348 73.3502L80.8464 63.2556L74.3581 53.161C73.0965 53.9719 71.9248 54.8884 71.4274 55.266C70.716 55.806 70.6998 55.7829 70.9008 55.6738L76.6252 66.2204ZM80.8464 63.2556L87.3348 73.3502C86.2913 74.0209 85.4728 74.2352 85.3529 74.2666C85.1981 74.3071 85.2723 74.275 85.754 74.2163C86.2194 74.1596 86.814 74.1065 87.6788 74.0386C88.4682 73.9766 89.5392 73.8983 90.6101 73.8036L89.5529 61.8502L88.4958 49.8969C87.1357 50.0172 84.5499 50.1855 82.851 50.3926C81.8494 50.5146 80.5898 50.7047 79.275 51.0489C77.995 51.384 76.1901 51.9834 74.3581 53.161L80.8464 63.2556ZM89.5529 61.8502L90.6101 73.8036C95.341 73.3852 100.745 72.7002 106.082 72.674L106.024 60.6742L105.965 48.6743C99.2964 48.707 92.0615 49.5816 88.4958 49.8969L89.5529 61.8502ZM106.024 60.6742L106.082 72.674C106.419 72.6724 106.536 72.6824 106.507 72.6802C106.464 72.6769 106.238 72.657 105.897 72.5836C105.529 72.5045 105.193 72.3991 104.926 72.2986C104.734 72.2261 104.616 72.1674 104.878 72.2868L109.847 61.3641L114.817 50.4414C114.276 50.1953 112.865 49.5334 110.941 49.1197C109.176 48.7403 107.485 48.6668 105.965 48.6743L106.024 60.6742ZM109.847 61.3641L104.878 72.2868C106.026 72.8091 107.547 73.7744 109.055 74.8977L116.224 65.2748L123.394 55.6519C121.284 54.0805 118.2 51.9806 114.817 50.4414L109.847 61.3641ZM116.224 65.2748L108.054 74.0638C109.302 75.2239 110.804 76.7809 112.744 78.7785C114.546 80.6342 116.691 82.8318 118.796 84.7434L126.863 75.8598L134.93 66.9762C133.465 65.6458 131.821 63.9738 129.962 62.0588C128.24 60.2859 126.208 58.1714 124.394 56.4857L116.224 65.2748ZM126.863 75.8598L118.618 84.5787C119.567 85.4759 120.638 86.5213 121.976 87.8229C123.289 89.0998 124.799 90.5654 126.516 92.1922L134.77 83.4812L143.023 74.7702C141.426 73.2571 140.009 71.8824 138.71 70.6188C137.436 69.3798 136.211 68.1845 135.108 67.1409L126.863 75.8598Z" fill="#6FFFF6"/>
</g>
<g opacity="0.55" style="mix-blend-mode:plus-darker">
<path d="M27.2374 81.607H3.23744V82.179C3.23744 82.792 3.34644 83.404 3.65944 83.931C4.69944 85.681 7.85444 89.607 15.2374 89.607C17.4264 89.607 20.3044 90.542 22.6934 91.508C24.7944 92.358 27.2374 90.865 27.2374 88.598V81.607ZM12.2155 60.188L23.9189 57.5363L12.2155 60.188ZM12.5045 56.0449L1.25713 51.8618L12.5045 56.0449ZM17.2067 47.231L27.4171 53.5356L17.2067 47.231ZM24.4525 31.2299L35.453 36.0246V36.0246L24.4525 31.2299ZM28.1146 25.0722L19.7538 16.4642L28.1146 25.0722ZM41.6413 16.4191L48.4421 26.3059V26.3059L41.6413 16.4191ZM53.0557 13.7345L53.9976 25.6975L53.0557 13.7345ZM71.4386 12.0431L72.664 23.9804L71.4386 12.0431ZM85.6 15.6082L88.9218 4.07714L85.6 15.6082ZM97.3816 19.1926L100.764 7.67908L97.3816 19.1926ZM107.892 22.3701L105.116 34.0446L107.892 22.3701ZM120.854 25.9165L123.01 14.1118L120.854 25.9165ZM125.783 28.1282L119.446 38.319L125.783 28.1282ZM137.149 38.4332L129.479 47.6625L137.149 38.4332ZM143.261 43.5499L152.694 36.1328L151.841 35.0474L150.763 34.1842L143.261 43.5499ZM146.299 48.2699L156.725 42.3284L156.62 42.1453L156.509 41.9659L146.299 48.2699ZM157.966 44.7593L136.283 55.0467L136.528 55.5635C136.791 56.1173 137.152 56.6235 137.66 56.9655C139.35 58.1008 143.883 60.2955 150.554 57.1308C152.531 56.1925 155.532 55.8036 158.105 55.6524C160.367 55.5197 161.935 53.1237 160.963 51.0755L157.966 44.7593ZM15.2374 81.607H27.2374C27.2374 79.1298 26.7289 69.9384 23.9189 57.5363L12.2155 60.188L0.512183 62.8397C1.71799 68.1616 2.40549 72.7016 2.78922 76.0368C2.98094 77.703 3.0953 79.0552 3.16084 80.039C3.19362 80.5311 3.21356 80.9216 3.22498 81.2047C3.2372 81.5075 3.23744 81.6321 3.23744 81.607H15.2374ZM12.2155 60.188L23.9189 57.5363C23.9643 57.7368 24.0688 58.3981 23.9325 59.3342C23.8128 60.1559 23.5117 60.8734 23.7518 60.2279L12.5045 56.0449L1.25713 51.8618C1.18827 52.047 0.494115 53.7388 0.182929 55.8758C-0.144904 58.1272 -0.0304613 60.4447 0.512183 62.8397L12.2155 60.188ZM12.5045 56.0449L23.7518 60.2279C24.3308 58.6709 25.592 56.4914 27.4171 53.5356L17.2067 47.231L6.99628 40.9265C5.40752 43.4995 2.80645 47.696 1.25713 51.8618L12.5045 56.0449ZM17.2067 47.231L27.4171 53.5356C28.8856 51.1573 30.1544 48.3689 31.3066 45.7174C31.9085 44.3321 32.5546 42.8028 33.2274 41.2161C33.9093 39.6078 34.6403 37.889 35.453 36.0246L24.4525 31.2299L13.452 26.4352C12.589 28.4152 11.8191 30.2257 11.1315 31.8473C10.4349 33.4904 9.84289 34.8915 9.29496 36.1524C8.14734 38.7934 7.46886 40.1611 6.99628 40.9265L17.2067 47.231ZM24.4525 31.2299L35.453 36.0246C36.0457 34.6646 36.4466 33.9073 36.683 33.5132C36.9095 33.1355 36.8557 33.3108 36.4754 33.6802L28.1146 25.0722L19.7538 16.4642C16.8664 19.2687 15.0001 22.8834 13.452 26.4352L24.4525 31.2299ZM28.1146 25.0722L36.4754 33.6802C36.9877 33.1825 37.8717 32.5512 40.1178 31.2837C42.0645 30.1851 45.2765 28.4834 48.4421 26.3059L41.6413 16.4191L34.8406 6.53222C32.8163 7.92463 30.9829 8.88089 28.3226 10.3822C25.9618 11.7144 22.6773 13.6247 19.7538 16.4642L28.1146 25.0722ZM41.6413 16.4191L48.4421 26.3059C48.1167 26.5297 48.1581 26.3658 49.2311 26.171C50.4315 25.953 51.6665 25.8811 53.9976 25.6975L53.0557 13.7345L52.1137 1.77157C50.5369 1.89572 47.6699 2.06194 44.9427 2.55723C42.088 3.07565 38.3762 4.10019 34.8406 6.53223L41.6413 16.4191ZM53.0557 13.7345L53.9976 25.6975C59.3958 25.2725 67.7212 24.4877 72.664 23.9804L71.4386 12.0431L70.2133 0.105818C65.3904 0.60088 57.2645 1.366 52.1137 1.77157L53.0557 13.7345ZM71.4386 12.0431L72.664 23.9804C71.9765 24.0509 72.0585 23.836 74.19 24.503C75.1689 24.8094 76.1676 25.1594 77.6037 25.6487C78.9486 26.1069 80.541 26.6388 82.2782 27.1393L85.6 15.6082L88.9218 4.07714C85.7689 3.1689 85.054 2.75518 81.3582 1.59854C78.8176 0.803408 74.7241 -0.357215 70.2133 0.105818L71.4386 12.0431ZM85.6 15.6082L82.2782 27.1393C83.6842 27.5443 85.4092 28.0792 87.4624 28.7161C89.4648 29.3371 91.7198 30.0364 93.9993 30.7061L97.3816 19.1926L100.764 7.67908C98.6839 7.06808 96.5967 6.42128 94.5724 5.79341C92.599 5.1813 90.6129 4.56432 88.9218 4.07714L85.6 15.6082ZM97.3816 19.1926L93.9993 30.7061C95.5501 31.1616 100.658 32.9846 105.116 34.0446L107.892 22.3701L110.668 10.6956C106.558 9.71827 105.295 9.01012 100.764 7.67908L97.3816 19.1926ZM107.892 22.3701L105.116 34.0446C108.312 34.8047 110.459 35.4564 112.295 36.0236C114.024 36.5579 116.23 37.2704 118.698 37.7212L120.854 25.9165L123.01 14.1118C122.245 13.972 121.538 13.7598 119.379 13.0928C117.326 12.4587 114.608 11.6324 110.668 10.6956L107.892 22.3701ZM120.854 25.9165L118.698 37.7212C118.213 37.6326 118.019 37.5123 118.215 37.6063C118.302 37.6478 118.443 37.7204 118.656 37.8427C118.872 37.9664 119.122 38.1174 119.446 38.319L125.783 28.1282L132.119 17.9374C130.636 17.0155 127.256 14.8873 123.01 14.1118L120.854 25.9165ZM125.783 28.1282L119.446 38.319C119.444 38.3173 119.892 38.6513 122.022 40.7588C123.795 42.5132 126.294 45.0155 129.479 47.6625L137.149 38.4332L144.818 29.204C142.552 27.321 140.757 25.5343 138.904 23.7004C137.408 22.2197 134.899 19.6661 132.119 17.9374L125.783 28.1282ZM137.149 38.4332L129.479 47.6625C132.236 49.9533 134.751 52.1087 135.759 52.9155L143.261 43.5499L150.763 34.1842C149.906 33.4972 148.231 32.0405 144.818 29.204L137.149 38.4332ZM143.261 43.5499L133.828 50.9669C134.195 51.4347 134.515 51.9161 134.84 52.4529C135.01 52.7338 135.168 53.0074 135.367 53.353C135.534 53.6431 135.81 54.1234 136.088 54.5738L146.299 48.2699L156.509 41.9659C156.492 41.9382 154.77 38.7728 152.694 36.1328L143.261 43.5499ZM146.299 48.2699L135.873 54.2113C135.883 54.2296 135.917 54.2901 135.986 54.4282C136.061 54.5803 136.143 54.7508 136.283 55.0467L147.125 49.903L157.966 44.7593C157.731 44.2641 157.289 43.3189 156.725 42.3284L146.299 48.2699Z" fill="#B38FFF"/>
</g>
<g opacity="0.55" style="mix-blend-mode:plus-darker">
<path d="M81.8145 105.598H57.8145V106.17C57.8145 106.783 57.9235 107.395 58.2365 107.922C59.2765 109.672 62.4315 113.598 69.8145 113.598C72.0035 113.598 74.8815 114.533 77.2705 115.499C79.3715 116.349 81.8145 114.856 81.8145 112.589V105.598ZM70.9694 103.442L81.2251 109.673H81.2251L70.9694 103.442ZM76.937 98.0225L68.7035 89.2927L76.937 98.0225ZM84.1238 92.2011L90.3322 102.47L84.1238 92.2011ZM102.663 82.9624L88.8453 102.586L89.3129 102.915C89.8142 103.268 90.3773 103.531 90.9884 103.579C93.018 103.736 98.0445 103.417 102.295 97.3799C103.555 95.5901 105.977 93.7752 108.142 92.378C110.047 91.1496 110.233 88.2925 108.379 86.9873L102.663 82.9624ZM69.8145 105.598H81.8145C81.8145 106.341 81.7448 106.946 81.687 107.337C81.6264 107.748 81.5541 108.088 81.4959 108.334C81.3826 108.812 81.2624 109.184 81.1913 109.393C81.0487 109.812 80.9171 110.115 80.8686 110.226C80.7599 110.473 80.6906 110.599 80.72 110.543C80.7607 110.466 80.9163 110.181 81.2251 109.673L70.9694 103.442L60.7137 97.2119C60.2354 97.9992 59.8136 98.7341 59.4735 99.3814C59.3126 99.6878 59.1022 100.103 58.8998 100.563C58.8045 100.779 58.6381 101.17 58.4723 101.657C58.4677 101.671 57.8145 103.388 57.8145 105.598H69.8145ZM70.9694 103.442L81.2251 109.673C80.7732 110.417 80.3272 110.645 81.0409 110.092C81.2106 109.961 81.4018 109.817 81.6747 109.613C81.9236 109.427 82.2624 109.175 82.6046 108.913C83.3017 108.379 84.2143 107.654 85.1705 106.752L76.937 98.0225L68.7035 89.2927C68.6005 89.3899 68.4146 89.5505 68.0156 89.856C67.8097 90.0136 67.6009 90.1693 67.3082 90.388C67.0394 90.5889 66.6945 90.8469 66.3393 91.1222C64.953 92.1966 62.5825 94.1359 60.7137 97.2119L70.9694 103.442ZM76.937 98.0225L85.1705 106.752C87.657 104.407 89.1669 103.175 90.3322 102.47L84.1238 92.2011L77.9154 81.9319C74.4047 84.0544 71.3238 86.8214 68.7035 89.2927L76.937 98.0225ZM84.1238 92.2011L90.3322 102.47C90.5044 102.366 90.0991 102.625 89.5146 102.855C88.9324 103.084 88.5365 103.149 88.5182 103.152L86.6676 91.2955L84.8171 79.439C81.5404 79.9505 79.4768 80.988 77.9154 81.9319L84.1238 92.2011ZM86.6676 91.2955L88.5182 103.152C88.4936 103.156 88.5791 103.142 88.7919 103.125C88.9921 103.108 89.2411 103.093 89.5229 103.082C90.1128 103.06 90.6534 103.065 90.9791 103.081L91.5428 91.0938L92.1064 79.107C90.1626 79.0156 87.205 79.0663 84.8171 79.439L86.6676 91.2955ZM91.5428 91.0938L90.9791 103.081C91.2867 103.095 91.0616 103.106 90.5593 102.992C90.2846 102.93 89.94 102.835 89.5504 102.689C89.154 102.54 88.794 102.371 88.4808 102.201L94.2092 91.6564L99.9375 81.112C97.1478 79.5964 94.4277 79.2161 92.1064 79.107L91.5428 91.0938ZM94.2092 91.6564L88.4808 102.201C88.1661 102.03 87.9233 101.872 87.7666 101.763C87.622 101.663 87.5401 101.597 87.5854 101.632C87.6089 101.651 87.6372 101.673 87.707 101.728C87.7661 101.775 87.8607 101.85 87.9636 101.93C88.1757 102.096 88.4791 102.328 88.8453 102.586L95.754 92.774L102.663 82.9624C102.735 83.0131 102.767 83.0397 102.721 83.0037C102.695 82.9833 102.664 82.9586 102.599 82.9072C102.544 82.8642 102.451 82.7898 102.352 82.7132C101.966 82.4114 101.103 81.7449 99.9375 81.112L94.2092 91.6564Z" fill="#FFEE00"/>
</g>
<defs>
<clipPath id="clip0_146_404">
<rect width="144" height="96.2127" fill="white" transform="translate(15.4629 11.231)"/>
</clipPath>
</defs>
</svg>
