<svg width="42" height="63" viewBox="0 0 42 63" fill="none" xmlns="http://www.w3.org/2000/svg">
<path d="M1 31.3618C2.76123 28.6672 5.38716 20.4247 4.94959 8.6698C4.80134 4.68741 3.90876 2.17915 3.4144 1.65592C-1.72304 -3.78153 6.0098 25.5164 7.15353 55.1465C7.35921 60.4748 6.83547 61.6437 6.20364 61.9306C5.57181 62.2174 4.60156 61.5907 3.80265 60.5009C2.04412 58.1019 1.9624 54.5844 2.6827 50.9848C4.28251 42.9898 9.48864 39.4278 13.4417 36.9359C17.3352 34.4814 23.0119 35.1459 28.0535 34.1892C32.5082 33.3438 34.7166 27.955 38.3961 24.5107C39.2415 23.4891 39.8855 22.1986 40.2917 22.2232C40.6978 22.2478 40.8467 23.6266 41 25.0471" stroke="#14141F" stroke-width="2" stroke-linecap="round"/>
</svg>
