<svg width="85" height="74" viewBox="0 0 85 74" fill="none" xmlns="http://www.w3.org/2000/svg">
<g filter="url(#filter0_ddd_126_207)">
<rect x="2.5" y="2" width="80" height="66" rx="8" fill="white"/>
<rect x="2" y="1.5" width="81" height="67" rx="8.5" stroke="#EAEAEA"/>
</g>
<rect x="5.5" y="11" width="74" height="54" rx="4" fill="url(#paint0_linear_126_207)"/>
<circle cx="9.5" cy="7" r="2" fill="url(#paint1_linear_126_207)"/>
<circle cx="15.5" cy="7" r="2" fill="#FEBC2E"/>
<circle cx="21.5" cy="7" r="2" fill="#28C840"/>
<path d="M19.0245 21.4635C19.1741 21.0029 19.8259 21.0029 19.9755 21.4635L20.5103 23.1094C20.5773 23.3154 20.7692 23.4549 20.9858 23.4549H22.7164C23.2008 23.4549 23.4022 24.0747 23.0103 24.3594L21.6102 25.3766C21.435 25.504 21.3617 25.7297 21.4286 25.9357L21.9634 27.5816C22.1131 28.0422 21.5858 28.4253 21.194 28.1406L19.7939 27.1234C19.6186 26.996 19.3814 26.996 19.2061 27.1234L17.806 28.1406C17.4142 28.4253 16.8869 28.0422 17.0366 27.5816L17.5714 25.9357C17.6383 25.7296 17.565 25.504 17.3898 25.3766L15.9897 24.3594C15.5978 24.0747 15.7992 23.4549 16.2836 23.4549H18.0142C18.2308 23.4549 18.4227 23.3154 18.4897 23.1094L19.0245 21.4635Z" fill="white"/>
<path d="M27.0245 32.4635C27.1741 32.0029 27.8259 32.0029 27.9755 32.4635L28.2858 33.4184C28.3527 33.6245 28.5447 33.7639 28.7613 33.7639H29.7654C30.2497 33.7639 30.4511 34.3837 30.0593 34.6684L29.247 35.2586C29.0717 35.3859 28.9984 35.6116 29.0653 35.8176L29.3756 36.7725C29.5253 37.2332 28.998 37.6163 28.6062 37.3316L27.7939 36.7414C27.6186 36.6141 27.3814 36.6141 27.2061 36.7414L26.3938 37.3316C26.002 37.6163 25.4747 37.2332 25.6244 36.7725L25.9347 35.8176C26.0016 35.6116 25.9283 35.3859 25.753 35.2586L24.9407 34.6684C24.5489 34.3837 24.7503 33.7639 25.2346 33.7639H26.2387C26.4553 33.7639 26.6473 33.6245 26.7142 33.4184L27.0245 32.4635Z" fill="white"/>
<path d="M41.0245 19.4635C41.1741 19.0029 41.8259 19.0029 41.9755 19.4635L42.0613 19.7275C42.1282 19.9335 42.3202 20.0729 42.5368 20.0729H42.8143C43.2987 20.0729 43.5001 20.6928 43.1082 20.9775L42.8837 21.1406C42.7085 21.2679 42.6351 21.4936 42.7021 21.6996L42.7878 21.9635C42.9375 22.4242 42.4103 22.8072 42.0184 22.5225L41.7939 22.3594C41.6186 22.2321 41.3814 22.2321 41.2061 22.3594L40.9816 22.5225C40.5897 22.8072 40.0625 22.4242 40.2122 21.9635L40.2979 21.6996C40.3649 21.4936 40.2915 21.2679 40.1163 21.1406L39.8918 20.9775C39.4999 20.6928 39.7013 20.0729 40.1857 20.0729H40.4632C40.6798 20.0729 40.8718 19.9335 40.9387 19.7275L41.0245 19.4635Z" fill="white"/>
<path d="M61.0245 38.4635C61.1741 38.0029 61.8259 38.0029 61.9755 38.4635L62.2858 39.4184C62.3527 39.6245 62.5447 39.7639 62.7613 39.7639H63.7654C64.2497 39.7639 64.4511 40.3837 64.0593 40.6684L63.247 41.2586C63.0717 41.3859 62.9984 41.6116 63.0653 41.8176L63.3756 42.7725C63.5253 43.2332 62.998 43.6163 62.6062 43.3316L61.7939 42.7414C61.6186 42.6141 61.3814 42.6141 61.2061 42.7414L60.3938 43.3316C60.002 43.6163 59.4747 43.2332 59.6244 42.7725L59.9347 41.8176C60.0016 41.6116 59.9283 41.3859 59.753 41.2586L58.9407 40.6684C58.5489 40.3837 58.7503 39.7639 59.2346 39.7639H60.2387C60.4553 39.7639 60.6473 39.6245 60.7142 39.4184L61.0245 38.4635Z" fill="white"/>
<path d="M46.0245 33.4635C46.1741 33.0029 46.8259 33.0029 46.9755 33.4635L47.0613 33.7275C47.1282 33.9335 47.3202 34.0729 47.5368 34.0729H47.8143C48.2987 34.0729 48.5001 34.6928 48.1082 34.9775L47.8837 35.1406C47.7085 35.2679 47.6351 35.4936 47.7021 35.6996L47.7878 35.9635C47.9375 36.4242 47.4103 36.8072 47.0184 36.5225L46.7939 36.3594C46.6186 36.2321 46.3814 36.2321 46.2061 36.3594L45.9816 36.5225C45.5897 36.8072 45.0625 36.4242 45.2122 35.9635L45.2979 35.6996C45.3649 35.4936 45.2915 35.2679 45.1163 35.1406L44.8918 34.9775C44.4999 34.6928 44.7013 34.0729 45.1857 34.0729H45.4632C45.6798 34.0729 45.8718 33.9335 45.9387 33.7275L46.0245 33.4635Z" fill="white"/>
<path d="M54.0245 20.4635C54.1741 20.0029 54.8259 20.0029 54.9755 20.4635L55.2858 21.4184C55.3527 21.6245 55.5447 21.7639 55.7613 21.7639H56.7654C57.2497 21.7639 57.4511 22.3837 57.0593 22.6684L56.247 23.2586C56.0717 23.3859 55.9984 23.6116 56.0653 23.8176L56.3756 24.7725C56.5253 25.2332 55.998 25.6163 55.6062 25.3316L54.7939 24.7414C54.6186 24.6141 54.3814 24.6141 54.2061 24.7414L53.3938 25.3316C53.002 25.6163 52.4747 25.2332 52.6244 24.7725L52.9347 23.8176C53.0016 23.6116 52.9283 23.3859 52.753 23.2586L51.9407 22.6684C51.5489 22.3837 51.7503 21.7639 52.2346 21.7639H53.2387C53.4553 21.7639 53.6473 21.6245 53.7142 21.4184L54.0245 20.4635Z" fill="white"/>
<path d="M42.0245 43.4635C42.1741 43.0029 42.8259 43.0029 42.9755 43.4635L43.2858 44.4184C43.3527 44.6245 43.5447 44.7639 43.7613 44.7639H44.7654C45.2497 44.7639 45.4511 45.3837 45.0593 45.6684L44.247 46.2586C44.0717 46.3859 43.9984 46.6116 44.0653 46.8176L44.3756 47.7725C44.5253 48.2332 43.998 48.6163 43.6062 48.3316L42.7939 47.7414C42.6186 47.6141 42.3814 47.6141 42.2061 47.7414L41.3938 48.3316C41.002 48.6163 40.4747 48.2332 40.6244 47.7725L40.9347 46.8176C41.0016 46.6116 40.9283 46.3859 40.753 46.2586L39.9407 45.6684C39.5489 45.3837 39.7503 44.7639 40.2346 44.7639H41.2387C41.4553 44.7639 41.6473 44.6245 41.7142 44.4184L42.0245 43.4635Z" fill="white"/>
<path d="M31.0245 53.4635C31.1741 53.0029 31.8259 53.0029 31.9755 53.4635L32.2858 54.4184C32.3527 54.6245 32.5447 54.7639 32.7613 54.7639H33.7654C34.2497 54.7639 34.4511 55.3837 34.0593 55.6684L33.247 56.2586C33.0717 56.3859 32.9984 56.6116 33.0653 56.8176L33.3756 57.7725C33.5253 58.2332 32.998 58.6163 32.6062 58.3316L31.7939 57.7414C31.6186 57.6141 31.3814 57.6141 31.2061 57.7414L30.3938 58.3316C30.002 58.6163 29.4747 58.2332 29.6244 57.7725L29.9347 56.8176C30.0016 56.6116 29.9283 56.3859 29.753 56.2586L28.9407 55.6684C28.5489 55.3837 28.7503 54.7639 29.2346 54.7639H30.2387C30.4553 54.7639 30.6473 54.6245 30.7142 54.4184L31.0245 53.4635Z" fill="white"/>
<path d="M13.0245 39.4635C13.1741 39.0029 13.8259 39.0029 13.9755 39.4635L14.0613 39.7275C14.1282 39.9335 14.3202 40.0729 14.5368 40.0729H14.8143C15.2987 40.0729 15.5001 40.6928 15.1082 40.9775L14.8837 41.1406C14.7085 41.2679 14.6351 41.4936 14.7021 41.6996L14.7878 41.9635C14.9375 42.4242 14.4103 42.8072 14.0184 42.5225L13.7939 42.3594C13.6186 42.2321 13.3814 42.2321 13.2061 42.3594L12.9816 42.5225C12.5897 42.8072 12.0625 42.4242 12.2122 41.9635L12.2979 41.6996C12.3649 41.4936 12.2915 41.2679 12.1163 41.1406L11.8918 40.9775C11.4999 40.6928 11.7013 40.0729 12.1857 40.0729H12.4632C12.6798 40.0729 12.8718 39.9335 12.9387 39.7275L13.0245 39.4635Z" fill="white"/>
<path d="M66.0245 23.4635C66.1741 23.0029 66.8259 23.0029 66.9755 23.4635L67.0613 23.7275C67.1282 23.9335 67.3202 24.0729 67.5368 24.0729H67.8143C68.2987 24.0729 68.5001 24.6928 68.1082 24.9775L67.8837 25.1406C67.7085 25.2679 67.6351 25.4936 67.7021 25.6996L67.7878 25.9635C67.9375 26.4242 67.4103 26.8072 67.0184 26.5225L66.7939 26.3594C66.6186 26.2321 66.3814 26.2321 66.2061 26.3594L65.9816 26.5225C65.5897 26.8072 65.0625 26.4242 65.2122 25.9635L65.2979 25.6996C65.3649 25.4936 65.2915 25.2679 65.1163 25.1406L64.8918 24.9775C64.4999 24.6928 64.7013 24.0729 65.1857 24.0729H65.4632C65.6798 24.0729 65.8718 23.9335 65.9387 23.7275L66.0245 23.4635Z" fill="white"/>
<path d="M71.0245 48.4635C71.1741 48.0029 71.8259 48.0029 71.9755 48.4635L72.0613 48.7275C72.1282 48.9335 72.3202 49.0729 72.5368 49.0729H72.8143C73.2987 49.0729 73.5001 49.6928 73.1082 49.9775L72.8837 50.1406C72.7085 50.2679 72.6351 50.4936 72.7021 50.6996L72.7878 50.9635C72.9375 51.4242 72.4103 51.8072 72.0184 51.5225L71.7939 51.3594C71.6186 51.2321 71.3814 51.2321 71.2061 51.3594L70.9816 51.5225C70.5897 51.8072 70.0625 51.4242 70.2122 50.9635L70.2979 50.6996C70.3649 50.4936 70.2915 50.2679 70.1163 50.1406L69.8918 49.9775C69.4999 49.6928 69.7013 49.0729 70.1857 49.0729H70.4632C70.6798 49.0729 70.8718 48.9335 70.9387 48.7275L71.0245 48.4635Z" fill="white"/>
<path d="M16.0245 51.4635C16.1741 51.0029 16.8259 51.0029 16.9755 51.4635L17.2858 52.4184C17.3527 52.6245 17.5447 52.7639 17.7613 52.7639H18.7654C19.2497 52.7639 19.4511 53.3837 19.0593 53.6684L18.247 54.2586C18.0717 54.3859 17.9984 54.6116 18.0653 54.8176L18.3756 55.7725C18.5253 56.2332 17.998 56.6163 17.6062 56.3316L16.7939 55.7414C16.6186 55.6141 16.3814 55.6141 16.2061 55.7414L15.3938 56.3316C15.002 56.6163 14.4747 56.2332 14.6244 55.7725L14.9347 54.8176C15.0016 54.6116 14.9283 54.3859 14.753 54.2586L13.9407 53.6684C13.5489 53.3837 13.7503 52.7639 14.2346 52.7639H15.2387C15.4553 52.7639 15.6473 52.6245 15.7142 52.4184L16.0245 51.4635Z" fill="white"/>
<path d="M58.0245 51.4635C58.1741 51.0029 58.8259 51.0029 58.9755 51.4635L59.2858 52.4184C59.3527 52.6245 59.5447 52.7639 59.7613 52.7639H60.7654C61.2497 52.7639 61.4511 53.3837 61.0593 53.6684L60.247 54.2586C60.0717 54.3859 59.9984 54.6116 60.0653 54.8176L60.3756 55.7725C60.5253 56.2332 59.998 56.6163 59.6062 56.3316L58.7939 55.7414C58.6186 55.6141 58.3814 55.6141 58.2061 55.7414L57.3938 56.3316C57.002 56.6163 56.4747 56.2332 56.6244 55.7725L56.9347 54.8176C57.0016 54.6116 56.9283 54.3859 56.753 54.2586L55.9407 53.6684C55.5489 53.3837 55.7503 52.7639 56.2346 52.7639H57.2387C57.4553 52.7639 57.6473 52.6245 57.7142 52.4184L58.0245 51.4635Z" fill="white"/>
<defs>
<filter id="filter0_ddd_126_207" x="0" y="0" width="85" height="73.5" filterUnits="userSpaceOnUse" color-interpolation-filters="sRGB">
<feFlood flood-opacity="0" result="BackgroundImageFix"/>
<feColorMatrix in="SourceAlpha" type="matrix" values="0 0 0 0 0 0 0 0 0 0 0 0 0 0 0 0 0 0 127 0" result="hardAlpha"/>
<feOffset/>
<feGaussianBlur stdDeviation="0.5"/>
<feComposite in2="hardAlpha" operator="out"/>
<feColorMatrix type="matrix" values="0 0 0 0 0 0 0 0 0 0 0 0 0 0 0 0 0 0 0.06 0"/>
<feBlend mode="normal" in2="BackgroundImageFix" result="effect1_dropShadow_126_207"/>
<feColorMatrix in="SourceAlpha" type="matrix" values="0 0 0 0 0 0 0 0 0 0 0 0 0 0 0 0 0 0 127 0" result="hardAlpha"/>
<feMorphology radius="0.5" operator="erode" in="SourceAlpha" result="effect2_dropShadow_126_207"/>
<feOffset dy="1"/>
<feGaussianBlur stdDeviation="0.5"/>
<feComposite in2="hardAlpha" operator="out"/>
<feColorMatrix type="matrix" values="0 0 0 0 0 0 0 0 0 0 0 0 0 0 0 0 0 0 0.06 0"/>
<feBlend mode="normal" in2="effect1_dropShadow_126_207" result="effect2_dropShadow_126_207"/>
<feColorMatrix in="SourceAlpha" type="matrix" values="0 0 0 0 0 0 0 0 0 0 0 0 0 0 0 0 0 0 127 0" result="hardAlpha"/>
<feMorphology radius="1.5" operator="erode" in="SourceAlpha" result="effect3_dropShadow_126_207"/>
<feOffset dy="3"/>
<feGaussianBlur stdDeviation="1.5"/>
<feComposite in2="hardAlpha" operator="out"/>
<feColorMatrix type="matrix" values="0 0 0 0 0 0 0 0 0 0 0 0 0 0 0 0 0 0 0.06 0"/>
<feBlend mode="normal" in2="effect2_dropShadow_126_207" result="effect3_dropShadow_126_207"/>
<feBlend mode="normal" in="SourceGraphic" in2="effect3_dropShadow_126_207" result="shape"/>
</filter>
<linearGradient id="paint0_linear_126_207" x1="42.5" y1="11" x2="42.5" y2="65" gradientUnits="userSpaceOnUse">
<stop stop-color="#0039CA"/>
<stop offset="1" stop-color="#324F99"/>
</linearGradient>
<linearGradient id="paint1_linear_126_207" x1="9.5" y1="5" x2="9.5" y2="9" gradientUnits="userSpaceOnUse">
<stop stop-color="#FE5F57"/>
<stop offset="1" stop-color="#FFAEAA"/>
</linearGradient>
</defs>
</svg>
