<svg width="42" height="40" viewBox="0 0 42 40" fill="none" xmlns="http://www.w3.org/2000/svg">
<path d="M0 19.9043C0 10.5213 0 5.82984 2.90763 2.91492C5.81526 0 10.495 0 19.8545 0H27.3887C31.7519 0 33.9335 0 35.6679 0.67556C38.2643 1.68684 40.3174 3.7451 41.3261 6.34797C42 8.08675 42 10.2738 42 14.6479C42 22.2184 42 26.0037 40.8337 29.0131C39.0878 33.5181 35.5343 37.0805 31.0406 38.8308C28.0387 40 24.2629 40 16.7113 40H15.3803C10.2948 40 7.75204 40 5.77611 39.0881C3.62554 38.0957 1.89957 36.3654 0.90959 34.2094C0 32.2285 0 29.6794 0 24.5812V19.9043Z" fill="url(#paint0_linear_129_241)"/>
<path d="M0 19.9043C0 10.5213 0 5.82984 2.90763 2.91492C5.81526 0 10.495 0 19.8545 0H28.35C31.8135 0 33.5453 0 34.9545 0.428536C38.1272 1.3934 40.6101 3.88247 41.5725 7.0632C42 8.47589 42 10.212 42 13.6842C42 20.3615 42 23.7002 41.178 26.4169C39.3271 32.5337 34.5524 37.3204 28.4509 39.1759C25.741 40 22.4106 40 15.75 40H14.3684C10.2329 40 8.16507 40 6.51053 39.392C3.77035 38.385 1.61099 36.2202 0.60651 33.4732C0 31.8145 0 29.7415 0 25.5956V19.9043Z" fill="url(#paint1_linear_129_241)"/>
<path d="M0 19.9595C0 10.5765 0 5.88504 2.90763 2.97012C5.81526 0.0552062 10.495 0.0552062 19.8545 0.0552062H28.3914C31.8163 0.0552062 33.5287 0.0552062 34.9233 0.47432C38.1213 1.43539 40.6233 3.94362 41.5819 7.14965C42 8.54777 42 10.2645 42 13.6979C42 20.3006 42 23.6019 41.196 26.2906C39.3524 32.456 34.541 37.2796 28.391 39.1278C25.709 39.9338 22.4159 39.9337 15.8297 39.9337H14.3684C10.2329 39.9337 8.16507 39.9337 6.51053 39.3257C3.77035 38.3187 1.61099 36.1539 0.60651 33.4069C0 31.7482 0 29.6752 0 25.5293V19.9595Z" fill="url(#paint2_linear_129_241)"/>
<path d="M0 20C0 11.1269 0 6.69034 2.34938 3.73771C2.70474 3.2911 3.09439 2.87669 3.5143 2.49874C6.29044 0 10.4618 0 18.8045 0H29.1337C31.866 0 33.2321 0 34.3603 0.284136C38.0144 1.20446 40.8675 4.23897 41.7328 8.12541C42 9.3253 42 10.7783 42 13.6842C42 19.2726 42 22.0667 41.4862 24.3742C40.6694 28.0428 36.2393 28.4531 33.8504 31.0451C31.3724 33.7338 30.8861 38.5525 27.3082 39.4536C25.1386 40 22.5115 40 17.2572 40H14.3684C10.2329 40 8.16507 40 6.51053 39.3549C3.77035 38.2866 1.61099 35.99 0.60651 33.0756C0 31.3159 0 29.1166 0 24.7181V20Z" fill="#FFF9C6"/>
<path d="M19.8545 0.555664H28.3916C31.8523 0.555664 33.4728 0.560534 34.7793 0.953125C35.1808 1.07378 35.5707 1.22046 35.9473 1.39062C38.574 2.65452 40.5599 5.15698 41.2451 8.23438C41.3046 8.50167 41.3478 8.7833 41.3828 9.0957C41.3951 9.2395 41.4071 9.38825 41.417 9.54199C41.4903 10.6831 41.498 12.0823 41.499 13.9062C41.4989 19.3717 41.4902 22.0551 40.998 24.2656C40.6375 25.885 39.4887 26.8118 38.0049 27.6826C37.6351 27.8996 37.2524 28.1078 36.8594 28.3242C36.469 28.5392 36.0699 28.7614 35.6787 28.9971C34.897 29.468 34.1259 30.0078 33.4824 30.7061C32.8205 31.4243 32.3022 32.273 31.8447 33.1309C31.6156 33.5606 31.3984 33.9993 31.1865 34.4277C30.9734 34.8586 30.7654 35.2798 30.5498 35.6855C29.778 37.138 28.9607 38.2822 27.6963 38.7988C25.1915 39.4275 21.992 39.4336 15.8301 39.4336H14.3682C12.2946 39.4336 10.7618 39.4332 9.54004 39.3584C8.32205 39.2838 7.44513 39.1367 6.68262 38.8564C6.32714 38.7258 5.98293 38.5727 5.64941 38.4023C3.54959 37.261 1.90587 35.3116 1.0791 32.9131C0.660115 31.6974 0.545728 30.249 0.513672 27.8184C0.501392 26.8713 0.5 25.8022 0.5 24.5811V19.96C0.500002 18.8248 0.499857 17.7649 0.504883 16.7734C0.505862 16.5809 0.508376 16.3908 0.509766 16.2031C0.512092 15.8878 0.513834 15.5796 0.517578 15.2783C0.519248 15.1442 0.522414 15.0114 0.524414 14.8799C0.529246 14.5619 0.533959 14.2517 0.541016 13.9492C0.545654 13.7498 0.551868 13.5536 0.557617 13.3604C0.563936 13.1492 0.570315 12.9418 0.578125 12.7383C0.586566 12.5163 0.598018 12.2987 0.608398 12.085C0.650722 11.2247 0.707243 10.4346 0.790039 9.70508C1.07871 7.16179 1.6486 5.4208 2.74023 4.04883C3.07855 3.62364 3.44949 3.22938 3.84863 2.87012C4.12108 2.6249 4.40968 2.40579 4.7168 2.20801C5.84607 1.55696 7.23692 1.1565 9.02832 0.915039C11.6905 0.556223 15.1606 0.555664 19.8545 0.555664ZM40.3574 27.2266C38.6069 32.0019 34.9887 35.8378 30.3701 37.8662C30.7725 37.334 31.1179 36.7484 31.4336 36.1543C31.6573 35.7334 31.8714 35.2991 32.083 34.8711C32.2958 34.4407 32.5067 34.0157 32.7275 33.6016C33.1699 32.7719 33.6409 32.0098 34.2178 31.3838C34.7687 30.786 35.448 30.3031 36.1943 29.8535C36.5671 29.6289 36.9511 29.4154 37.3418 29.2002C37.7298 28.9865 38.1265 28.7704 38.5107 28.5449C39.1616 28.1629 39.8011 27.7409 40.3574 27.2266Z" stroke="url(#paint3_linear_129_241)"/>
<defs>
<linearGradient id="paint0_linear_129_241" x1="39.7091" y1="37.1292" x2="28.034" y2="25.2924" gradientUnits="userSpaceOnUse">
<stop stop-color="#A99F5B"/>
<stop offset="1" stop-color="#DED48F" stop-opacity="0"/>
</linearGradient>
<linearGradient id="paint1_linear_129_241" x1="34.1727" y1="30.9645" x2="36.9086" y2="33.5369" gradientUnits="userSpaceOnUse">
<stop stop-color="#FCF6C0"/>
<stop offset="1" stop-color="#DABE13"/>
</linearGradient>
<linearGradient id="paint2_linear_129_241" x1="33.1227" y1="29.7462" x2="36.9794" y2="33.4678" gradientUnits="userSpaceOnUse">
<stop stop-color="#FCF6C0"/>
<stop offset="1" stop-color="#DED38E"/>
</linearGradient>
<linearGradient id="paint3_linear_129_241" x1="21" y1="0" x2="21" y2="40" gradientUnits="userSpaceOnUse">
<stop stop-color="#E8DD98" stop-opacity="0"/>
<stop offset="1" stop-color="#E6D884"/>
</linearGradient>
</defs>
</svg>
