<svg width="16" height="16" viewBox="0 0 16 16" fill="none" xmlns="http://www.w3.org/2000/svg">
<path fill-rule="evenodd" clip-rule="evenodd" d="M6.4714 2.86192C6.73175 3.12227 6.73175 3.54438 6.4714 3.80473L4.27614 5.99999L10.6667 5.99999C12.5076 5.99999 14 7.49237 14 9.33332V12.6667C14 13.0348 13.7015 13.3333 13.3333 13.3333C12.9651 13.3333 12.6667 13.0348 12.6667 12.6667V9.33332C12.6667 8.22875 11.7712 7.33332 10.6667 7.33332L4.27614 7.33332L6.4714 9.52859C6.73175 9.78893 6.73175 10.211 6.4714 10.4714C6.21106 10.7317 5.78895 10.7317 5.5286 10.4714L2.19526 7.13806C1.93491 6.87771 1.93491 6.4556 2.19526 6.19525L5.5286 2.86192C5.78894 2.60157 6.21105 2.60157 6.4714 2.86192Z" fill="#14141F"/>
</svg>
