<svg width="64" height="64" viewBox="0 0 64 64" fill="none" xmlns="http://www.w3.org/2000/svg">
<circle cx="32" cy="32" r="32" transform="rotate(-90 32 32)" fill="url(#paint0_linear_125_939)"/>
<path d="M1.08594 32.0002C1.08594 14.9263 14.927 1.08532 32.001 1.0852C49.0749 1.08528 62.916 14.9263 62.916 32.0002C62.9158 49.0741 49.0748 62.9152 32.001 62.9153C14.9272 62.9152 1.08611 49.074 1.08594 32.0002ZM1.58594 32.0002C1.58611 48.7979 15.2033 62.4152 32.001 62.4153C48.7987 62.4152 62.4158 48.7979 62.416 32.0002C62.416 15.2024 48.7988 1.58528 32.001 1.5852C15.2032 1.58532 1.58594 15.2024 1.58594 32.0002ZM2.71191 32.0002C2.71191 15.825 15.8248 2.71239 32 2.71216C48.1754 2.71216 61.2881 15.8249 61.2881 32.0002C61.288 48.1755 48.1753 61.2883 32 61.2883C15.8249 61.2881 2.71205 48.1754 2.71191 32.0002ZM3.21191 32.0002C3.21205 47.8992 16.101 60.7881 32 60.7883C47.8992 60.7883 60.788 47.8994 60.7881 32.0002C60.7881 16.101 47.8992 3.21216 32 3.21216C16.1009 3.21239 3.21191 16.1011 3.21191 32.0002ZM4.34863 31.2864C4.72732 16.3397 16.9631 4.33933 32.001 4.33911L32.7148 4.3479C47.6616 4.72659 59.662 16.9622 59.6621 32.0002L59.6533 32.7141C59.2806 47.4236 47.4243 59.2799 32.7148 59.6526L32.001 59.6614C16.7245 59.6612 4.34 47.2767 4.33984 32.0002L4.34863 31.2864ZM4.83984 32.0002C4.84 47.0006 17.0007 59.1611 32.001 59.1614C47.0014 59.1613 59.162 47.0007 59.1621 32.0002C59.162 16.9997 47.0015 4.83917 32.001 4.83911C17.0006 4.83934 4.8399 16.9998 4.83984 32.0002ZM5.97558 31.3274C6.33231 17.2601 17.8477 5.96606 32.001 5.96606L32.6728 5.97388C46.7401 6.3304 58.0338 17.8462 58.0342 31.9993L58.0264 32.6711C57.6758 46.5155 46.5171 57.6738 32.6729 58.0247L32.001 58.0334C17.6229 58.0334 5.9668 46.3774 5.9668 31.9993L5.97558 31.3274ZM6.4668 31.9993C6.4668 46.1012 17.899 57.5334 32.001 57.5334C46.1028 57.5333 57.5342 46.1011 57.5342 31.9993C57.5338 17.8977 46.1026 6.46624 32.001 6.46606C17.8992 6.46606 6.46717 17.8976 6.4668 31.9993ZM7.60254 31.3694C7.93703 18.1814 18.7333 7.59302 32.002 7.59302L32.6318 7.60083C45.8198 7.93515 56.4078 18.7309 56.4082 31.9993L56.4004 32.6301C56.0713 45.6088 45.6105 56.0697 32.6318 56.3987L32.002 56.4065C18.5225 56.4065 7.59473 45.4788 7.59473 31.9993L7.60254 31.3694ZM8.09473 31.9993C8.09473 45.2026 18.7986 55.9065 32.002 55.9065C45.2051 55.9062 55.9082 45.2025 55.9082 31.9993C55.9078 18.7964 45.2048 8.09326 32.002 8.09302C18.7989 8.09302 8.09514 18.7963 8.09473 31.9993ZM9.22168 32.0002C9.2217 19.4195 19.4203 9.22017 32.001 9.21997L32.5889 9.22778C44.898 9.53966 54.7812 19.616 54.7812 32.0002L54.7734 32.5881C54.4614 44.897 44.3849 54.7793 32.001 54.7795C19.4204 54.7793 9.22188 44.5808 9.22168 32.0002ZM9.72168 32.0002C9.72188 44.3047 19.6965 54.2793 32.001 54.2795C44.3054 54.2793 54.2811 44.3046 54.2812 32.0002C54.2812 19.6957 44.3055 9.72022 32.001 9.71997C19.6964 9.72017 9.7217 19.6957 9.72168 32.0002ZM10.8477 32.0002C10.8477 20.3181 20.3179 10.848 32 10.8479C43.6822 10.8479 53.1523 20.318 53.1523 32.0002C53.1522 43.6824 43.6821 53.1526 32 53.1526C20.318 53.1525 10.8478 43.6823 10.8477 32.0002ZM11.3477 32.0002C11.3478 43.4061 20.5941 52.6525 32 52.6526C43.406 52.6526 52.6522 43.4062 52.6523 32.0002C52.6523 20.5942 43.4061 11.3479 32 11.3479C20.594 11.348 11.3477 20.5942 11.3477 32.0002ZM12.4756 32.0002C12.4756 21.2167 21.2174 12.4749 32.001 12.4749C42.7846 12.4749 51.5264 21.2166 51.5264 32.0002C51.5263 42.7838 42.7845 51.5256 32.001 51.5256C21.2175 51.5256 12.4757 42.7837 12.4756 32.0002ZM12.9756 32.0002C12.9757 42.5076 21.4936 51.0256 32.001 51.0256C42.5084 51.0256 51.0263 42.5076 51.0264 32.0002C51.0264 21.4928 42.5084 12.9749 32.001 12.9749C21.4936 12.9749 12.9756 21.4928 12.9756 32.0002ZM14.1084 31.5383C14.3535 21.8669 22.2705 14.1018 32.001 14.1018L32.4629 14.1077C42.1341 14.3529 49.8993 22.2699 49.8994 32.0002L49.8936 32.4622C49.6523 41.9798 41.9806 49.6515 32.4629 49.8928L32.001 49.8987C22.1162 49.8987 14.1028 41.885 14.1025 32.0002L14.1084 31.5383ZM14.6025 32.0002C14.6028 41.6089 22.3923 49.3987 32.001 49.3987C41.6094 49.3984 49.3992 41.6087 49.3994 32.0002C49.3993 22.3917 41.6095 14.6021 32.001 14.6018C22.3922 14.6018 14.6026 22.3915 14.6025 32.0002ZM15.7354 31.5793C15.9585 22.7874 23.1563 15.7288 32.002 15.7288L32.4219 15.7336C41.2136 15.9567 48.2721 23.1539 48.2725 31.9993L48.2676 32.4192C48.0485 41.0718 41.0744 48.0464 32.4219 48.2659L32.002 48.2708C23.0156 48.2708 15.7305 40.9856 15.7305 31.9993L15.7354 31.5793ZM16.2305 31.9993C16.2305 40.7095 23.2918 47.7708 32.002 47.7708C40.7119 47.7704 47.7725 40.7092 47.7725 31.9993C47.7721 23.2896 40.7116 16.2291 32.002 16.2288C23.292 16.2288 16.2309 23.2894 16.2305 31.9993ZM17.3613 31.6213C17.5622 23.7088 24.04 17.3558 32.001 17.3557L32.3789 17.3606C40.2914 17.5613 46.6441 24.0385 46.6445 31.9993L46.6396 32.3782C46.4421 40.1652 40.166 46.4414 32.3789 46.6389L32.001 46.6438C23.9134 46.6437 17.3564 40.0869 17.3564 31.9993L17.3613 31.6213ZM17.8564 31.9993C17.8564 39.8108 24.1895 46.1437 32.001 46.1438C39.8123 46.1435 46.1445 39.8107 46.1445 31.9993C46.1441 24.1882 39.812 17.856 32.001 17.8557C24.1898 17.8558 17.8569 24.1882 17.8564 31.9993ZM18.9844 32.0002C18.9844 24.8114 24.8122 18.983 32.001 18.9827L32.3369 18.9875C39.3708 19.1656 45.0185 24.9234 45.0186 32.0002L45.0137 32.3362C44.8353 39.3698 39.0776 45.0168 32.001 45.0168C24.8123 45.0165 18.9846 39.189 18.9844 32.0002ZM19.4844 32.0002C19.4846 38.9128 25.0884 44.5165 32.001 44.5168C38.9138 44.5168 44.5184 38.913 44.5186 32.0002C44.5185 25.0874 38.9139 19.4827 32.001 19.4827C25.0883 19.483 19.4844 25.0876 19.4844 32.0002ZM20.6113 32.0002C20.6113 25.7099 25.7106 20.6107 32.001 20.6106C38.2913 20.6107 43.3906 25.7099 43.3906 32.0002C43.3905 38.2905 38.2912 43.3898 32.001 43.3899C25.7107 43.3898 20.6114 38.2905 20.6113 32.0002ZM21.1113 32.0002C21.1114 38.0144 25.9868 42.8898 32.001 42.8899C38.0151 42.8898 42.8905 38.0144 42.8906 32.0002C42.8906 25.986 38.0152 21.1107 32.001 21.1106C25.9868 21.1107 21.1113 25.986 21.1113 32.0002ZM22.2373 32.0002C22.2373 26.6085 26.6083 22.2377 32 22.2375C37.3918 22.2375 41.7627 26.6084 41.7627 32.0002C41.7625 37.3919 37.3917 41.7629 32 41.7629C26.6084 41.7628 22.2375 37.3918 22.2373 32.0002ZM22.7373 32.0002C22.7375 37.1157 26.8846 41.2628 32 41.2629C37.1156 41.2629 41.2625 37.1158 41.2627 32.0002C41.2627 26.8846 37.1157 22.7375 32 22.7375C26.8845 22.7377 22.7373 26.8847 22.7373 32.0002Z" fill="url(#paint1_linear_125_939)"/>
<circle cx="32.0008" cy="31.9999" r="8.13559" transform="rotate(-90 32.0008 31.9999)" fill="#FBFBFB"/>
<defs>
<linearGradient id="paint0_linear_125_939" x1="64" y1="32" x2="-1.90735e-06" y2="32" gradientUnits="userSpaceOnUse">
<stop stop-color="#181818"/>
<stop offset="1"/>
</linearGradient>
<linearGradient id="paint1_linear_125_939" x1="0.00119813" y1="33.085" x2="62.916" y2="33.085" gradientUnits="userSpaceOnUse">
<stop stop-color="#0A0A0A"/>
<stop offset="0.120711" stop-color="#171717"/>
<stop offset="0.503577" stop-color="#BDBDBD"/>
<stop offset="0.867204" stop-color="#171717"/>
<stop offset="1" stop-color="#0A0A0A"/>
</linearGradient>
</defs>
</svg>
