<svg width="32" height="32" viewBox="0 0 32 32" fill="none" xmlns="http://www.w3.org/2000/svg">
<rect width="32" height="32" rx="7" fill="white"/>
<rect x="0.5" y="0.5" width="31" height="31" rx="6.5" stroke="#EAEAEA"/>
<path d="M19.3 7.5C19.6 7.3 20.1 7.1 20.7 7.2C21.3 7.3 21.7 7.7 22 8.1L22.1 8.2L22.2 8.4C22.5 9 22.4 9.7 22.4 10.1C22.3 10.6 22.2 11.1 22 11.6C21.8 12.2 21.6 12.8 21.4 13.3C21.2 13.9 21 14.4 20.8 14.9C20.5 15.8 20.4 16.5 20.3 17C20.7 16.4 21.2 15.5 21.7 14.5C22.2 13.5 22.7 12.4 23.1 11.4C23.5 10.5 23.9 9.5 24.3 8.9C24.7 8.2 25.7 8 26.5 8.4C27.2 8.9 27.5 9.9 27 10.7C26.8 11.1 26.4 11.8 26 12.8C25.6 13.8 25.1 14.9 24.6 16C24.1 17 23.5 18.1 22.9 18.9C22.6 19.3 22.2 19.8 21.8 20.1C21.4 20.4 20.8 20.8 20.1 20.7C19.3 20.7 18.6 20.4 18 19.8C17.5 19.2 17.3 18.5 17.2 17.8C17.1 17.2 17.2 16.4 17.3 15.7C16.7 16.8 16.2 17.9 15.7 18.7C15.4 19.3 15.1 19.8 14.8 20.2C14.7 20.3 14.4 20.7 14 20.9C13.7 21 13.3 21.1 12.8 21C12.3 20.8 12 20.4 11.9 20.1C10.9 18 11.2 15.8 11.4 14.2C11.5 13.9 11.5 13.5 11.6 13.2C11.4 13.5 11.2 13.8 11 14.1C10.3 15.3 9.6 16.6 9.1 17.7C8.8 18.2 8.6 18.7 8.5 19C8.3 19.5 8.3 19.5 8.3 19.4C8.3 20.3 7.6 21 6.8 21C5.9 21 5.2 20.3 5.2 19.4C5.2 18.8 5.4 18.2 5.6 17.8C5.7 17.3 6 16.7 6.3 16.1C6.9 14.9 7.7 13.5 8.5 12.2C9.3 10.9 10.1 9.6 10.8 8.8C11.1 8.4 11.5 8 12 7.7C12.2 7.6 12.7 7.3 13.3 7.4C13.9 7.6 14.3 8 14.5 8.5L14.6 8.6L14.6 8.8C15.2 10.6 14.9 12.6 14.6 14.1C14.9 13.6 15.1 13.1 15.4 12.6C16.2 11.1 17 9.5 17.8 8.5C18.1 8 18.6 7.4 19.3 7.5Z" fill="url(#g)"/>
<defs>
<linearGradient id="g" x1="27" y1="14" x2="5.2" y2="14" gradientUnits="userSpaceOnUse">
<stop stop-color="#00B0D2"/>
<stop offset="0.23" stop-color="#A4AF00"/>
<stop offset="0.46" stop-color="#FD8800"/>
<stop offset="0.74" stop-color="#FD47D9"/>
<stop offset="1" stop-color="#27A5FF"/>
</linearGradient>
</defs>
</svg>
